{"glyphs":{"a":{"x_min":0,"x_max":224,"ha":224,"o":"m 139 222 q 155 220 162 207 q 163 217 162 221 q 161 226 171 225 q 181 224 192 218 q 203 212 211 202 q 219 192 215 180 q 213 175 205 162 q 197 150 186 133 q 176 116 165 98 q 154 79 146 64 q 139 48 136 38 q 133 27 139 26 q 145 24 158 35 q 172 46 188 63 q 204 80 220 100 q 237 120 250 137 q 258 146 264 142 q 270 137 266 128 q 254 110 238 88 q 221 65 203 46 q 185 26 166 12 q 147 -1 131 -1 q 108 -3 99 12 q 90 26 88 40 q 75 23 62 12 q 48 1 32 1 q 17 0 6 10 q -5 20 -8 38 q -11 57 -4 84 q 2 110 21 142 q 44 175 72 200 q 101 224 139 222 z m 35 24 q 53 26 72 51 q 94 77 107 101 q 122 126 129 140 q 136 155 140 164 q 148 181 150 192 q 153 203 143 203 q 138 203 128 196 q 118 190 106 179 q 95 168 83 154 q 71 141 62 126 q 50 109 42 90 q 34 72 30 57 q 27 42 28 32 q 29 23 35 24 z"},"L":{"x_min":0,"x_max":486,"ha":486,"o":"m 608 -65 q 612 -69 616 -78 q 621 -86 614 -86 q 612 -86 605 -82 q 598 -78 586 -72 q 575 -66 560 -60 q 544 -55 525 -52 q 471 -43 410 -44 q 349 -44 288 -52 q 226 -60 167 -76 q 108 -91 57 -112 q 44 -118 40 -112 q 37 -105 39 -94 q 41 -84 48 -73 q 54 -62 61 -59 q 114 -42 191 -30 q 196 11 222 53 q 249 95 287 138 q 224 138 178 148 q 132 159 112 167 q 83 177 60 196 q 36 214 21 240 q 6 265 2 296 q -3 326 7 359 q 15 386 38 412 q 60 438 91 447 q 101 450 120 450 q 138 451 158 446 q 179 440 200 428 q 220 417 234 398 q 246 381 250 380 q 254 379 256 389 q 257 399 260 419 q 263 439 275 466 q 290 501 312 528 q 335 555 362 572 q 388 590 417 598 q 446 605 475 601 q 510 596 540 575 q 569 554 579 521 q 585 501 584 477 q 584 453 574 420 q 567 388 542 352 q 516 316 480 278 q 445 240 404 200 q 362 161 325 122 q 288 84 259 46 q 230 8 218 -27 q 274 -20 333 -18 q 392 -15 445 -18 q 498 -22 541 -34 q 584 -45 608 -65 z m 527 441 q 539 495 512 524 q 485 553 437 548 q 410 545 381 527 q 352 509 328 483 q 303 457 286 426 q 270 396 269 369 q 261 335 254 330 q 248 326 237 342 q 211 371 182 380 q 153 390 127 384 q 101 379 82 361 q 62 343 56 317 q 45 277 66 248 q 86 218 124 198 q 162 179 210 170 q 259 160 306 160 q 340 197 376 234 q 413 270 444 306 q 476 341 498 375 q 521 409 527 441 z m 387 166 q 399 168 406 170 q 414 171 424 174 q 433 177 438 171 q 442 165 437 163 q 420 158 404 154 q 387 149 371 146 z"},"3":{"x_min":0,"x_max":1219,"ha":1219,"o":"m 876 781 l 739 657 l 775 471 l 615 565 l 450 471 l 489 652 l 351 781 l 537 801 l 615 972 l 690 802 z m 682 576 l 639 834 l 586 834 l 541 576 l 564 562 l 583 576 l 592 634 l 631 634 l 642 576 l 663 562 z m 628 672 l 598 672 l 612 774 z m 610 21 l 631 21 l 624 39 q 622 42 622 44 q 622 46 619 49 q 619 45 616 39 z m 352 -5 l 352 3 l 363 3 l 363 -5 z m 844 -5 l 844 58 l 852 58 l 852 1 l 883 1 l 883 -5 z m 787 -5 l 787 58 l 832 58 l 832 49 l 795 49 l 795 30 l 829 30 l 829 22 l 795 22 l 795 1 l 832 1 l 832 -5 z m 565 -5 l 565 21 l 541 58 l 552 58 l 564 39 q 567 30 570 28 q 571 30 572 33 q 574 36 577 39 l 589 58 l 598 58 l 573 21 l 573 -5 z m 376 -5 l 376 58 l 400 58 q 403 58 406 56 q 408 55 409 55 q 415 54 417 49 q 420 46 420 40 q 420 36 417 34 q 415 28 411 28 q 415 27 420 22 q 423 16 423 13 q 423 10 422 8 q 421 7 421 6 q 420 0 415 0 q 414 -3 412 -3 q 411 -3 409 -5 l 400 -5 z m 205 -5 l 187 58 l 196 58 l 205 16 q 207 12 207 9 q 207 6 208 3 q 210 10 210 15 l 222 58 l 232 58 l 241 25 q 243 18 244 14 q 246 9 246 3 q 247 6 247 9 q 247 12 249 16 l 259 58 l 267 58 l 249 -5 l 241 -5 l 229 42 q 228 46 228 49 q 226 46 226 42 l 213 -5 z m 123 -5 l 105 58 l 115 58 l 123 16 q 123 9 127 3 q 129 10 129 15 l 141 58 l 150 58 l 160 25 q 162 18 162 14 q 163 9 163 3 q 166 6 166 9 q 166 12 168 16 l 177 58 l 186 58 l 168 -5 l 160 -5 l 148 42 q 147 46 147 49 q 144 46 144 42 l 130 -5 z m 384 30 l 397 30 q 403 30 405 33 q 409 33 409 34 q 411 36 411 40 q 411 45 409 46 l 408 46 q 406 46 406 47 q 406 48 405 48 q 403 49 396 49 l 384 49 z m 285 -5 l 268 58 l 277 58 l 286 16 q 288 12 288 9 q 288 6 291 3 q 291 9 292 11 q 292 13 292 15 l 304 58 l 313 58 l 324 25 q 325 18 326 14 q 327 9 327 3 q 330 6 330 9 q 330 12 331 16 l 342 58 l 349 58 l 331 -5 l 324 -5 l 312 42 q 310 46 310 49 q 307 46 307 42 l 294 -5 z m 664 28 l 682 28 q 685 28 688 29 q 690 30 693 30 q 696 30 696 34 q 697 36 697 40 q 697 45 694 48 q 693 49 684 49 l 664 49 z m 384 1 l 400 1 q 403 1 405 3 l 409 3 q 411 6 414 7 l 414 13 q 414 16 411 19 q 411 22 408 22 l 397 22 l 384 22 z m 435 -5 l 435 58 l 442 58 l 442 -5 z m 985 25 q 985 12 990 7 q 996 1 1006 1 q 1017 1 1021 7 q 1027 12 1027 27 q 1027 34 1026 39 q 1023 46 1018 48 q 1014 49 1006 49 q 997 49 993 45 q 985 39 985 25 z m 976 25 q 976 42 985 49 q 991 58 1006 58 q 1011 58 1014 56 q 1018 55 1021 54 q 1026 52 1028 49 q 1030 46 1033 42 q 1035 39 1035 27 q 1035 13 1032 9 q 1027 1 1021 -3 q 1015 -6 1006 -6 q 1002 -6 998 -6 q 994 -5 990 -3 q 987 0 984 3 q 982 6 981 9 q 979 13 978 17 q 976 21 976 25 z m 592 -5 l 616 58 l 625 58 l 651 -5 l 642 -5 l 634 13 l 609 13 l 600 -5 z m 459 -5 l 459 58 l 466 58 l 466 1 l 495 1 l 495 -5 z m 892 -5 l 892 3 l 903 3 l 903 -5 z m 748 19 l 748 27 l 774 27 l 774 3 q 768 -3 762 -5 q 759 -5 755 -6 q 751 -6 748 -6 q 739 -6 733 -3 q 729 0 726 2 q 723 4 721 9 q 720 13 718 17 q 717 21 717 25 q 717 31 718 34 q 720 37 721 42 q 724 51 732 54 q 735 55 740 56 q 744 58 748 58 q 756 58 760 55 q 766 54 768 49 q 772 45 774 40 l 766 39 q 766 40 762 45 q 762 48 756 49 l 748 49 l 739 49 q 735 48 732 45 q 732 43 727 39 q 727 36 726 33 q 726 30 726 27 q 726 16 729 13 q 735 4 736 3 q 741 1 748 1 q 754 1 759 3 q 762 6 764 6 q 765 6 766 7 l 766 19 z m 657 -5 l 657 58 l 684 58 q 688 58 691 56 q 694 55 697 55 q 702 54 703 49 q 706 46 706 40 q 706 33 702 28 q 700 27 696 26 q 693 25 688 22 q 691 22 692 22 q 693 21 694 21 q 696 18 696 16 q 697 13 700 10 l 712 -5 l 702 -5 l 693 7 q 690 10 689 12 q 688 15 687 16 q 687 19 686 19 q 684 19 682 21 l 681 21 q 679 21 679 22 q 679 22 678 22 l 675 22 l 664 22 l 664 -5 z m 505 -5 l 505 58 l 514 58 l 514 1 l 544 1 l 544 -5 z m 961 16 l 969 15 q 966 3 960 0 q 954 -6 943 -6 q 934 -6 928 -3 q 924 0 922 3 q 921 6 918 9 q 915 21 915 27 q 915 33 918 45 q 925 52 928 54 q 933 55 936 56 q 939 58 943 58 q 948 58 952 56 q 957 55 960 54 q 963 51 965 48 q 967 45 969 40 l 960 39 q 960 45 954 48 q 951 49 943 49 q 934 49 931 48 q 928 46 928 44 q 927 42 924 39 q 924 36 923 33 q 922 30 922 27 q 922 18 927 13 q 927 10 928 8 q 930 6 931 3 q 936 1 943 1 q 951 1 955 6 q 960 10 961 16 z m 1047 -5 l 1047 58 l 1059 58 l 1074 13 q 1074 10 1076 8 q 1077 6 1077 3 q 1077 4 1080 13 l 1093 58 l 1105 58 l 1105 -5 l 1098 -5 l 1098 46 l 1080 -5 l 1072 -5 l 1054 48 l 1054 -5 z m 610 21 l 631 21 l 624 39 q 622 42 622 44 q 622 46 619 49 q 619 45 616 39 z m 352 -5 l 352 3 l 363 3 l 363 -5 z m 844 -5 l 844 58 l 852 58 l 852 1 l 883 1 l 883 -5 z m 787 -5 l 787 58 l 832 58 l 832 49 l 795 49 l 795 30 l 829 30 l 829 22 l 795 22 l 795 1 l 832 1 l 832 -5 z m 565 -5 l 565 21 l 541 58 l 552 58 l 564 39 q 567 30 570 28 q 571 30 572 33 q 574 36 577 39 l 589 58 l 598 58 l 573 21 l 573 -5 z m 376 -5 l 376 58 l 400 58 q 403 58 406 56 q 408 55 409 55 q 415 54 417 49 q 420 46 420 40 q 420 36 417 34 q 415 28 411 28 q 415 27 420 22 q 423 16 423 13 q 423 10 422 8 q 421 7 421 6 q 420 0 415 0 q 414 -3 412 -3 q 411 -3 409 -5 l 400 -5 z m 205 -5 l 187 58 l 196 58 l 205 16 q 207 12 207 9 q 207 6 208 3 q 210 10 210 15 l 222 58 l 232 58 l 241 25 q 243 18 244 14 q 246 9 246 3 q 247 6 247 9 q 247 12 249 16 l 259 58 l 267 58 l 249 -5 l 241 -5 l 229 42 q 228 46 228 49 q 226 46 226 42 l 213 -5 z m 123 -5 l 105 58 l 115 58 l 123 16 q 123 9 127 3 q 129 10 129 15 l 141 58 l 150 58 l 160 25 q 162 18 162 14 q 163 9 163 3 q 166 6 166 9 q 166 12 168 16 l 177 58 l 186 58 l 168 -5 l 160 -5 l 148 42 q 147 46 147 49 q 144 46 144 42 l 130 -5 z m 384 30 l 397 30 q 403 30 405 33 q 409 33 409 34 q 411 36 411 40 q 411 45 409 46 l 408 46 q 406 46 406 47 q 406 48 405 48 q 403 49 396 49 l 384 49 z m 285 -5 l 268 58 l 277 58 l 286 16 q 288 12 288 9 q 288 6 291 3 q 291 9 292 11 q 292 13 292 15 l 304 58 l 313 58 l 324 25 q 325 18 326 14 q 327 9 327 3 q 330 6 330 9 q 330 12 331 16 l 342 58 l 349 58 l 331 -5 l 324 -5 l 312 42 q 310 46 310 49 q 307 46 307 42 l 294 -5 z m 664 28 l 682 28 q 685 28 688 29 q 690 30 693 30 q 696 30 696 34 q 697 36 697 40 q 697 45 694 48 q 693 49 684 49 l 664 49 z m 384 1 l 400 1 q 403 1 405 3 l 409 3 q 411 6 414 7 l 414 13 q 414 16 411 19 q 411 22 408 22 l 397 22 l 384 22 z m 435 -5 l 435 58 l 442 58 l 442 -5 z m 985 25 q 985 12 990 7 q 996 1 1006 1 q 1017 1 1021 7 q 1027 12 1027 27 q 1027 34 1026 39 q 1023 46 1018 48 q 1014 49 1006 49 q 997 49 993 45 q 985 39 985 25 z m 976 25 q 976 42 985 49 q 991 58 1006 58 q 1011 58 1014 56 q 1018 55 1021 54 q 1026 52 1028 49 q 1030 46 1033 42 q 1035 39 1035 27 q 1035 13 1032 9 q 1027 1 1021 -3 q 1015 -6 1006 -6 q 1002 -6 998 -6 q 994 -5 990 -3 q 987 0 984 3 q 982 6 981 9 q 979 13 978 17 q 976 21 976 25 z m 592 -5 l 616 58 l 625 58 l 651 -5 l 642 -5 l 634 13 l 609 13 l 600 -5 z m 459 -5 l 459 58 l 466 58 l 466 1 l 495 1 l 495 -5 z m 892 -5 l 892 3 l 903 3 l 903 -5 z m 748 19 l 748 27 l 774 27 l 774 3 q 768 -3 762 -5 q 759 -5 755 -6 q 751 -6 748 -6 q 739 -6 733 -3 q 729 0 726 2 q 723 4 721 9 q 720 13 718 17 q 717 21 717 25 q 717 31 718 34 q 720 37 721 42 q 724 51 732 54 q 735 55 740 56 q 744 58 748 58 q 756 58 760 55 q 766 54 768 49 q 772 45 774 40 l 766 39 q 766 40 762 45 q 762 48 756 49 l 748 49 l 739 49 q 735 48 732 45 q 732 43 727 39 q 727 36 726 33 q 726 30 726 27 q 726 16 729 13 q 735 4 736 3 q 741 1 748 1 q 754 1 759 3 q 762 6 764 6 q 765 6 766 7 l 766 19 z m 657 -5 l 657 58 l 684 58 q 688 58 691 56 q 694 55 697 55 q 702 54 703 49 q 706 46 706 40 q 706 33 702 28 q 700 27 696 26 q 693 25 688 22 q 691 22 692 22 q 693 21 694 21 q 696 18 696 16 q 697 13 700 10 l 712 -5 l 702 -5 l 693 7 q 690 10 689 12 q 688 15 687 16 q 687 19 686 19 q 684 19 682 21 l 681 21 q 679 21 679 22 q 679 22 678 22 l 675 22 l 664 22 l 664 -5 z m 505 -5 l 505 58 l 514 58 l 514 1 l 544 1 l 544 -5 z m 961 16 l 969 15 q 966 3 960 0 q 954 -6 943 -6 q 934 -6 928 -3 q 924 0 922 3 q 921 6 918 9 q 915 21 915 27 q 915 33 918 45 q 925 52 928 54 q 933 55 936 56 q 939 58 943 58 q 948 58 952 56 q 957 55 960 54 q 963 51 965 48 q 967 45 969 40 l 960 39 q 960 45 954 48 q 951 49 943 49 q 934 49 931 48 q 928 46 928 44 q 927 42 924 39 q 924 36 923 33 q 922 30 922 27 q 922 18 927 13 q 927 10 928 8 q 930 6 931 3 q 936 1 943 1 q 951 1 955 6 q 960 10 961 16 z m 1047 -5 l 1047 58 l 1059 58 l 1074 13 q 1074 10 1076 8 q 1077 6 1077 3 q 1077 4 1080 13 l 1093 58 l 1105 58 l 1105 -5 l 1098 -5 l 1098 46 l 1080 -5 l 1072 -5 l 1054 48 l 1054 -5 z m 610 21 l 631 21 l 624 39 q 622 42 622 44 q 622 46 619 49 q 619 45 616 39 z m 352 -5 l 352 3 l 363 3 l 363 -5 z m 844 -5 l 844 58 l 852 58 l 852 1 l 883 1 l 883 -5 z m 787 -5 l 787 58 l 832 58 l 832 49 l 795 49 l 795 30 l 829 30 l 829 22 l 795 22 l 795 1 l 832 1 l 832 -5 z m 565 -5 l 565 21 l 541 58 l 552 58 l 564 39 q 567 30 570 28 q 571 30 572 33 q 574 36 577 39 l 589 58 l 598 58 l 573 21 l 573 -5 z m 376 -5 l 376 58 l 400 58 q 403 58 406 56 q 408 55 409 55 q 415 54 417 49 q 420 46 420 40 q 420 36 417 34 q 415 28 411 28 q 415 27 420 22 q 423 16 423 13 q 423 10 422 8 q 421 7 421 6 q 420 0 415 0 q 414 -3 412 -3 q 411 -3 409 -5 l 400 -5 z m 205 -5 l 187 58 l 196 58 l 205 16 q 207 12 207 9 q 207 6 208 3 q 210 10 210 15 l 222 58 l 232 58 l 241 25 q 243 18 244 14 q 246 9 246 3 q 247 6 247 9 q 247 12 249 16 l 259 58 l 267 58 l 249 -5 l 241 -5 l 229 42 q 228 46 228 49 q 226 46 226 42 l 213 -5 z m 123 -5 l 105 58 l 115 58 l 123 16 q 123 9 127 3 q 129 10 129 15 l 141 58 l 150 58 l 160 25 q 162 18 162 14 q 163 9 163 3 q 166 6 166 9 q 166 12 168 16 l 177 58 l 186 58 l 168 -5 l 160 -5 l 148 42 q 147 46 147 49 q 144 46 144 42 l 130 -5 z m 384 30 l 397 30 q 403 30 405 33 q 409 33 409 34 q 411 36 411 40 q 411 45 409 46 l 408 46 q 406 46 406 47 q 406 48 405 48 q 403 49 396 49 l 384 49 z m 285 -5 l 268 58 l 277 58 l 286 16 q 288 12 288 9 q 288 6 291 3 q 291 9 292 11 q 292 13 292 15 l 304 58 l 313 58 l 324 25 q 325 18 326 14 q 327 9 327 3 q 330 6 330 9 q 330 12 331 16 l 342 58 l 349 58 l 331 -5 l 324 -5 l 312 42 q 310 46 310 49 q 307 46 307 42 l 294 -5 z m 664 28 l 682 28 q 685 28 688 29 q 690 30 693 30 q 696 30 696 34 q 697 36 697 40 q 697 45 694 48 q 693 49 684 49 l 664 49 z m 384 1 l 400 1 q 403 1 405 3 l 409 3 q 411 6 414 7 l 414 13 q 414 16 411 19 q 411 22 408 22 l 397 22 l 384 22 z m 435 -5 l 435 58 l 442 58 l 442 -5 z m 985 25 q 985 12 990 7 q 996 1 1006 1 q 1017 1 1021 7 q 1027 12 1027 27 q 1027 34 1026 39 q 1023 46 1018 48 q 1014 49 1006 49 q 997 49 993 45 q 985 39 985 25 z m 976 25 q 976 42 985 49 q 991 58 1006 58 q 1011 58 1014 56 q 1018 55 1021 54 q 1026 52 1028 49 q 1030 46 1033 42 q 1035 39 1035 27 q 1035 13 1032 9 q 1027 1 1021 -3 q 1015 -6 1006 -6 q 1002 -6 998 -6 q 994 -5 990 -3 q 987 0 984 3 q 982 6 981 9 q 979 13 978 17 q 976 21 976 25 z m 592 -5 l 616 58 l 625 58 l 651 -5 l 642 -5 l 634 13 l 609 13 l 600 -5 z m 459 -5 l 459 58 l 466 58 l 466 1 l 495 1 l 495 -5 z m 892 -5 l 892 3 l 903 3 l 903 -5 z m 748 19 l 748 27 l 774 27 l 774 3 q 768 -3 762 -5 q 759 -5 755 -6 q 751 -6 748 -6 q 739 -6 733 -3 q 729 0 726 2 q 723 4 721 9 q 720 13 718 17 q 717 21 717 25 q 717 31 718 34 q 720 37 721 42 q 724 51 732 54 q 735 55 740 56 q 744 58 748 58 q 756 58 760 55 q 766 54 768 49 q 772 45 774 40 l 766 39 q 766 40 762 45 q 762 48 756 49 l 748 49 l 739 49 q 735 48 732 45 q 732 43 727 39 q 727 36 726 33 q 726 30 726 27 q 726 16 729 13 q 735 4 736 3 q 741 1 748 1 q 754 1 759 3 q 762 6 764 6 q 765 6 766 7 l 766 19 z m 657 -5 l 657 58 l 684 58 q 688 58 691 56 q 694 55 697 55 q 702 54 703 49 q 706 46 706 40 q 706 33 702 28 q 700 27 696 26 q 693 25 688 22 q 691 22 692 22 q 693 21 694 21 q 696 18 696 16 q 697 13 700 10 l 712 -5 l 702 -5 l 693 7 q 690 10 689 12 q 688 15 687 16 q 687 19 686 19 q 684 19 682 21 l 681 21 q 679 21 679 22 q 679 22 678 22 l 675 22 l 664 22 l 664 -5 z m 505 -5 l 505 58 l 514 58 l 514 1 l 544 1 l 544 -5 z m 961 16 l 969 15 q 966 3 960 0 q 954 -6 943 -6 q 934 -6 928 -3 q 924 0 922 3 q 921 6 918 9 q 915 21 915 27 q 915 33 918 45 q 925 52 928 54 q 933 55 936 56 q 939 58 943 58 q 948 58 952 56 q 957 55 960 54 q 963 51 965 48 q 967 45 969 40 l 960 39 q 960 45 954 48 q 951 49 943 49 q 934 49 931 48 q 928 46 928 44 q 927 42 924 39 q 924 36 923 33 q 922 30 922 27 q 922 18 927 13 q 927 10 928 8 q 930 6 931 3 q 936 1 943 1 q 951 1 955 6 q 960 10 961 16 z m 1047 -5 l 1047 58 l 1059 58 l 1074 13 q 1074 10 1076 8 q 1077 6 1077 3 q 1077 4 1080 13 l 1093 58 l 1105 58 l 1105 -5 l 1098 -5 l 1098 46 l 1080 -5 l 1072 -5 l 1054 48 l 1054 -5 z m 175 111 l 187 106 q 184 93 174 84 q 162 75 148 75 q 135 75 123 81 q 111 90 109 99 q 103 109 103 124 q 103 141 109 151 q 114 162 124 166 q 135 172 148 172 q 165 172 171 165 q 181 162 186 145 l 174 144 q 168 156 163 157 q 157 163 148 163 q 136 163 130 157 q 121 151 118 144 q 117 138 117 124 q 117 111 121 105 q 124 94 130 91 q 138 85 147 85 q 159 85 166 93 q 169 96 172 100 q 174 105 175 111 z m 199 123 q 199 135 202 144 q 205 153 213 159 q 219 166 227 169 q 235 172 244 172 q 258 172 268 166 q 277 162 285 150 q 291 135 291 124 q 291 117 290 111 q 288 105 285 99 q 277 87 267 81 q 255 75 244 75 q 237 75 232 76 q 226 78 220 81 q 210 87 205 99 q 199 109 199 123 z m 213 123 q 213 105 220 94 q 231 85 244 85 q 259 85 267 97 q 277 108 277 124 q 277 130 276 134 q 274 139 273 144 q 270 154 261 157 q 256 163 244 163 q 232 163 222 153 q 213 145 213 123 z m 306 78 l 306 171 l 324 171 l 346 105 q 351 96 351 91 q 354 94 357 106 l 381 171 l 396 171 l 396 78 l 384 78 l 384 156 l 357 78 l 345 78 l 318 157 l 318 78 z m 417 78 l 417 171 l 453 171 l 466 171 q 474 171 478 166 q 480 165 486 157 q 487 154 488 151 q 489 148 489 144 q 489 135 481 124 q 474 117 453 117 l 429 117 l 429 78 z m 429 126 l 454 126 q 468 126 469 132 q 475 133 475 144 q 475 151 474 153 q 468 159 463 159 q 462 162 453 162 l 429 162 z m 505 78 l 505 171 l 517 171 l 517 87 l 564 87 l 564 78 z m 579 78 l 579 171 l 648 171 l 648 162 l 591 162 l 591 132 l 643 132 l 643 120 l 591 120 l 591 87 l 649 87 l 649 78 z m 690 78 l 690 162 l 658 162 l 658 171 l 735 171 l 735 162 l 703 162 l 703 78 z m 748 78 l 748 171 l 817 171 l 817 162 l 760 162 l 760 132 l 813 132 l 813 120 l 760 120 l 760 87 l 819 87 l 819 78 z m 870 106 l 882 108 q 882 100 885 97 q 888 91 895 88 q 898 87 909 87 q 912 87 916 87 q 919 87 922 88 q 927 88 930 94 q 931 97 931 103 q 931 108 930 111 q 928 112 926 113 q 924 114 921 117 q 919 117 904 120 q 897 123 892 124 q 888 124 885 126 q 879 129 876 136 q 873 138 872 141 q 871 144 871 147 q 871 156 877 162 q 879 165 882 166 q 885 168 889 171 q 892 172 907 172 q 918 172 924 169 q 928 166 931 164 q 934 163 936 159 q 942 154 942 145 l 930 144 q 927 156 922 157 q 918 162 907 162 q 892 162 889 157 q 885 153 885 147 q 885 142 889 139 q 889 139 907 132 q 915 130 920 128 q 925 127 928 126 q 933 124 935 122 q 937 120 940 117 q 943 112 943 103 q 943 93 940 88 q 934 82 928 79 q 924 78 920 76 q 915 75 909 75 q 903 75 897 76 q 891 78 888 79 q 880 81 873 91 q 870 97 870 106 z m 961 78 l 961 171 l 1029 171 l 1029 162 l 975 162 l 975 132 l 1027 132 l 1027 120 l 975 120 l 975 87 l 1032 87 l 1032 78 z m 1074 78 l 1074 162 l 1044 162 l 1044 171 l 1117 171 l 1117 162 l 1086 162 l 1086 78 z m 112 190 l 112 283 l 150 283 l 163 283 q 166 283 175 280 q 177 279 179 276 q 181 273 183 270 q 186 267 186 259 q 186 246 177 237 q 172 229 150 229 l 127 229 l 127 190 z m 127 241 l 150 241 q 163 241 168 244 q 174 250 174 256 q 174 259 172 262 q 171 265 169 268 q 165 273 162 273 q 160 274 150 274 l 127 274 z m 201 190 l 201 283 l 268 283 l 268 274 l 214 274 l 214 244 l 265 244 l 265 234 l 214 234 l 214 202 l 271 202 l 271 190 z m 288 190 l 288 283 l 331 283 q 345 283 351 282 q 358 279 361 274 q 364 262 364 259 q 364 249 358 243 q 352 237 337 234 q 340 231 342 231 q 343 231 345 229 q 352 222 355 216 l 372 190 l 357 190 l 343 210 q 342 214 340 217 q 337 220 336 223 q 333 225 332 227 q 331 229 330 229 q 327 231 324 231 q 322 234 316 234 l 303 234 l 303 190 z m 303 243 l 327 243 q 339 243 342 244 q 346 249 349 250 q 351 253 351 259 q 351 265 346 270 q 342 274 331 274 l 303 274 z m 381 222 l 391 222 q 391 219 392 216 q 394 213 396 210 q 397 208 400 206 q 402 204 405 204 q 414 201 420 201 q 423 201 426 201 q 429 201 430 202 q 439 205 441 208 q 441 210 442 212 q 442 214 442 216 q 442 222 441 223 q 436 226 430 229 q 429 231 425 231 q 421 231 415 234 q 402 235 396 240 q 388 246 385 249 q 384 253 384 261 q 384 264 384 268 q 385 271 388 274 q 390 280 400 283 q 403 286 417 286 q 429 286 435 283 q 444 279 447 273 q 453 264 453 259 l 441 256 q 438 267 433 270 q 427 276 417 276 q 405 276 400 270 q 396 267 396 261 q 396 255 400 253 q 402 250 417 247 q 430 241 439 241 q 442 238 445 236 q 448 234 450 231 q 454 226 454 217 q 454 210 450 204 q 447 199 444 197 q 442 195 439 192 q 427 189 420 189 q 409 189 397 192 q 393 195 390 197 q 387 199 384 204 q 382 208 382 212 q 381 216 381 222 z m 468 237 q 468 258 480 273 q 493 286 513 286 q 519 286 524 284 q 529 283 537 280 q 543 277 546 272 q 549 268 552 262 q 558 252 558 237 q 558 223 552 211 q 546 201 537 195 q 525 189 513 189 q 499 189 489 196 q 475 204 474 214 q 468 222 468 237 z m 480 237 q 480 219 489 210 q 498 201 513 201 q 528 201 537 210 q 544 220 544 237 q 544 243 544 249 q 543 255 540 259 q 535 267 531 270 q 523 276 513 276 q 505 276 500 274 q 496 271 489 267 q 480 258 480 237 z m 573 190 l 573 283 l 586 283 l 636 211 l 636 283 l 648 283 l 648 190 l 636 190 l 585 264 l 585 190 z m 658 190 l 694 283 l 708 283 l 747 190 l 732 190 l 721 220 l 682 220 l 670 190 z m 684 229 l 717 229 l 708 255 q 705 261 704 266 q 702 271 700 274 q 700 270 698 266 q 697 261 696 256 z m 754 190 l 754 283 l 768 283 l 768 202 l 814 202 l 814 190 z m 922 283 l 934 283 l 934 231 q 934 214 931 208 q 928 199 921 195 q 913 189 898 189 q 883 189 877 195 q 873 196 870 200 q 867 204 864 208 q 862 211 862 231 l 862 283 l 873 283 l 873 231 q 873 216 876 211 q 879 205 883 204 q 886 202 889 202 q 892 201 897 201 q 909 201 916 205 q 922 211 922 231 z m 951 222 l 963 222 q 963 219 964 216 q 966 213 967 210 q 969 208 971 206 q 973 204 976 204 q 985 201 990 201 q 1000 201 1005 202 q 1008 204 1012 208 q 1014 210 1014 216 q 1014 222 1012 223 q 1009 225 1008 226 q 1008 228 1005 229 q 1002 231 998 231 q 993 231 987 234 q 981 235 976 236 q 970 237 969 240 q 961 243 960 249 q 955 253 955 261 q 955 267 960 274 q 961 280 970 283 q 976 286 988 286 q 993 286 998 286 q 1003 286 1006 283 q 1015 279 1020 273 q 1021 270 1022 266 q 1024 262 1024 259 l 1012 256 q 1009 261 1008 264 q 1008 268 1005 270 q 1000 276 988 276 q 975 276 973 270 q 967 268 967 261 q 967 256 970 253 q 973 250 988 247 q 1005 241 1009 241 q 1014 238 1017 236 q 1020 234 1021 231 q 1026 228 1026 217 q 1026 208 1021 204 q 1018 199 1016 197 q 1014 195 1009 192 q 1000 189 993 189 q 985 189 980 190 q 975 190 970 192 q 967 195 964 197 q 960 199 957 204 q 954 208 952 212 q 951 216 951 222 z m 1044 190 l 1044 283 l 1111 283 l 1111 274 l 1057 274 l 1057 244 l 1107 244 l 1107 234 l 1057 234 l 1057 202 l 1113 202 l 1113 190 z m 307 388 q 307 403 285 406 q 282 406 278 407 q 273 408 267 408 l 258 397 l 234 372 q 228 364 222 358 q 217 352 210 348 q 219 345 232 343 q 235 343 240 343 q 246 343 250 345 q 273 346 285 357 q 307 375 307 388 z m 324 433 q 324 439 316 439 q 313 439 291 432 l 274 417 q 271 414 268 408 l 294 412 q 300 412 310 420 q 324 429 324 433 z m 343 460 q 343 457 339 457 q 336 457 335 458 q 334 459 331 459 q 316 456 297 436 q 300 439 304 440 q 307 442 310 444 q 321 445 330 444 q 336 444 336 436 l 336 430 q 328 417 294 409 q 321 406 321 391 q 321 373 292 354 q 282 348 270 344 q 259 340 247 339 q 228 334 217 336 q 208 336 198 340 q 189 334 181 334 l 178 334 q 169 337 163 339 l 168 339 q 180 339 187 345 l 187 346 q 177 340 165 340 q 148 340 139 349 q 124 360 124 381 q 124 387 126 392 q 127 397 130 405 q 141 427 166 444 q 174 451 182 454 q 190 456 198 457 q 214 457 220 451 q 213 456 205 456 q 196 456 186 450 q 171 444 169 441 q 154 433 139 415 q 126 394 126 379 q 126 372 128 368 q 129 363 132 358 q 138 349 148 346 q 153 345 156 344 q 159 343 162 343 q 168 343 172 344 q 177 346 183 349 q 166 361 166 382 q 169 402 190 417 l 187 412 q 184 412 181 406 q 172 397 172 387 q 172 367 195 354 q 207 361 207 363 q 210 367 213 370 q 216 373 219 376 q 222 379 222 384 q 223 388 226 393 l 226 391 q 226 384 225 379 l 243 400 q 289 453 319 462 q 306 466 298 466 q 279 465 256 453 q 229 439 229 420 q 229 414 234 409 q 235 408 235 406 q 226 412 226 421 q 226 438 246 454 q 270 472 297 469 q 306 469 324 463 l 330 463 q 337 463 342 460 z m 346 363 q 345 357 334 346 q 324 340 316 340 q 309 340 309 349 q 309 357 318 369 l 316 369 q 315 367 310 367 q 310 367 309 369 q 313 369 324 379 l 325 379 l 330 385 q 334 390 334 393 l 339 393 q 343 393 343 391 q 343 385 334 375 l 324 364 q 315 351 315 346 q 315 342 321 342 q 328 342 339 357 q 340 358 342 359 q 343 360 346 363 z m 354 405 q 348 396 339 396 q 334 396 328 400 l 333 400 q 343 400 346 411 l 346 414 l 354 411 q 355 409 354 405 z m 406 433 q 406 426 360 370 l 358 370 q 345 354 345 345 q 345 340 349 340 q 358 340 369 355 q 370 357 372 358 q 373 358 375 361 q 375 354 363 345 q 355 339 346 339 q 337 340 337 348 q 336 355 367 394 l 385 417 l 394 426 q 399 432 402 441 q 406 438 406 433 z m 432 433 q 432 427 384 370 q 369 352 369 345 q 369 340 375 340 q 381 340 394 355 l 400 361 q 399 354 387 345 q 379 339 370 339 q 361 340 361 348 q 361 357 391 394 l 409 417 l 418 426 q 426 435 427 441 q 432 438 432 433 z m 403 333 q 379 328 366 315 q 355 301 355 298 q 355 292 361 292 q 363 291 372 294 q 375 297 378 300 q 382 304 387 309 z m 447 430 q 444 409 427 393 q 427 391 426 391 q 426 391 426 390 q 421 384 416 378 q 411 373 406 366 q 403 363 403 360 q 402 363 405 369 q 396 355 396 348 q 396 343 400 343 q 402 343 408 346 q 430 364 439 397 l 439 393 l 439 388 q 442 385 442 381 q 442 378 435 366 l 423 346 l 409 328 q 414 331 426 337 l 424 336 q 421 333 416 329 q 411 325 406 318 l 394 303 l 388 295 q 379 286 369 283 q 360 283 355 289 q 346 292 352 303 q 354 304 356 307 q 357 310 360 313 l 361 315 l 351 313 q 376 331 393 333 q 394 333 396 334 q 397 334 399 334 l 400 334 l 403 334 l 412 348 q 406 342 402 341 q 397 340 394 340 q 387 340 387 348 q 387 366 418 394 l 421 396 l 436 411 q 439 417 442 422 q 445 426 447 430 z m 618 453 q 609 456 603 456 q 588 456 575 452 q 562 448 549 441 q 543 438 539 434 q 535 430 531 427 q 549 426 579 408 q 612 441 636 450 z m 649 447 q 643 445 636 443 q 630 441 622 433 q 618 430 600 412 l 589 402 l 604 393 q 607 397 613 404 q 619 411 627 420 z m 663 472 q 663 471 661 469 q 661 459 657 448 l 658 447 l 657 447 q 649 429 637 417 l 613 388 q 616 387 618 387 q 619 387 622 385 q 622 382 621 382 q 618 382 616 383 q 615 384 612 385 q 594 366 592 349 q 589 343 589 340 q 589 334 595 334 q 607 334 621 354 l 627 363 q 642 384 646 400 l 646 405 q 646 403 648 402 l 648 400 q 645 379 633 361 l 613 322 q 613 328 618 342 q 600 328 591 328 q 577 328 580 346 q 580 355 586 366 q 592 378 601 391 l 586 399 l 573 385 q 568 379 560 370 q 552 361 540 346 q 516 322 498 322 l 493 322 q 489 322 480 327 q 480 327 483 327 q 496 324 510 337 q 498 331 481 331 q 465 331 454 339 l 456 339 q 441 349 441 370 q 441 385 447 393 q 456 417 481 433 q 490 441 498 443 q 507 445 516 447 q 531 447 537 441 l 535 441 q 532 444 522 444 q 507 444 484 430 q 468 418 456 405 q 442 384 442 367 q 442 343 465 336 q 474 333 478 333 q 510 334 547 375 l 576 405 q 553 418 525 418 l 523 418 q 520 412 520 405 q 522 405 528 396 q 517 402 517 411 q 517 415 519 418 q 504 415 499 412 q 472 402 475 381 q 475 367 484 357 l 487 354 q 469 372 469 385 q 469 405 487 418 q 502 429 525 429 q 546 453 577 457 q 585 459 601 459 q 609 459 624 456 l 642 451 l 651 451 l 652 450 q 658 460 661 475 l 663 475 z m 682 375 q 682 370 681 367 q 673 360 668 354 q 663 348 658 340 l 660 340 l 661 340 q 660 339 658 339 q 657 339 657 337 q 649 337 649 340 q 649 346 663 360 q 673 373 673 376 q 675 381 669 385 q 651 360 637 354 l 631 351 l 628 352 q 634 352 648 367 q 661 379 666 387 q 666 388 665 388 q 664 388 664 390 q 664 391 675 400 q 675 402 676 402 l 678 400 q 678 399 670 388 q 682 384 682 375 z m 726 379 q 726 388 720 385 q 714 385 711 382 q 706 379 697 367 q 688 355 688 348 q 687 345 691 345 q 700 348 706 355 q 712 367 712 372 q 712 375 711 375 q 717 375 717 367 l 715 364 q 718 367 720 371 q 723 375 726 378 z m 754 393 q 748 393 741 385 q 735 378 729 369 q 723 360 715 348 q 708 333 702 324 q 696 316 694 313 q 675 289 664 289 q 655 288 651 295 q 651 303 651 303 q 651 310 657 316 q 654 315 649 315 q 664 330 682 334 q 684 334 684 335 q 685 336 688 336 l 690 334 q 661 325 655 307 q 654 304 654 300 q 654 298 655 297 q 655 295 657 295 q 669 294 685 318 l 696 333 l 702 342 q 697 340 694 340 q 682 340 682 352 q 682 366 702 384 q 711 393 718 393 q 729 393 729 381 l 730 381 l 738 390 q 745 397 751 397 q 756 397 759 393 z m 781 382 q 781 373 765 364 q 763 363 762 363 l 760 363 q 756 363 751 370 q 754 367 759 367 q 769 373 772 384 l 772 387 l 772 388 l 772 390 q 766 390 753 376 l 753 375 q 748 369 748 365 q 747 361 747 358 q 745 360 745 367 q 742 361 741 357 q 738 351 738 346 q 738 345 739 343 q 739 340 745 340 q 760 346 771 355 q 774 358 778 361 q 775 357 772 353 q 769 349 762 345 q 750 337 741 340 q 741 339 739 340 q 730 340 730 349 q 730 364 747 379 q 756 393 771 393 q 774 393 775 391 q 781 387 781 382 z m 841 433 q 841 427 793 370 q 780 354 780 345 q 780 340 784 340 q 793 340 804 355 q 805 357 806 358 q 808 358 810 361 q 810 354 798 345 q 790 339 780 339 q 772 342 772 348 q 772 360 801 394 l 819 417 l 828 426 q 837 435 837 441 q 841 438 841 433 z m 922 387 q 897 396 895 415 q 888 411 880 407 q 873 403 868 399 q 840 372 840 349 q 840 340 844 339 l 847 339 l 850 339 q 873 339 892 354 q 898 360 906 368 q 915 375 922 387 z m 952 430 l 940 430 q 922 429 897 417 q 900 396 925 391 l 936 405 z m 979 457 q 960 457 944 454 q 928 451 916 444 q 924 451 935 456 q 946 460 960 463 q 930 465 907 445 q 903 442 897 430 q 907 433 917 434 q 927 436 939 435 q 942 435 946 435 q 951 435 958 433 q 961 438 966 444 q 972 450 979 457 z m 1074 459 q 1071 454 1067 450 q 1063 447 1056 444 q 1044 436 1033 436 l 1030 436 q 1029 436 1027 438 q 1029 439 1029 440 q 1029 442 1032 445 q 1018 456 994 456 l 988 448 l 973 430 q 985 429 996 428 q 1006 426 1015 426 q 1036 426 1044 430 q 1038 424 1021 421 q 1008 418 994 423 l 970 427 q 964 420 959 414 q 954 409 951 403 l 940 388 l 948 388 q 985 391 991 406 l 993 406 q 988 397 973 390 q 966 387 959 386 q 952 384 946 384 l 939 384 q 928 372 922 363 q 915 354 909 348 q 889 327 873 327 q 865 328 856 328 q 871 328 888 343 q 867 334 855 334 l 846 336 l 858 324 q 846 330 838 337 q 837 337 831 340 q 813 354 811 375 q 811 382 811 388 q 811 394 814 400 q 819 414 826 424 q 834 433 844 444 q 870 466 889 466 q 900 466 907 460 l 906 459 q 901 463 892 463 q 873 460 852 444 q 834 429 825 414 q 813 393 813 375 q 816 348 837 340 q 834 349 835 358 q 838 381 852 397 q 868 418 897 430 q 900 433 900 439 l 913 453 q 933 469 964 469 q 972 469 977 469 q 982 469 990 468 l 991 468 q 1002 475 1010 479 q 1018 483 1027 481 q 1033 481 1036 478 q 1020 475 1020 475 q 1017 474 1013 472 q 1009 471 1005 468 q 1011 466 1017 466 q 1023 465 1030 462 q 1045 457 1054 457 q 1068 457 1074 459 z m 982 354 q 978 358 978 364 q 978 367 978 370 q 979 372 979 375 q 964 355 966 346 q 966 343 969 343 q 972 343 982 354 z m 1002 385 q 1002 388 999 388 q 996 388 993 387 q 991 385 988 379 q 981 364 981 360 q 981 355 982 354 l 987 358 l 987 360 l 987 358 q 988 360 988 360 q 988 361 990 363 q 993 372 993 375 q 993 376 991 378 q 994 372 994 370 q 999 375 1002 385 z m 1008 381 q 1008 373 997 358 q 984 345 978 340 l 966 340 q 957 340 957 348 q 957 360 973 379 q 984 393 997 393 q 1008 393 1008 381 z m 1057 384 q 1059 381 1051 367 q 1042 355 1039 352 l 1021 336 q 1011 325 1008 313 q 1009 331 1021 345 q 1027 351 1030 356 q 1033 360 1036 366 q 1038 367 1039 372 l 1039 367 q 1039 367 1038 364 q 1041 367 1047 379 q 1047 381 1048 382 q 1048 382 1048 384 q 1048 391 1041 388 q 1041 388 1029 379 q 1026 372 1020 366 q 1015 361 1009 354 q 1002 345 1000 340 q 999 339 993 327 q 993 330 992 334 q 991 337 993 340 q 996 351 1006 361 l 1015 372 q 1023 382 1023 388 q 1023 390 1022 392 q 1021 393 1021 394 q 1030 391 1030 385 q 1039 393 1050 393 q 1056 390 1057 384 z m 1116 405 l 1093 405 q 1092 402 1084 393 q 1075 384 1063 367 q 1060 367 1057 360 q 1051 352 1051 345 q 1051 340 1054 340 q 1062 340 1075 355 l 1077 357 q 1078 358 1078 359 q 1078 360 1080 361 q 1080 354 1069 345 q 1062 339 1051 339 q 1044 342 1042 348 q 1042 351 1048 363 l 1066 384 l 1083 405 l 1057 408 q 1051 409 1042 409 l 1029 409 q 1011 409 993 402 l 991 402 q 1006 417 1038 417 q 1039 417 1050 414 q 1062 412 1083 409 l 1087 408 q 1092 415 1096 420 q 1099 426 1102 430 q 1105 429 1105 423 q 1105 418 1102 415 l 1096 406 l 1108 405 l 1117 405 l 1119 405 l 1123 405 z m 1126 385 q 1126 381 1116 376 l 1114 375 q 1119 379 1119 387 l 1119 393 l 1114 393 q 1107 393 1105 387 q 1105 384 1110 361 q 1111 340 1086 340 q 1072 340 1069 349 q 1068 351 1068 354 q 1068 366 1086 369 l 1092 367 l 1089 367 q 1083 367 1080 364 q 1075 357 1075 354 q 1075 342 1087 342 q 1099 342 1099 358 q 1099 366 1098 370 q 1096 375 1096 381 q 1096 396 1110 396 q 1113 396 1114 395 q 1116 394 1119 394 q 1125 391 1125 390 q 1126 388 1126 385 z"},"J":{"x_min":0,"x_max":695,"ha":695,"o":"m 630 276 q 641 307 649 342 q 657 376 658 410 q 660 444 654 476 q 648 507 632 530 q 615 554 587 568 q 559 582 516 582 q 458 582 396 561 q 335 540 278 506 q 221 472 172 428 q 123 385 90 340 q 75 319 62 294 q 49 269 49 243 q 49 213 68 206 q 86 200 112 200 q 128 200 144 204 q 159 208 173 207 q 182 207 190 204 q 198 200 202 196 q 205 191 202 186 q 198 182 184 180 q 168 177 150 176 q 131 175 127 175 q 109 175 88 180 q 68 185 51 194 q 34 204 23 220 q 12 235 13 256 q 14 297 38 341 q 61 385 99 428 q 137 470 186 508 q 236 547 290 576 q 343 606 397 624 q 451 641 498 642 q 546 643 586 626 q 625 610 653 581 q 681 552 696 514 q 711 476 711 434 q 711 381 697 318 q 683 256 657 192 q 631 128 594 68 q 556 9 510 -37 q 463 -83 408 -110 q 353 -137 292 -136 q 287 -111 274 -91 q 260 -71 245 -54 q 230 -37 218 -20 q 205 -3 202 17 q 196 54 213 85 q 230 116 258 128 q 287 140 322 128 q 357 117 387 71 q 431 131 478 144 q 525 157 574 135 q 591 171 605 207 q 619 243 630 276 z m 371 0 q 368 44 347 66 q 326 87 302 90 q 279 93 260 78 q 242 63 244 35 q 245 23 255 9 q 265 -5 278 -20 q 290 -36 301 -54 q 312 -71 315 -92 q 359 -87 396 -68 q 433 -50 464 -22 q 495 6 520 41 q 544 76 564 115 q 541 122 516 122 q 492 122 467 110 q 442 98 418 72 q 393 45 371 0 z m 632 98 q 644 88 654 78 q 665 68 675 57 q 678 55 674 52 q 670 48 667 50 q 658 58 647 67 q 636 76 622 85 z"},"V":{"x_min":0,"x_max":691,"ha":691,"o":"m 330 20 q 328 6 330 -10 q 331 -27 337 -41 q 343 -55 354 -65 q 364 -75 379 -76 q 411 -79 448 -54 q 485 -28 522 14 q 560 57 596 112 q 632 166 664 220 q 696 275 722 324 q 747 374 763 406 q 771 424 778 448 q 785 473 787 495 q 787 499 793 495 q 799 491 807 483 q 815 475 822 466 q 829 456 831 450 q 830 421 810 376 q 791 332 760 280 q 730 229 692 174 q 653 120 614 72 q 575 24 540 -14 q 504 -51 479 -68 q 453 -86 425 -96 q 397 -107 381 -105 q 338 -102 320 -70 q 301 -37 299 12 q 297 42 302 70 q 307 99 316 128 q 263 120 208 126 q 154 131 110 149 q 66 167 38 199 q 11 231 13 276 q 14 311 31 334 q 48 357 71 372 q 79 377 94 380 q 108 384 124 384 q 141 384 157 379 q 173 374 184 361 q 191 353 194 350 q 197 348 198 350 q 200 352 200 358 q 201 363 203 372 q 209 405 216 428 q 223 450 234 475 q 247 503 269 526 q 291 549 318 564 q 345 579 374 585 q 404 591 431 584 q 450 577 463 564 q 476 550 481 528 q 486 506 482 476 q 479 445 464 405 q 441 344 421 300 q 401 256 384 215 q 367 174 354 129 q 340 84 330 20 z m 344 214 q 355 245 372 293 q 389 341 418 413 q 433 453 432 478 q 430 502 417 514 q 404 525 383 524 q 362 523 338 513 q 317 505 298 485 q 279 465 264 440 q 249 415 238 388 q 228 362 225 341 q 221 313 214 308 q 207 304 196 313 q 167 331 142 330 q 117 329 100 316 q 82 304 74 284 q 66 264 70 245 q 76 211 104 190 q 133 169 170 158 q 208 147 249 146 q 290 144 322 149 q 327 164 332 180 q 338 197 344 214 z m 386 165 q 397 168 403 172 q 409 176 414 178 q 430 188 436 183 q 443 178 430 170 q 418 162 408 156 q 397 150 382 145 z"},"7":{"x_min":0,"x_max":1219,"ha":1219,"o":"m 876 781 l 739 657 l 775 471 l 615 565 l 450 471 l 489 652 l 351 781 l 537 801 l 615 972 l 690 802 z m 682 576 l 639 834 l 586 834 l 541 576 l 564 562 l 583 576 l 592 634 l 631 634 l 642 576 l 663 562 z m 628 672 l 598 672 l 612 774 z m 610 21 l 631 21 l 624 39 q 622 42 622 44 q 622 46 619 49 q 619 45 616 39 z m 352 -5 l 352 3 l 363 3 l 363 -5 z m 844 -5 l 844 58 l 852 58 l 852 1 l 883 1 l 883 -5 z m 787 -5 l 787 58 l 832 58 l 832 49 l 795 49 l 795 30 l 829 30 l 829 22 l 795 22 l 795 1 l 832 1 l 832 -5 z m 565 -5 l 565 21 l 541 58 l 552 58 l 564 39 q 567 30 570 28 q 571 30 572 33 q 574 36 577 39 l 589 58 l 598 58 l 573 21 l 573 -5 z m 376 -5 l 376 58 l 400 58 q 403 58 406 56 q 408 55 409 55 q 415 54 417 49 q 420 46 420 40 q 420 36 417 34 q 415 28 411 28 q 415 27 420 22 q 423 16 423 13 q 423 10 422 8 q 421 7 421 6 q 420 0 415 0 q 414 -3 412 -3 q 411 -3 409 -5 l 400 -5 z m 205 -5 l 187 58 l 196 58 l 205 16 q 207 12 207 9 q 207 6 208 3 q 210 10 210 15 l 222 58 l 232 58 l 241 25 q 243 18 244 14 q 246 9 246 3 q 247 6 247 9 q 247 12 249 16 l 259 58 l 267 58 l 249 -5 l 241 -5 l 229 42 q 228 46 228 49 q 226 46 226 42 l 213 -5 z m 123 -5 l 105 58 l 115 58 l 123 16 q 123 9 127 3 q 129 10 129 15 l 141 58 l 150 58 l 160 25 q 162 18 162 14 q 163 9 163 3 q 166 6 166 9 q 166 12 168 16 l 177 58 l 186 58 l 168 -5 l 160 -5 l 148 42 q 147 46 147 49 q 144 46 144 42 l 130 -5 z m 384 30 l 397 30 q 403 30 405 33 q 409 33 409 34 q 411 36 411 40 q 411 45 409 46 l 408 46 q 406 46 406 47 q 406 48 405 48 q 403 49 396 49 l 384 49 z m 285 -5 l 268 58 l 277 58 l 286 16 q 288 12 288 9 q 288 6 291 3 q 291 9 292 11 q 292 13 292 15 l 304 58 l 313 58 l 324 25 q 325 18 326 14 q 327 9 327 3 q 330 6 330 9 q 330 12 331 16 l 342 58 l 349 58 l 331 -5 l 324 -5 l 312 42 q 310 46 310 49 q 307 46 307 42 l 294 -5 z m 664 28 l 682 28 q 685 28 688 29 q 690 30 693 30 q 696 30 696 34 q 697 36 697 40 q 697 45 694 48 q 693 49 684 49 l 664 49 z m 384 1 l 400 1 q 403 1 405 3 l 409 3 q 411 6 414 7 l 414 13 q 414 16 411 19 q 411 22 408 22 l 397 22 l 384 22 z m 435 -5 l 435 58 l 442 58 l 442 -5 z m 985 25 q 985 12 990 7 q 996 1 1006 1 q 1017 1 1021 7 q 1027 12 1027 27 q 1027 34 1026 39 q 1023 46 1018 48 q 1014 49 1006 49 q 997 49 993 45 q 985 39 985 25 z m 976 25 q 976 42 985 49 q 991 58 1006 58 q 1011 58 1014 56 q 1018 55 1021 54 q 1026 52 1028 49 q 1030 46 1033 42 q 1035 39 1035 27 q 1035 13 1032 9 q 1027 1 1021 -3 q 1015 -6 1006 -6 q 1002 -6 998 -6 q 994 -5 990 -3 q 987 0 984 3 q 982 6 981 9 q 979 13 978 17 q 976 21 976 25 z m 592 -5 l 616 58 l 625 58 l 651 -5 l 642 -5 l 634 13 l 609 13 l 600 -5 z m 459 -5 l 459 58 l 466 58 l 466 1 l 495 1 l 495 -5 z m 892 -5 l 892 3 l 903 3 l 903 -5 z m 748 19 l 748 27 l 774 27 l 774 3 q 768 -3 762 -5 q 759 -5 755 -6 q 751 -6 748 -6 q 739 -6 733 -3 q 729 0 726 2 q 723 4 721 9 q 720 13 718 17 q 717 21 717 25 q 717 31 718 34 q 720 37 721 42 q 724 51 732 54 q 735 55 740 56 q 744 58 748 58 q 756 58 760 55 q 766 54 768 49 q 772 45 774 40 l 766 39 q 766 40 762 45 q 762 48 756 49 l 748 49 l 739 49 q 735 48 732 45 q 732 43 727 39 q 727 36 726 33 q 726 30 726 27 q 726 16 729 13 q 735 4 736 3 q 741 1 748 1 q 754 1 759 3 q 762 6 764 6 q 765 6 766 7 l 766 19 z m 657 -5 l 657 58 l 684 58 q 688 58 691 56 q 694 55 697 55 q 702 54 703 49 q 706 46 706 40 q 706 33 702 28 q 700 27 696 26 q 693 25 688 22 q 691 22 692 22 q 693 21 694 21 q 696 18 696 16 q 697 13 700 10 l 712 -5 l 702 -5 l 693 7 q 690 10 689 12 q 688 15 687 16 q 687 19 686 19 q 684 19 682 21 l 681 21 q 679 21 679 22 q 679 22 678 22 l 675 22 l 664 22 l 664 -5 z m 505 -5 l 505 58 l 514 58 l 514 1 l 544 1 l 544 -5 z m 961 16 l 969 15 q 966 3 960 0 q 954 -6 943 -6 q 934 -6 928 -3 q 924 0 922 3 q 921 6 918 9 q 915 21 915 27 q 915 33 918 45 q 925 52 928 54 q 933 55 936 56 q 939 58 943 58 q 948 58 952 56 q 957 55 960 54 q 963 51 965 48 q 967 45 969 40 l 960 39 q 960 45 954 48 q 951 49 943 49 q 934 49 931 48 q 928 46 928 44 q 927 42 924 39 q 924 36 923 33 q 922 30 922 27 q 922 18 927 13 q 927 10 928 8 q 930 6 931 3 q 936 1 943 1 q 951 1 955 6 q 960 10 961 16 z m 1047 -5 l 1047 58 l 1059 58 l 1074 13 q 1074 10 1076 8 q 1077 6 1077 3 q 1077 4 1080 13 l 1093 58 l 1105 58 l 1105 -5 l 1098 -5 l 1098 46 l 1080 -5 l 1072 -5 l 1054 48 l 1054 -5 z m 610 21 l 631 21 l 624 39 q 622 42 622 44 q 622 46 619 49 q 619 45 616 39 z m 352 -5 l 352 3 l 363 3 l 363 -5 z m 844 -5 l 844 58 l 852 58 l 852 1 l 883 1 l 883 -5 z m 787 -5 l 787 58 l 832 58 l 832 49 l 795 49 l 795 30 l 829 30 l 829 22 l 795 22 l 795 1 l 832 1 l 832 -5 z m 565 -5 l 565 21 l 541 58 l 552 58 l 564 39 q 567 30 570 28 q 571 30 572 33 q 574 36 577 39 l 589 58 l 598 58 l 573 21 l 573 -5 z m 376 -5 l 376 58 l 400 58 q 403 58 406 56 q 408 55 409 55 q 415 54 417 49 q 420 46 420 40 q 420 36 417 34 q 415 28 411 28 q 415 27 420 22 q 423 16 423 13 q 423 10 422 8 q 421 7 421 6 q 420 0 415 0 q 414 -3 412 -3 q 411 -3 409 -5 l 400 -5 z m 205 -5 l 187 58 l 196 58 l 205 16 q 207 12 207 9 q 207 6 208 3 q 210 10 210 15 l 222 58 l 232 58 l 241 25 q 243 18 244 14 q 246 9 246 3 q 247 6 247 9 q 247 12 249 16 l 259 58 l 267 58 l 249 -5 l 241 -5 l 229 42 q 228 46 228 49 q 226 46 226 42 l 213 -5 z m 123 -5 l 105 58 l 115 58 l 123 16 q 123 9 127 3 q 129 10 129 15 l 141 58 l 150 58 l 160 25 q 162 18 162 14 q 163 9 163 3 q 166 6 166 9 q 166 12 168 16 l 177 58 l 186 58 l 168 -5 l 160 -5 l 148 42 q 147 46 147 49 q 144 46 144 42 l 130 -5 z m 384 30 l 397 30 q 403 30 405 33 q 409 33 409 34 q 411 36 411 40 q 411 45 409 46 l 408 46 q 406 46 406 47 q 406 48 405 48 q 403 49 396 49 l 384 49 z m 285 -5 l 268 58 l 277 58 l 286 16 q 288 12 288 9 q 288 6 291 3 q 291 9 292 11 q 292 13 292 15 l 304 58 l 313 58 l 324 25 q 325 18 326 14 q 327 9 327 3 q 330 6 330 9 q 330 12 331 16 l 342 58 l 349 58 l 331 -5 l 324 -5 l 312 42 q 310 46 310 49 q 307 46 307 42 l 294 -5 z m 664 28 l 682 28 q 685 28 688 29 q 690 30 693 30 q 696 30 696 34 q 697 36 697 40 q 697 45 694 48 q 693 49 684 49 l 664 49 z m 384 1 l 400 1 q 403 1 405 3 l 409 3 q 411 6 414 7 l 414 13 q 414 16 411 19 q 411 22 408 22 l 397 22 l 384 22 z m 435 -5 l 435 58 l 442 58 l 442 -5 z m 985 25 q 985 12 990 7 q 996 1 1006 1 q 1017 1 1021 7 q 1027 12 1027 27 q 1027 34 1026 39 q 1023 46 1018 48 q 1014 49 1006 49 q 997 49 993 45 q 985 39 985 25 z m 976 25 q 976 42 985 49 q 991 58 1006 58 q 1011 58 1014 56 q 1018 55 1021 54 q 1026 52 1028 49 q 1030 46 1033 42 q 1035 39 1035 27 q 1035 13 1032 9 q 1027 1 1021 -3 q 1015 -6 1006 -6 q 1002 -6 998 -6 q 994 -5 990 -3 q 987 0 984 3 q 982 6 981 9 q 979 13 978 17 q 976 21 976 25 z m 592 -5 l 616 58 l 625 58 l 651 -5 l 642 -5 l 634 13 l 609 13 l 600 -5 z m 459 -5 l 459 58 l 466 58 l 466 1 l 495 1 l 495 -5 z m 892 -5 l 892 3 l 903 3 l 903 -5 z m 748 19 l 748 27 l 774 27 l 774 3 q 768 -3 762 -5 q 759 -5 755 -6 q 751 -6 748 -6 q 739 -6 733 -3 q 729 0 726 2 q 723 4 721 9 q 720 13 718 17 q 717 21 717 25 q 717 31 718 34 q 720 37 721 42 q 724 51 732 54 q 735 55 740 56 q 744 58 748 58 q 756 58 760 55 q 766 54 768 49 q 772 45 774 40 l 766 39 q 766 40 762 45 q 762 48 756 49 l 748 49 l 739 49 q 735 48 732 45 q 732 43 727 39 q 727 36 726 33 q 726 30 726 27 q 726 16 729 13 q 735 4 736 3 q 741 1 748 1 q 754 1 759 3 q 762 6 764 6 q 765 6 766 7 l 766 19 z m 657 -5 l 657 58 l 684 58 q 688 58 691 56 q 694 55 697 55 q 702 54 703 49 q 706 46 706 40 q 706 33 702 28 q 700 27 696 26 q 693 25 688 22 q 691 22 692 22 q 693 21 694 21 q 696 18 696 16 q 697 13 700 10 l 712 -5 l 702 -5 l 693 7 q 690 10 689 12 q 688 15 687 16 q 687 19 686 19 q 684 19 682 21 l 681 21 q 679 21 679 22 q 679 22 678 22 l 675 22 l 664 22 l 664 -5 z m 505 -5 l 505 58 l 514 58 l 514 1 l 544 1 l 544 -5 z m 961 16 l 969 15 q 966 3 960 0 q 954 -6 943 -6 q 934 -6 928 -3 q 924 0 922 3 q 921 6 918 9 q 915 21 915 27 q 915 33 918 45 q 925 52 928 54 q 933 55 936 56 q 939 58 943 58 q 948 58 952 56 q 957 55 960 54 q 963 51 965 48 q 967 45 969 40 l 960 39 q 960 45 954 48 q 951 49 943 49 q 934 49 931 48 q 928 46 928 44 q 927 42 924 39 q 924 36 923 33 q 922 30 922 27 q 922 18 927 13 q 927 10 928 8 q 930 6 931 3 q 936 1 943 1 q 951 1 955 6 q 960 10 961 16 z m 1047 -5 l 1047 58 l 1059 58 l 1074 13 q 1074 10 1076 8 q 1077 6 1077 3 q 1077 4 1080 13 l 1093 58 l 1105 58 l 1105 -5 l 1098 -5 l 1098 46 l 1080 -5 l 1072 -5 l 1054 48 l 1054 -5 z m 610 21 l 631 21 l 624 39 q 622 42 622 44 q 622 46 619 49 q 619 45 616 39 z m 352 -5 l 352 3 l 363 3 l 363 -5 z m 844 -5 l 844 58 l 852 58 l 852 1 l 883 1 l 883 -5 z m 787 -5 l 787 58 l 832 58 l 832 49 l 795 49 l 795 30 l 829 30 l 829 22 l 795 22 l 795 1 l 832 1 l 832 -5 z m 565 -5 l 565 21 l 541 58 l 552 58 l 564 39 q 567 30 570 28 q 571 30 572 33 q 574 36 577 39 l 589 58 l 598 58 l 573 21 l 573 -5 z m 376 -5 l 376 58 l 400 58 q 403 58 406 56 q 408 55 409 55 q 415 54 417 49 q 420 46 420 40 q 420 36 417 34 q 415 28 411 28 q 415 27 420 22 q 423 16 423 13 q 423 10 422 8 q 421 7 421 6 q 420 0 415 0 q 414 -3 412 -3 q 411 -3 409 -5 l 400 -5 z m 205 -5 l 187 58 l 196 58 l 205 16 q 207 12 207 9 q 207 6 208 3 q 210 10 210 15 l 222 58 l 232 58 l 241 25 q 243 18 244 14 q 246 9 246 3 q 247 6 247 9 q 247 12 249 16 l 259 58 l 267 58 l 249 -5 l 241 -5 l 229 42 q 228 46 228 49 q 226 46 226 42 l 213 -5 z m 123 -5 l 105 58 l 115 58 l 123 16 q 123 9 127 3 q 129 10 129 15 l 141 58 l 150 58 l 160 25 q 162 18 162 14 q 163 9 163 3 q 166 6 166 9 q 166 12 168 16 l 177 58 l 186 58 l 168 -5 l 160 -5 l 148 42 q 147 46 147 49 q 144 46 144 42 l 130 -5 z m 384 30 l 397 30 q 403 30 405 33 q 409 33 409 34 q 411 36 411 40 q 411 45 409 46 l 408 46 q 406 46 406 47 q 406 48 405 48 q 403 49 396 49 l 384 49 z m 285 -5 l 268 58 l 277 58 l 286 16 q 288 12 288 9 q 288 6 291 3 q 291 9 292 11 q 292 13 292 15 l 304 58 l 313 58 l 324 25 q 325 18 326 14 q 327 9 327 3 q 330 6 330 9 q 330 12 331 16 l 342 58 l 349 58 l 331 -5 l 324 -5 l 312 42 q 310 46 310 49 q 307 46 307 42 l 294 -5 z m 664 28 l 682 28 q 685 28 688 29 q 690 30 693 30 q 696 30 696 34 q 697 36 697 40 q 697 45 694 48 q 693 49 684 49 l 664 49 z m 384 1 l 400 1 q 403 1 405 3 l 409 3 q 411 6 414 7 l 414 13 q 414 16 411 19 q 411 22 408 22 l 397 22 l 384 22 z m 435 -5 l 435 58 l 442 58 l 442 -5 z m 985 25 q 985 12 990 7 q 996 1 1006 1 q 1017 1 1021 7 q 1027 12 1027 27 q 1027 34 1026 39 q 1023 46 1018 48 q 1014 49 1006 49 q 997 49 993 45 q 985 39 985 25 z m 976 25 q 976 42 985 49 q 991 58 1006 58 q 1011 58 1014 56 q 1018 55 1021 54 q 1026 52 1028 49 q 1030 46 1033 42 q 1035 39 1035 27 q 1035 13 1032 9 q 1027 1 1021 -3 q 1015 -6 1006 -6 q 1002 -6 998 -6 q 994 -5 990 -3 q 987 0 984 3 q 982 6 981 9 q 979 13 978 17 q 976 21 976 25 z m 592 -5 l 616 58 l 625 58 l 651 -5 l 642 -5 l 634 13 l 609 13 l 600 -5 z m 459 -5 l 459 58 l 466 58 l 466 1 l 495 1 l 495 -5 z m 892 -5 l 892 3 l 903 3 l 903 -5 z m 748 19 l 748 27 l 774 27 l 774 3 q 768 -3 762 -5 q 759 -5 755 -6 q 751 -6 748 -6 q 739 -6 733 -3 q 729 0 726 2 q 723 4 721 9 q 720 13 718 17 q 717 21 717 25 q 717 31 718 34 q 720 37 721 42 q 724 51 732 54 q 735 55 740 56 q 744 58 748 58 q 756 58 760 55 q 766 54 768 49 q 772 45 774 40 l 766 39 q 766 40 762 45 q 762 48 756 49 l 748 49 l 739 49 q 735 48 732 45 q 732 43 727 39 q 727 36 726 33 q 726 30 726 27 q 726 16 729 13 q 735 4 736 3 q 741 1 748 1 q 754 1 759 3 q 762 6 764 6 q 765 6 766 7 l 766 19 z m 657 -5 l 657 58 l 684 58 q 688 58 691 56 q 694 55 697 55 q 702 54 703 49 q 706 46 706 40 q 706 33 702 28 q 700 27 696 26 q 693 25 688 22 q 691 22 692 22 q 693 21 694 21 q 696 18 696 16 q 697 13 700 10 l 712 -5 l 702 -5 l 693 7 q 690 10 689 12 q 688 15 687 16 q 687 19 686 19 q 684 19 682 21 l 681 21 q 679 21 679 22 q 679 22 678 22 l 675 22 l 664 22 l 664 -5 z m 505 -5 l 505 58 l 514 58 l 514 1 l 544 1 l 544 -5 z m 961 16 l 969 15 q 966 3 960 0 q 954 -6 943 -6 q 934 -6 928 -3 q 924 0 922 3 q 921 6 918 9 q 915 21 915 27 q 915 33 918 45 q 925 52 928 54 q 933 55 936 56 q 939 58 943 58 q 948 58 952 56 q 957 55 960 54 q 963 51 965 48 q 967 45 969 40 l 960 39 q 960 45 954 48 q 951 49 943 49 q 934 49 931 48 q 928 46 928 44 q 927 42 924 39 q 924 36 923 33 q 922 30 922 27 q 922 18 927 13 q 927 10 928 8 q 930 6 931 3 q 936 1 943 1 q 951 1 955 6 q 960 10 961 16 z m 1047 -5 l 1047 58 l 1059 58 l 1074 13 q 1074 10 1076 8 q 1077 6 1077 3 q 1077 4 1080 13 l 1093 58 l 1105 58 l 1105 -5 l 1098 -5 l 1098 46 l 1080 -5 l 1072 -5 l 1054 48 l 1054 -5 z m 175 111 l 187 106 q 184 93 174 84 q 162 75 148 75 q 135 75 123 81 q 111 90 109 99 q 103 109 103 124 q 103 141 109 151 q 114 162 124 166 q 135 172 148 172 q 165 172 171 165 q 181 162 186 145 l 174 144 q 168 156 163 157 q 157 163 148 163 q 136 163 130 157 q 121 151 118 144 q 117 138 117 124 q 117 111 121 105 q 124 94 130 91 q 138 85 147 85 q 159 85 166 93 q 169 96 172 100 q 174 105 175 111 z m 199 123 q 199 135 202 144 q 205 153 213 159 q 219 166 227 169 q 235 172 244 172 q 258 172 268 166 q 277 162 285 150 q 291 135 291 124 q 291 117 290 111 q 288 105 285 99 q 277 87 267 81 q 255 75 244 75 q 237 75 232 76 q 226 78 220 81 q 210 87 205 99 q 199 109 199 123 z m 213 123 q 213 105 220 94 q 231 85 244 85 q 259 85 267 97 q 277 108 277 124 q 277 130 276 134 q 274 139 273 144 q 270 154 261 157 q 256 163 244 163 q 232 163 222 153 q 213 145 213 123 z m 306 78 l 306 171 l 324 171 l 346 105 q 351 96 351 91 q 354 94 357 106 l 381 171 l 396 171 l 396 78 l 384 78 l 384 156 l 357 78 l 345 78 l 318 157 l 318 78 z m 417 78 l 417 171 l 453 171 l 466 171 q 474 171 478 166 q 480 165 486 157 q 487 154 488 151 q 489 148 489 144 q 489 135 481 124 q 474 117 453 117 l 429 117 l 429 78 z m 429 126 l 454 126 q 468 126 469 132 q 475 133 475 144 q 475 151 474 153 q 468 159 463 159 q 462 162 453 162 l 429 162 z m 505 78 l 505 171 l 517 171 l 517 87 l 564 87 l 564 78 z m 579 78 l 579 171 l 648 171 l 648 162 l 591 162 l 591 132 l 643 132 l 643 120 l 591 120 l 591 87 l 649 87 l 649 78 z m 690 78 l 690 162 l 658 162 l 658 171 l 735 171 l 735 162 l 703 162 l 703 78 z m 748 78 l 748 171 l 817 171 l 817 162 l 760 162 l 760 132 l 813 132 l 813 120 l 760 120 l 760 87 l 819 87 l 819 78 z m 870 106 l 882 108 q 882 100 885 97 q 888 91 895 88 q 898 87 909 87 q 912 87 916 87 q 919 87 922 88 q 927 88 930 94 q 931 97 931 103 q 931 108 930 111 q 928 112 926 113 q 924 114 921 117 q 919 117 904 120 q 897 123 892 124 q 888 124 885 126 q 879 129 876 136 q 873 138 872 141 q 871 144 871 147 q 871 156 877 162 q 879 165 882 166 q 885 168 889 171 q 892 172 907 172 q 918 172 924 169 q 928 166 931 164 q 934 163 936 159 q 942 154 942 145 l 930 144 q 927 156 922 157 q 918 162 907 162 q 892 162 889 157 q 885 153 885 147 q 885 142 889 139 q 889 139 907 132 q 915 130 920 128 q 925 127 928 126 q 933 124 935 122 q 937 120 940 117 q 943 112 943 103 q 943 93 940 88 q 934 82 928 79 q 924 78 920 76 q 915 75 909 75 q 903 75 897 76 q 891 78 888 79 q 880 81 873 91 q 870 97 870 106 z m 961 78 l 961 171 l 1029 171 l 1029 162 l 975 162 l 975 132 l 1027 132 l 1027 120 l 975 120 l 975 87 l 1032 87 l 1032 78 z m 1074 78 l 1074 162 l 1044 162 l 1044 171 l 1117 171 l 1117 162 l 1086 162 l 1086 78 z m 112 190 l 112 283 l 150 283 l 163 283 q 166 283 175 280 q 177 279 179 276 q 181 273 183 270 q 186 267 186 259 q 186 246 177 237 q 172 229 150 229 l 127 229 l 127 190 z m 127 241 l 150 241 q 163 241 168 244 q 174 250 174 256 q 174 259 172 262 q 171 265 169 268 q 165 273 162 273 q 160 274 150 274 l 127 274 z m 201 190 l 201 283 l 268 283 l 268 274 l 214 274 l 214 244 l 265 244 l 265 234 l 214 234 l 214 202 l 271 202 l 271 190 z m 288 190 l 288 283 l 331 283 q 345 283 351 282 q 358 279 361 274 q 364 262 364 259 q 364 249 358 243 q 352 237 337 234 q 340 231 342 231 q 343 231 345 229 q 352 222 355 216 l 372 190 l 357 190 l 343 210 q 342 214 340 217 q 337 220 336 223 q 333 225 332 227 q 331 229 330 229 q 327 231 324 231 q 322 234 316 234 l 303 234 l 303 190 z m 303 243 l 327 243 q 339 243 342 244 q 346 249 349 250 q 351 253 351 259 q 351 265 346 270 q 342 274 331 274 l 303 274 z m 381 222 l 391 222 q 391 219 392 216 q 394 213 396 210 q 397 208 400 206 q 402 204 405 204 q 414 201 420 201 q 423 201 426 201 q 429 201 430 202 q 439 205 441 208 q 441 210 442 212 q 442 214 442 216 q 442 222 441 223 q 436 226 430 229 q 429 231 425 231 q 421 231 415 234 q 402 235 396 240 q 388 246 385 249 q 384 253 384 261 q 384 264 384 268 q 385 271 388 274 q 390 280 400 283 q 403 286 417 286 q 429 286 435 283 q 444 279 447 273 q 453 264 453 259 l 441 256 q 438 267 433 270 q 427 276 417 276 q 405 276 400 270 q 396 267 396 261 q 396 255 400 253 q 402 250 417 247 q 430 241 439 241 q 442 238 445 236 q 448 234 450 231 q 454 226 454 217 q 454 210 450 204 q 447 199 444 197 q 442 195 439 192 q 427 189 420 189 q 409 189 397 192 q 393 195 390 197 q 387 199 384 204 q 382 208 382 212 q 381 216 381 222 z m 468 237 q 468 258 480 273 q 493 286 513 286 q 519 286 524 284 q 529 283 537 280 q 543 277 546 272 q 549 268 552 262 q 558 252 558 237 q 558 223 552 211 q 546 201 537 195 q 525 189 513 189 q 499 189 489 196 q 475 204 474 214 q 468 222 468 237 z m 480 237 q 480 219 489 210 q 498 201 513 201 q 528 201 537 210 q 544 220 544 237 q 544 243 544 249 q 543 255 540 259 q 535 267 531 270 q 523 276 513 276 q 505 276 500 274 q 496 271 489 267 q 480 258 480 237 z m 573 190 l 573 283 l 586 283 l 636 211 l 636 283 l 648 283 l 648 190 l 636 190 l 585 264 l 585 190 z m 658 190 l 694 283 l 708 283 l 747 190 l 732 190 l 721 220 l 682 220 l 670 190 z m 684 229 l 717 229 l 708 255 q 705 261 704 266 q 702 271 700 274 q 700 270 698 266 q 697 261 696 256 z m 754 190 l 754 283 l 768 283 l 768 202 l 814 202 l 814 190 z m 922 283 l 934 283 l 934 231 q 934 214 931 208 q 928 199 921 195 q 913 189 898 189 q 883 189 877 195 q 873 196 870 200 q 867 204 864 208 q 862 211 862 231 l 862 283 l 873 283 l 873 231 q 873 216 876 211 q 879 205 883 204 q 886 202 889 202 q 892 201 897 201 q 909 201 916 205 q 922 211 922 231 z m 951 222 l 963 222 q 963 219 964 216 q 966 213 967 210 q 969 208 971 206 q 973 204 976 204 q 985 201 990 201 q 1000 201 1005 202 q 1008 204 1012 208 q 1014 210 1014 216 q 1014 222 1012 223 q 1009 225 1008 226 q 1008 228 1005 229 q 1002 231 998 231 q 993 231 987 234 q 981 235 976 236 q 970 237 969 240 q 961 243 960 249 q 955 253 955 261 q 955 267 960 274 q 961 280 970 283 q 976 286 988 286 q 993 286 998 286 q 1003 286 1006 283 q 1015 279 1020 273 q 1021 270 1022 266 q 1024 262 1024 259 l 1012 256 q 1009 261 1008 264 q 1008 268 1005 270 q 1000 276 988 276 q 975 276 973 270 q 967 268 967 261 q 967 256 970 253 q 973 250 988 247 q 1005 241 1009 241 q 1014 238 1017 236 q 1020 234 1021 231 q 1026 228 1026 217 q 1026 208 1021 204 q 1018 199 1016 197 q 1014 195 1009 192 q 1000 189 993 189 q 985 189 980 190 q 975 190 970 192 q 967 195 964 197 q 960 199 957 204 q 954 208 952 212 q 951 216 951 222 z m 1044 190 l 1044 283 l 1111 283 l 1111 274 l 1057 274 l 1057 244 l 1107 244 l 1107 234 l 1057 234 l 1057 202 l 1113 202 l 1113 190 z m 307 388 q 307 403 285 406 q 282 406 278 407 q 273 408 267 408 l 258 397 l 234 372 q 228 364 222 358 q 217 352 210 348 q 219 345 232 343 q 235 343 240 343 q 246 343 250 345 q 273 346 285 357 q 307 375 307 388 z m 324 433 q 324 439 316 439 q 313 439 291 432 l 274 417 q 271 414 268 408 l 294 412 q 300 412 310 420 q 324 429 324 433 z m 343 460 q 343 457 339 457 q 336 457 335 458 q 334 459 331 459 q 316 456 297 436 q 300 439 304 440 q 307 442 310 444 q 321 445 330 444 q 336 444 336 436 l 336 430 q 328 417 294 409 q 321 406 321 391 q 321 373 292 354 q 282 348 270 344 q 259 340 247 339 q 228 334 217 336 q 208 336 198 340 q 189 334 181 334 l 178 334 q 169 337 163 339 l 168 339 q 180 339 187 345 l 187 346 q 177 340 165 340 q 148 340 139 349 q 124 360 124 381 q 124 387 126 392 q 127 397 130 405 q 141 427 166 444 q 174 451 182 454 q 190 456 198 457 q 214 457 220 451 q 213 456 205 456 q 196 456 186 450 q 171 444 169 441 q 154 433 139 415 q 126 394 126 379 q 126 372 128 368 q 129 363 132 358 q 138 349 148 346 q 153 345 156 344 q 159 343 162 343 q 168 343 172 344 q 177 346 183 349 q 166 361 166 382 q 169 402 190 417 l 187 412 q 184 412 181 406 q 172 397 172 387 q 172 367 195 354 q 207 361 207 363 q 210 367 213 370 q 216 373 219 376 q 222 379 222 384 q 223 388 226 393 l 226 391 q 226 384 225 379 l 243 400 q 289 453 319 462 q 306 466 298 466 q 279 465 256 453 q 229 439 229 420 q 229 414 234 409 q 235 408 235 406 q 226 412 226 421 q 226 438 246 454 q 270 472 297 469 q 306 469 324 463 l 330 463 q 337 463 342 460 z m 346 363 q 345 357 334 346 q 324 340 316 340 q 309 340 309 349 q 309 357 318 369 l 316 369 q 315 367 310 367 q 310 367 309 369 q 313 369 324 379 l 325 379 l 330 385 q 334 390 334 393 l 339 393 q 343 393 343 391 q 343 385 334 375 l 324 364 q 315 351 315 346 q 315 342 321 342 q 328 342 339 357 q 340 358 342 359 q 343 360 346 363 z m 354 405 q 348 396 339 396 q 334 396 328 400 l 333 400 q 343 400 346 411 l 346 414 l 354 411 q 355 409 354 405 z m 406 433 q 406 426 360 370 l 358 370 q 345 354 345 345 q 345 340 349 340 q 358 340 369 355 q 370 357 372 358 q 373 358 375 361 q 375 354 363 345 q 355 339 346 339 q 337 340 337 348 q 336 355 367 394 l 385 417 l 394 426 q 399 432 402 441 q 406 438 406 433 z m 432 433 q 432 427 384 370 q 369 352 369 345 q 369 340 375 340 q 381 340 394 355 l 400 361 q 399 354 387 345 q 379 339 370 339 q 361 340 361 348 q 361 357 391 394 l 409 417 l 418 426 q 426 435 427 441 q 432 438 432 433 z m 403 333 q 379 328 366 315 q 355 301 355 298 q 355 292 361 292 q 363 291 372 294 q 375 297 378 300 q 382 304 387 309 z m 447 430 q 444 409 427 393 q 427 391 426 391 q 426 391 426 390 q 421 384 416 378 q 411 373 406 366 q 403 363 403 360 q 402 363 405 369 q 396 355 396 348 q 396 343 400 343 q 402 343 408 346 q 430 364 439 397 l 439 393 l 439 388 q 442 385 442 381 q 442 378 435 366 l 423 346 l 409 328 q 414 331 426 337 l 424 336 q 421 333 416 329 q 411 325 406 318 l 394 303 l 388 295 q 379 286 369 283 q 360 283 355 289 q 346 292 352 303 q 354 304 356 307 q 357 310 360 313 l 361 315 l 351 313 q 376 331 393 333 q 394 333 396 334 q 397 334 399 334 l 400 334 l 403 334 l 412 348 q 406 342 402 341 q 397 340 394 340 q 387 340 387 348 q 387 366 418 394 l 421 396 l 436 411 q 439 417 442 422 q 445 426 447 430 z m 618 453 q 609 456 603 456 q 588 456 575 452 q 562 448 549 441 q 543 438 539 434 q 535 430 531 427 q 549 426 579 408 q 612 441 636 450 z m 649 447 q 643 445 636 443 q 630 441 622 433 q 618 430 600 412 l 589 402 l 604 393 q 607 397 613 404 q 619 411 627 420 z m 663 472 q 663 471 661 469 q 661 459 657 448 l 658 447 l 657 447 q 649 429 637 417 l 613 388 q 616 387 618 387 q 619 387 622 385 q 622 382 621 382 q 618 382 616 383 q 615 384 612 385 q 594 366 592 349 q 589 343 589 340 q 589 334 595 334 q 607 334 621 354 l 627 363 q 642 384 646 400 l 646 405 q 646 403 648 402 l 648 400 q 645 379 633 361 l 613 322 q 613 328 618 342 q 600 328 591 328 q 577 328 580 346 q 580 355 586 366 q 592 378 601 391 l 586 399 l 573 385 q 568 379 560 370 q 552 361 540 346 q 516 322 498 322 l 493 322 q 489 322 480 327 q 480 327 483 327 q 496 324 510 337 q 498 331 481 331 q 465 331 454 339 l 456 339 q 441 349 441 370 q 441 385 447 393 q 456 417 481 433 q 490 441 498 443 q 507 445 516 447 q 531 447 537 441 l 535 441 q 532 444 522 444 q 507 444 484 430 q 468 418 456 405 q 442 384 442 367 q 442 343 465 336 q 474 333 478 333 q 510 334 547 375 l 576 405 q 553 418 525 418 l 523 418 q 520 412 520 405 q 522 405 528 396 q 517 402 517 411 q 517 415 519 418 q 504 415 499 412 q 472 402 475 381 q 475 367 484 357 l 487 354 q 469 372 469 385 q 469 405 487 418 q 502 429 525 429 q 546 453 577 457 q 585 459 601 459 q 609 459 624 456 l 642 451 l 651 451 l 652 450 q 658 460 661 475 l 663 475 z m 682 375 q 682 370 681 367 q 673 360 668 354 q 663 348 658 340 l 660 340 l 661 340 q 660 339 658 339 q 657 339 657 337 q 649 337 649 340 q 649 346 663 360 q 673 373 673 376 q 675 381 669 385 q 651 360 637 354 l 631 351 l 628 352 q 634 352 648 367 q 661 379 666 387 q 666 388 665 388 q 664 388 664 390 q 664 391 675 400 q 675 402 676 402 l 678 400 q 678 399 670 388 q 682 384 682 375 z m 726 379 q 726 388 720 385 q 714 385 711 382 q 706 379 697 367 q 688 355 688 348 q 687 345 691 345 q 700 348 706 355 q 712 367 712 372 q 712 375 711 375 q 717 375 717 367 l 715 364 q 718 367 720 371 q 723 375 726 378 z m 754 393 q 748 393 741 385 q 735 378 729 369 q 723 360 715 348 q 708 333 702 324 q 696 316 694 313 q 675 289 664 289 q 655 288 651 295 q 651 303 651 303 q 651 310 657 316 q 654 315 649 315 q 664 330 682 334 q 684 334 684 335 q 685 336 688 336 l 690 334 q 661 325 655 307 q 654 304 654 300 q 654 298 655 297 q 655 295 657 295 q 669 294 685 318 l 696 333 l 702 342 q 697 340 694 340 q 682 340 682 352 q 682 366 702 384 q 711 393 718 393 q 729 393 729 381 l 730 381 l 738 390 q 745 397 751 397 q 756 397 759 393 z m 781 382 q 781 373 765 364 q 763 363 762 363 l 760 363 q 756 363 751 370 q 754 367 759 367 q 769 373 772 384 l 772 387 l 772 388 l 772 390 q 766 390 753 376 l 753 375 q 748 369 748 365 q 747 361 747 358 q 745 360 745 367 q 742 361 741 357 q 738 351 738 346 q 738 345 739 343 q 739 340 745 340 q 760 346 771 355 q 774 358 778 361 q 775 357 772 353 q 769 349 762 345 q 750 337 741 340 q 741 339 739 340 q 730 340 730 349 q 730 364 747 379 q 756 393 771 393 q 774 393 775 391 q 781 387 781 382 z m 841 433 q 841 427 793 370 q 780 354 780 345 q 780 340 784 340 q 793 340 804 355 q 805 357 806 358 q 808 358 810 361 q 810 354 798 345 q 790 339 780 339 q 772 342 772 348 q 772 360 801 394 l 819 417 l 828 426 q 837 435 837 441 q 841 438 841 433 z m 922 387 q 897 396 895 415 q 888 411 880 407 q 873 403 868 399 q 840 372 840 349 q 840 340 844 339 l 847 339 l 850 339 q 873 339 892 354 q 898 360 906 368 q 915 375 922 387 z m 952 430 l 940 430 q 922 429 897 417 q 900 396 925 391 l 936 405 z m 979 457 q 960 457 944 454 q 928 451 916 444 q 924 451 935 456 q 946 460 960 463 q 930 465 907 445 q 903 442 897 430 q 907 433 917 434 q 927 436 939 435 q 942 435 946 435 q 951 435 958 433 q 961 438 966 444 q 972 450 979 457 z m 1074 459 q 1071 454 1067 450 q 1063 447 1056 444 q 1044 436 1033 436 l 1030 436 q 1029 436 1027 438 q 1029 439 1029 440 q 1029 442 1032 445 q 1018 456 994 456 l 988 448 l 973 430 q 985 429 996 428 q 1006 426 1015 426 q 1036 426 1044 430 q 1038 424 1021 421 q 1008 418 994 423 l 970 427 q 964 420 959 414 q 954 409 951 403 l 940 388 l 948 388 q 985 391 991 406 l 993 406 q 988 397 973 390 q 966 387 959 386 q 952 384 946 384 l 939 384 q 928 372 922 363 q 915 354 909 348 q 889 327 873 327 q 865 328 856 328 q 871 328 888 343 q 867 334 855 334 l 846 336 l 858 324 q 846 330 838 337 q 837 337 831 340 q 813 354 811 375 q 811 382 811 388 q 811 394 814 400 q 819 414 826 424 q 834 433 844 444 q 870 466 889 466 q 900 466 907 460 l 906 459 q 901 463 892 463 q 873 460 852 444 q 834 429 825 414 q 813 393 813 375 q 816 348 837 340 q 834 349 835 358 q 838 381 852 397 q 868 418 897 430 q 900 433 900 439 l 913 453 q 933 469 964 469 q 972 469 977 469 q 982 469 990 468 l 991 468 q 1002 475 1010 479 q 1018 483 1027 481 q 1033 481 1036 478 q 1020 475 1020 475 q 1017 474 1013 472 q 1009 471 1005 468 q 1011 466 1017 466 q 1023 465 1030 462 q 1045 457 1054 457 q 1068 457 1074 459 z m 982 354 q 978 358 978 364 q 978 367 978 370 q 979 372 979 375 q 964 355 966 346 q 966 343 969 343 q 972 343 982 354 z m 1002 385 q 1002 388 999 388 q 996 388 993 387 q 991 385 988 379 q 981 364 981 360 q 981 355 982 354 l 987 358 l 987 360 l 987 358 q 988 360 988 360 q 988 361 990 363 q 993 372 993 375 q 993 376 991 378 q 994 372 994 370 q 999 375 1002 385 z m 1008 381 q 1008 373 997 358 q 984 345 978 340 l 966 340 q 957 340 957 348 q 957 360 973 379 q 984 393 997 393 q 1008 393 1008 381 z m 1057 384 q 1059 381 1051 367 q 1042 355 1039 352 l 1021 336 q 1011 325 1008 313 q 1009 331 1021 345 q 1027 351 1030 356 q 1033 360 1036 366 q 1038 367 1039 372 l 1039 367 q 1039 367 1038 364 q 1041 367 1047 379 q 1047 381 1048 382 q 1048 382 1048 384 q 1048 391 1041 388 q 1041 388 1029 379 q 1026 372 1020 366 q 1015 361 1009 354 q 1002 345 1000 340 q 999 339 993 327 q 993 330 992 334 q 991 337 993 340 q 996 351 1006 361 l 1015 372 q 1023 382 1023 388 q 1023 390 1022 392 q 1021 393 1021 394 q 1030 391 1030 385 q 1039 393 1050 393 q 1056 390 1057 384 z m 1116 405 l 1093 405 q 1092 402 1084 393 q 1075 384 1063 367 q 1060 367 1057 360 q 1051 352 1051 345 q 1051 340 1054 340 q 1062 340 1075 355 l 1077 357 q 1078 358 1078 359 q 1078 360 1080 361 q 1080 354 1069 345 q 1062 339 1051 339 q 1044 342 1042 348 q 1042 351 1048 363 l 1066 384 l 1083 405 l 1057 408 q 1051 409 1042 409 l 1029 409 q 1011 409 993 402 l 991 402 q 1006 417 1038 417 q 1039 417 1050 414 q 1062 412 1083 409 l 1087 408 q 1092 415 1096 420 q 1099 426 1102 430 q 1105 429 1105 423 q 1105 418 1102 415 l 1096 406 l 1108 405 l 1117 405 l 1119 405 l 1123 405 z m 1126 385 q 1126 381 1116 376 l 1114 375 q 1119 379 1119 387 l 1119 393 l 1114 393 q 1107 393 1105 387 q 1105 384 1110 361 q 1111 340 1086 340 q 1072 340 1069 349 q 1068 351 1068 354 q 1068 366 1086 369 l 1092 367 l 1089 367 q 1083 367 1080 364 q 1075 357 1075 354 q 1075 342 1087 342 q 1099 342 1099 358 q 1099 366 1098 370 q 1096 375 1096 381 q 1096 396 1110 396 q 1113 396 1114 395 q 1116 394 1119 394 q 1125 391 1125 390 q 1126 388 1126 385 z"},"S":{"x_min":0,"x_max":511,"ha":511,"o":"m 52 250 q 48 236 66 223 q 85 210 124 193 q 164 176 224 154 q 285 131 366 99 q 384 91 400 80 q 416 70 426 54 q 436 39 438 18 q 440 -4 430 -33 q 423 -51 401 -64 q 379 -77 349 -86 q 319 -95 284 -100 q 250 -104 217 -106 q 184 -107 157 -105 q 130 -103 116 -99 q 110 -98 100 -94 q 91 -89 82 -83 q 74 -77 69 -70 q 64 -63 67 -55 q 79 -62 108 -66 q 138 -69 175 -68 q 212 -68 252 -64 q 293 -60 327 -52 q 361 -44 385 -32 q 409 -20 413 -4 q 416 5 405 16 q 394 26 378 36 q 363 45 346 52 q 330 59 321 62 q 231 92 168 116 q 106 140 68 161 q 31 182 16 202 q 2 223 8 246 q 19 280 50 313 q 81 346 124 376 q 167 405 219 430 q 271 456 324 476 q 378 496 430 508 q 481 521 522 525 q 543 526 573 524 q 603 521 628 512 q 654 502 669 484 q 684 467 676 438 q 668 414 644 390 q 621 366 589 344 q 557 323 520 304 q 484 284 450 268 q 416 252 388 240 q 360 229 346 223 q 323 212 314 215 q 306 218 302 231 q 292 276 254 310 q 217 345 173 372 q 128 346 96 315 q 63 284 52 250 z m 322 262 q 327 249 330 250 q 334 250 348 254 q 378 263 420 284 q 461 305 500 330 q 539 354 568 380 q 596 405 601 423 q 606 444 604 454 q 601 465 582 468 q 549 476 503 474 q 457 472 405 461 q 353 450 300 431 q 247 412 201 388 q 220 373 239 358 q 258 343 274 327 q 291 311 304 295 q 316 279 322 262 z m 133 397 q 97 422 76 452 q 56 483 52 514 q 48 546 60 575 q 71 604 98 626 q 133 653 176 653 q 219 653 260 638 q 300 622 334 596 q 367 569 383 544 q 388 537 388 532 q 389 528 386 527 q 384 526 379 528 q 374 531 369 537 q 349 557 320 573 q 292 589 260 596 q 228 603 196 596 q 163 590 136 565 q 125 554 118 540 q 112 525 110 510 q 109 494 112 479 q 116 464 127 452 q 135 444 144 436 q 152 427 162 419 z"},"Z":{"x_min":0,"x_max":722,"ha":722,"o":"m 498 153 q 485 141 472 128 q 458 116 436 96 q 413 75 376 44 q 339 12 278 -39 l 385 -2 q 430 15 478 24 q 527 32 576 30 q 611 28 639 16 q 667 5 687 -25 q 697 -39 697 -52 q 696 -61 687 -76 q 678 -90 668 -92 q 650 -96 650 -88 q 651 -79 657 -71 q 661 -67 667 -56 q 673 -44 675 -37 q 675 -27 665 -20 q 655 -14 642 -10 q 629 -5 616 -3 q 602 -1 596 -1 q 552 1 500 -12 q 448 -24 396 -44 q 345 -63 298 -86 q 252 -108 221 -127 q 210 -136 193 -134 q 179 -134 170 -120 q 161 -107 162 -97 q 163 -92 178 -78 q 193 -64 224 -38 q 254 -12 300 26 q 347 65 411 120 q 400 119 387 119 q 374 119 362 122 q 351 125 344 132 q 336 139 336 152 q 348 147 376 147 q 404 147 437 149 q 460 170 502 206 q 544 241 600 290 q 657 339 724 401 q 792 463 866 536 q 867 543 864 547 q 860 551 856 554 q 851 556 846 556 q 842 557 842 557 q 797 558 750 542 q 704 526 665 507 q 627 493 594 477 q 560 461 530 444 q 522 410 510 376 q 498 342 484 310 q 471 279 457 252 q 443 224 430 203 q 419 186 410 188 q 402 190 413 203 q 424 221 436 246 q 448 271 458 300 q 469 328 478 360 q 488 391 494 422 q 441 389 398 356 q 354 324 312 300 q 271 276 230 264 q 189 252 143 260 q 77 271 46 308 q 16 346 20 394 q 22 422 38 448 q 54 473 80 491 q 107 509 142 516 q 176 523 215 514 q 228 510 234 507 q 241 504 244 504 q 246 504 246 508 q 247 513 249 524 q 256 572 279 605 q 302 638 330 658 q 359 677 388 685 q 418 693 438 691 q 472 688 494 672 q 516 655 528 630 q 540 604 542 572 q 545 539 541 504 l 502 483 q 503 510 500 534 q 498 559 490 578 q 483 598 470 611 q 456 624 436 627 q 411 631 385 625 q 359 619 337 602 q 315 585 300 557 q 286 529 285 490 q 284 478 283 474 q 282 469 279 469 q 276 469 270 472 q 264 475 253 477 q 221 484 192 480 q 162 476 138 464 q 115 452 99 432 q 83 412 79 386 q 72 354 92 330 q 113 305 155 300 q 193 297 225 306 q 257 314 288 330 q 320 347 355 371 q 390 395 433 423 q 476 451 530 482 q 585 513 657 544 q 703 565 746 577 q 788 589 840 587 q 850 585 864 579 q 877 573 888 564 q 900 556 908 546 q 916 536 916 526 q 915 506 882 476 q 849 445 793 400 q 737 356 661 295 q 585 234 498 153 z m 522 154 q 537 154 558 153 q 580 152 586 149 q 604 141 608 129 q 612 117 608 117 q 605 115 600 116 q 596 118 591 120 q 565 128 541 127 q 517 126 489 124 z"},"x":{"x_min":0,"x_max":212,"ha":212,"o":"m 34 51 q 34 73 41 99 q 48 125 58 150 l 33 115 q 29 109 21 114 q 13 118 19 128 q 25 138 35 150 q 45 163 56 176 q 66 190 74 202 q 82 215 84 226 l 84 227 q 83 228 83 229 q 86 233 96 231 q 105 229 114 222 q 123 216 130 207 q 137 198 136 190 q 132 182 126 169 q 119 156 112 140 l 161 190 q 175 204 190 216 q 205 228 216 227 q 237 227 241 208 q 241 203 238 194 q 236 186 232 179 q 229 172 225 169 q 221 166 218 171 q 212 176 205 174 q 198 172 192 167 q 169 154 144 130 q 120 106 90 78 q 84 61 83 48 q 82 34 88 28 q 94 22 109 26 q 124 30 150 48 q 173 62 196 87 q 219 112 238 137 q 246 147 253 142 q 260 136 254 128 q 237 104 218 80 q 199 55 178 36 q 156 17 132 6 q 109 -4 82 -1 q 74 0 61 5 q 48 10 40 23 l -10 -31 q -22 -41 -26 -34 q -30 -26 -26 -18 z"},"v":{"x_min":0,"x_max":198,"ha":198,"o":"m 55 219 q 56 226 66 223 q 76 220 86 212 q 97 203 104 192 q 112 182 108 174 q 102 157 88 132 q 74 107 62 84 q 49 61 42 44 q 34 28 42 28 q 54 29 72 46 q 89 62 108 88 q 127 113 144 144 q 161 174 172 202 q 182 231 183 254 q 184 276 171 286 q 165 290 166 294 q 166 298 170 300 q 174 303 180 304 q 187 305 193 304 q 209 303 220 292 q 232 281 235 266 q 236 251 226 226 q 216 200 199 170 q 182 140 160 110 q 139 80 116 55 q 94 30 73 14 q 52 -1 37 -1 q 16 -1 4 14 q -8 30 -6 50 q -5 75 4 96 q 12 118 22 138 q 33 158 42 178 q 52 197 55 219 z"},"O":{"x_min":0,"x_max":750,"ha":750,"o":"m 2 249 q 6 284 22 315 q 39 346 64 368 q 89 391 119 402 q 149 413 181 408 q 194 405 206 402 q 217 400 228 396 q 240 391 252 384 q 263 378 277 367 q 287 359 292 355 q 296 351 298 352 q 300 352 301 358 q 302 364 305 376 q 319 424 348 464 q 378 504 417 532 q 456 560 500 574 q 545 589 590 586 q 629 584 667 572 q 705 561 735 536 q 765 511 784 471 q 802 431 801 371 q 800 320 777 264 q 754 208 717 154 q 680 101 634 54 q 587 6 540 -30 q 492 -65 447 -84 q 402 -104 369 -101 q 336 -99 314 -86 q 291 -73 276 -53 q 261 -33 254 -7 q 246 19 244 47 q 194 39 148 49 q 101 59 66 85 q 31 111 12 152 q -6 193 2 249 z m 250 134 q 252 146 257 164 q 262 182 269 198 q 276 215 284 226 q 293 237 302 236 q 310 234 322 224 q 334 214 333 203 q 333 200 329 200 q 326 200 323 202 q 320 203 317 203 q 309 205 302 196 q 295 186 293 181 q 281 146 274 104 q 266 62 270 24 q 274 -13 294 -40 q 313 -66 355 -69 q 384 -72 424 -56 q 464 -39 506 -8 q 549 22 590 64 q 632 106 666 153 q 699 200 720 250 q 742 300 744 347 q 746 393 732 428 q 717 462 692 484 q 667 507 634 517 q 601 527 567 525 q 526 523 488 508 q 449 492 416 466 q 383 441 358 407 q 332 373 317 334 q 305 303 298 298 q 292 294 281 310 q 271 320 258 328 q 244 336 229 342 q 214 348 200 351 q 186 354 174 354 q 144 353 121 338 q 98 324 82 301 q 67 278 60 250 q 54 222 58 194 q 62 167 78 143 q 93 119 122 104 q 177 74 244 77 q 244 91 246 106 q 248 120 250 134 z m 287 88 q 317 96 346 108 q 376 121 402 141 q 410 149 416 147 q 423 145 419 140 q 389 109 355 88 q 321 68 284 57 z"},"C":{"x_min":0,"x_max":677,"ha":677,"o":"m 234 304 q 258 291 285 278 q 312 266 335 256 q 358 247 374 242 q 390 236 392 236 q 414 248 446 264 q 477 280 510 298 q 544 317 576 338 q 609 360 633 384 q 657 407 669 432 q 681 457 674 483 q 668 503 650 510 q 633 517 617 519 q 598 522 577 519 q 556 516 535 510 q 514 505 494 498 q 475 491 459 486 q 411 468 356 432 q 301 396 254 348 q 206 300 174 244 q 142 187 139 128 q 136 84 147 50 q 158 17 180 -6 q 201 -30 232 -44 q 262 -58 299 -64 q 339 -70 389 -66 q 439 -61 492 -40 q 546 -19 599 22 q 652 63 697 129 q 708 137 714 132 q 721 128 713 120 q 675 61 630 20 q 584 -20 535 -45 q 486 -70 435 -82 q 384 -93 335 -94 q 251 -96 199 -74 q 147 -52 119 -17 q 91 18 83 60 q 75 101 79 138 q 83 184 103 227 q 123 270 153 309 q 108 336 80 368 q 51 400 48 440 q 44 476 63 502 q 82 527 116 542 q 150 558 194 564 q 237 571 282 568 q 327 566 369 556 q 411 546 442 530 q 447 532 452 534 q 457 536 462 538 q 507 555 548 562 q 588 570 622 568 q 680 564 712 534 q 744 504 734 450 q 728 419 706 393 q 684 367 652 344 q 621 321 584 302 q 548 283 512 267 q 477 251 447 238 q 417 224 399 213 q 369 219 340 229 q 314 237 280 249 q 247 261 215 276 z m 105 431 q 103 408 122 384 q 142 360 177 338 q 228 395 290 439 q 352 483 407 512 q 381 518 348 522 q 316 526 283 526 q 250 526 218 522 q 187 518 162 507 q 137 496 122 478 q 106 459 105 431 z m 472 463 q 480 448 481 431 q 482 414 469 388 q 458 369 448 364 q 439 359 443 373 q 474 422 446 455 z"},"W":{"x_min":0,"x_max":927,"ha":927,"o":"m 298 -19 q 295 -27 300 -33 q 305 -39 316 -26 l 465 143 q 466 144 470 148 q 475 153 480 159 q 486 165 492 171 q 498 177 501 182 q 506 188 513 196 q 520 203 528 210 q 537 217 546 222 q 554 228 562 229 q 568 229 572 227 q 575 225 580 222 q 600 217 602 205 q 603 193 603 170 q 603 106 599 65 q 595 24 597 -5 q 599 -23 604 -37 q 609 -51 629 -56 q 656 -62 689 -41 q 722 -20 758 20 q 793 60 828 116 q 863 171 894 233 q 925 295 949 360 q 973 426 986 486 q 989 499 988 508 q 988 518 987 524 q 986 531 986 536 q 987 540 992 543 q 996 545 1005 542 q 1014 540 1023 533 q 1032 526 1038 516 q 1044 507 1043 495 q 1037 451 1018 393 q 1000 335 972 273 q 943 211 906 150 q 870 90 828 40 q 787 -9 742 -42 q 697 -75 652 -82 q 628 -86 604 -78 q 581 -69 572 -39 q 562 -7 566 50 q 571 108 573 196 q 571 196 562 186 q 552 176 528 151 q 505 126 466 82 q 426 38 366 -29 q 337 -61 319 -64 q 301 -68 287 -62 q 267 -50 268 -25 q 268 0 276 25 l 313 127 q 260 120 206 126 q 153 131 110 150 q 67 168 40 200 q 14 231 16 276 q 17 311 34 334 q 51 357 74 372 q 82 377 96 380 q 111 384 128 384 q 144 384 160 379 q 176 374 187 361 q 194 353 197 350 q 200 348 202 350 q 203 352 204 358 q 204 363 206 372 q 212 405 219 428 q 226 450 237 475 q 250 503 272 526 q 294 549 321 564 q 348 579 378 585 q 407 591 434 584 q 453 577 466 564 q 479 550 484 528 q 489 506 486 476 q 482 445 467 405 q 447 350 426 300 q 405 249 384 199 q 362 149 340 96 q 319 42 298 -19 z m 421 413 q 436 453 434 478 q 433 502 420 514 q 407 525 386 524 q 365 523 341 513 q 320 505 301 485 q 282 465 267 440 q 252 415 242 388 q 231 362 228 341 q 224 313 217 308 q 210 304 199 313 q 170 331 146 330 q 121 329 104 316 q 87 304 78 284 q 70 264 73 245 q 82 209 110 188 q 138 167 174 157 q 211 147 250 146 q 289 145 321 149 q 332 179 342 206 q 352 233 363 263 q 374 293 388 329 q 402 365 421 413 z m 389 165 q 400 168 406 172 q 412 176 417 178 q 433 188 440 183 q 446 178 433 170 q 421 162 410 156 q 400 150 385 145 z"},"A":{"x_min":0,"x_max":823,"ha":823,"o":"m 430 29 q 361 26 298 32 q 234 39 184 61 q 135 83 104 124 q 73 165 70 230 q 68 258 76 286 q 85 314 102 338 q 120 362 145 380 q 170 399 201 409 q 223 416 250 416 q 278 416 305 409 q 332 402 358 388 q 383 375 403 354 q 418 338 424 331 q 430 324 432 326 q 435 327 436 336 q 436 346 439 363 q 449 414 470 457 q 492 500 524 530 q 557 560 598 575 q 640 590 691 586 q 737 583 768 559 q 800 535 813 498 q 826 461 818 415 q 811 369 779 322 q 757 290 735 236 q 713 183 700 116 q 687 49 687 -26 q 687 -101 708 -177 q 711 -188 709 -192 q 707 -195 702 -192 q 698 -189 692 -180 q 686 -172 680 -159 q 659 -111 654 -56 q 649 0 655 57 q 639 54 618 50 q 596 45 574 41 q 551 37 528 34 q 506 30 488 29 l 521 54 q 562 59 599 67 q 636 75 658 80 q 664 122 674 162 q 684 203 696 239 q 709 275 724 306 q 738 336 753 359 q 678 254 602 166 q 525 77 452 12 q 380 -52 314 -90 q 248 -127 195 -130 q 181 -130 176 -124 q 170 -118 193 -112 q 270 -94 334 -53 q 399 -12 463 52 z m 719 367 q 758 418 757 455 q 756 492 731 512 q 706 533 664 534 q 623 536 581 516 q 539 497 504 454 q 468 412 456 344 q 452 323 448 312 q 445 300 440 297 q 436 294 429 298 q 422 302 412 311 q 368 348 320 358 q 272 369 231 357 q 190 345 162 313 q 134 281 129 233 q 125 196 138 168 q 151 140 176 120 q 201 99 235 86 q 269 72 308 64 q 347 57 388 55 q 428 53 466 55 q 525 115 586 192 q 647 270 719 367 z m 726 99 q 761 106 785 109 q 809 112 818 111 q 827 110 820 105 q 812 100 785 91 q 773 87 762 86 q 750 84 725 77 z"},"f":{"x_min":0,"x_max":142,"ha":142,"o":"m -86 -57 q -50 10 -13 73 q 24 136 58 191 q 92 246 121 292 q 150 337 170 371 q 175 381 192 389 q 210 397 227 400 q 244 404 254 401 q 265 398 255 386 q 238 363 211 324 q 184 285 152 236 q 120 186 86 129 q 51 72 19 14 q 60 28 94 54 q 128 79 164 133 q 171 138 176 134 q 181 130 179 122 q 146 72 107 40 q 68 7 30 -6 q 50 -11 63 -31 q 76 -51 75 -75 q 78 -103 62 -137 q 47 -171 23 -200 q -1 -230 -30 -250 q -59 -269 -83 -268 q -114 -267 -130 -257 q -147 -247 -148 -223 q -149 -199 -134 -159 q -119 -119 -86 -57 z m 52 -82 q 49 -55 37 -42 q 25 -29 -4 -27 q -37 -89 -58 -130 q -78 -172 -87 -197 q -96 -222 -94 -233 q -92 -244 -80 -246 q -58 -247 -34 -230 q -10 -212 10 -186 q 29 -161 41 -132 q 53 -103 52 -82 z"},"Q":{"x_min":0,"x_max":653,"ha":653,"o":"m 352 408 q 307 375 257 328 q 207 281 166 228 q 124 175 96 118 q 69 62 69 11 q 69 -34 94 -54 q 118 -75 163 -75 q 215 -75 273 -50 q 331 -24 387 18 q 443 61 494 116 q 545 171 583 230 q 621 290 644 349 q 667 408 667 459 q 667 525 630 556 q 594 588 531 588 q 479 588 425 570 q 371 552 320 522 q 269 493 224 456 q 180 419 148 381 q 134 363 118 341 q 103 319 103 296 q 103 291 104 288 q 104 284 105 280 q 105 273 100 272 q 96 270 91 276 q 76 295 76 315 q 76 344 92 368 q 107 392 125 412 q 158 450 202 490 q 247 530 298 563 q 349 596 404 617 q 458 638 510 638 q 547 638 584 620 q 621 602 650 573 q 679 544 697 507 q 715 470 715 432 q 715 385 699 338 q 683 291 656 246 q 628 200 592 158 q 556 117 516 80 q 477 42 436 11 q 395 -20 359 -43 l 364 -43 q 387 -39 410 -36 q 432 -34 455 -34 q 474 -34 496 -36 q 519 -38 540 -42 q 562 -47 582 -56 q 603 -64 619 -77 q 630 -85 641 -100 q 652 -114 652 -127 q 652 -132 647 -129 q 642 -126 635 -120 q 628 -115 620 -108 q 613 -102 609 -99 q 598 -90 581 -84 q 564 -77 545 -72 q 526 -68 508 -66 q 490 -63 477 -63 q 420 -63 364 -76 q 307 -88 253 -107 q 248 -109 238 -112 q 229 -115 220 -118 q 210 -121 202 -124 q 193 -127 190 -129 q 197 -132 204 -138 q 212 -144 212 -149 q 212 -155 206 -156 l 133 -175 q 125 -178 119 -176 q 113 -173 108 -168 q 104 -163 102 -157 q 99 -151 99 -146 q 99 -141 108 -134 q 116 -128 127 -122 q 138 -116 148 -111 q 159 -106 163 -104 q 140 -100 119 -91 q 98 -82 82 -68 q 65 -55 54 -36 q 44 -17 43 7 q 41 43 53 85 q 65 127 87 170 q 109 214 140 258 q 172 301 208 340 q 245 379 286 412 q 327 444 368 467 q 416 494 461 503 q 506 512 540 506 q 575 499 596 478 q 618 458 620 426 q 623 394 602 352 q 582 310 533 260 q 511 238 480 212 q 450 187 417 164 q 384 142 350 124 q 317 107 290 101 q 273 118 262 131 q 251 144 240 154 q 229 165 215 174 q 201 184 178 195 q 172 198 174 204 q 176 210 184 212 q 217 201 235 190 q 253 178 264 166 q 274 155 280 145 q 287 135 296 127 q 329 140 366 165 q 402 190 436 220 q 470 251 498 284 q 526 317 542 347 q 562 383 560 406 q 559 428 544 440 q 528 451 502 452 q 477 454 450 448 q 422 443 396 432 q 369 421 352 408 z"},"w":{"x_min":0,"x_max":317,"ha":317,"o":"m -13 53 q -10 71 2 96 q 14 122 27 147 q 40 172 50 192 q 59 213 57 221 q 56 227 65 226 q 74 225 85 219 q 96 213 104 202 q 113 192 110 180 q 108 174 94 150 q 80 126 66 99 q 52 72 43 51 q 34 30 42 30 q 48 28 62 38 q 75 48 92 66 q 109 84 126 108 q 144 133 157 159 q 170 178 170 203 q 171 211 180 208 q 190 204 200 196 q 211 187 218 176 q 226 165 223 158 q 215 141 202 118 q 190 96 179 76 q 168 56 162 42 q 157 28 163 28 q 175 29 192 46 q 210 63 229 88 q 248 113 265 144 q 282 174 292 202 q 303 231 304 254 q 306 276 293 286 q 287 290 288 294 q 288 298 292 300 q 296 303 302 304 q 308 305 314 304 q 330 302 342 292 q 354 281 357 266 q 358 251 348 226 q 338 200 321 170 q 304 140 282 110 q 260 80 238 55 q 216 30 194 14 q 173 -1 158 -1 q 138 -1 125 14 q 112 30 114 50 q 114 55 114 60 q 115 64 116 69 q 94 38 71 20 q 48 1 26 -1 q 12 -2 4 4 q -5 10 -10 18 q -14 27 -14 37 q -15 47 -13 53 z"},"E":{"x_min":0,"x_max":645,"ha":645,"o":"m 185 -111 q 140 -102 108 -82 q 77 -61 58 -34 q 40 -8 34 23 q 28 54 34 84 q 43 130 70 164 q 98 197 137 219 q 176 241 224 252 q 272 262 323 262 q 281 295 258 330 q 236 364 230 396 q 223 427 230 454 q 236 480 253 498 q 279 528 322 525 q 364 522 411 472 q 419 463 421 464 q 423 466 428 479 q 449 517 480 547 q 510 577 543 594 q 576 611 608 613 q 641 615 665 597 q 695 574 704 546 q 712 517 705 486 q 698 456 680 426 q 662 397 640 372 q 617 348 592 330 q 568 313 550 307 q 540 303 535 308 q 530 313 548 322 q 564 329 582 348 q 600 366 616 390 q 631 413 642 439 q 652 465 653 488 q 654 511 644 528 q 634 544 609 549 q 591 553 566 546 q 542 539 518 524 q 494 509 472 488 q 451 466 438 440 q 428 423 424 416 q 421 410 408 426 q 388 451 370 460 q 351 469 335 467 q 319 465 306 454 q 294 444 287 429 q 278 409 280 386 q 281 362 294 339 q 306 316 330 296 q 353 276 389 263 q 409 255 414 244 q 418 232 407 232 q 360 233 310 222 q 260 210 217 188 q 174 167 143 136 q 112 106 103 69 q 92 27 114 -10 q 136 -48 193 -67 q 252 -87 318 -82 q 383 -76 446 -50 q 509 -24 566 22 q 623 68 666 129 q 677 137 684 132 q 690 128 682 120 q 634 52 576 2 q 519 -47 455 -77 q 391 -107 322 -116 q 254 -125 185 -111 z"},"s":{"x_min":0,"x_max":167,"ha":167,"o":"m 209 126 q 192 100 170 72 q 148 45 116 26 q 76 -2 40 -3 q 23 -5 8 1 q -6 7 -15 25 q -17 30 -11 30 q 19 28 35 42 q 51 55 58 76 q 66 97 68 122 q 70 147 71 168 q 60 154 52 141 q 43 128 33 115 q 31 112 27 112 q 23 112 20 114 q 17 117 16 120 q 16 124 20 128 q 33 146 46 166 q 59 187 72 206 q 74 233 88 255 q 103 277 122 282 q 127 283 136 278 q 144 273 152 266 q 160 259 166 252 q 171 245 169 241 q 146 228 110 192 q 106 182 108 166 q 110 151 114 132 q 117 114 120 95 q 122 76 118 58 q 140 72 158 90 q 175 109 195 139 q 200 144 207 139 q 214 134 209 126 z"},"l":{"x_min":0,"x_max":167,"ha":167,"o":"m 69 110 q 63 98 60 84 q 56 70 56 58 q 55 47 59 39 q 63 31 72 30 q 86 30 102 40 q 117 50 132 66 q 148 81 164 100 q 180 119 194 137 q 202 145 208 142 q 215 138 209 128 q 198 109 180 86 q 163 64 142 44 q 121 25 100 12 q 78 -1 60 -1 q 34 -1 22 15 q 11 31 8 52 q 5 72 8 92 q 11 113 15 122 l 26 150 q 41 198 66 244 q 90 289 118 327 q 147 365 178 391 q 208 417 235 426 q 243 428 252 424 q 261 421 268 414 q 274 406 277 396 q 280 386 277 375 q 265 349 246 320 q 227 291 204 263 q 180 235 153 210 q 126 185 99 167 z m 258 393 q 247 390 231 373 q 215 356 196 330 q 176 303 154 268 q 133 234 113 197 q 131 212 150 232 q 169 253 188 275 q 206 297 222 319 q 237 341 247 358 q 257 374 260 384 q 264 394 258 393 z"},"8":{"x_min":0,"x_max":1219,"ha":1219,"o":"m 876 781 l 739 657 l 775 471 l 615 565 l 450 471 l 489 652 l 351 781 l 537 801 l 615 972 l 690 802 z m 682 576 l 639 834 l 586 834 l 541 576 l 564 562 l 583 576 l 592 634 l 631 634 l 642 576 l 663 562 z m 628 672 l 598 672 l 612 774 z m 610 21 l 631 21 l 624 39 q 622 42 622 44 q 622 46 619 49 q 619 45 616 39 z m 352 -5 l 352 3 l 363 3 l 363 -5 z m 844 -5 l 844 58 l 852 58 l 852 1 l 883 1 l 883 -5 z m 787 -5 l 787 58 l 832 58 l 832 49 l 795 49 l 795 30 l 829 30 l 829 22 l 795 22 l 795 1 l 832 1 l 832 -5 z m 565 -5 l 565 21 l 541 58 l 552 58 l 564 39 q 567 30 570 28 q 571 30 572 33 q 574 36 577 39 l 589 58 l 598 58 l 573 21 l 573 -5 z m 376 -5 l 376 58 l 400 58 q 403 58 406 56 q 408 55 409 55 q 415 54 417 49 q 420 46 420 40 q 420 36 417 34 q 415 28 411 28 q 415 27 420 22 q 423 16 423 13 q 423 10 422 8 q 421 7 421 6 q 420 0 415 0 q 414 -3 412 -3 q 411 -3 409 -5 l 400 -5 z m 205 -5 l 187 58 l 196 58 l 205 16 q 207 12 207 9 q 207 6 208 3 q 210 10 210 15 l 222 58 l 232 58 l 241 25 q 243 18 244 14 q 246 9 246 3 q 247 6 247 9 q 247 12 249 16 l 259 58 l 267 58 l 249 -5 l 241 -5 l 229 42 q 228 46 228 49 q 226 46 226 42 l 213 -5 z m 123 -5 l 105 58 l 115 58 l 123 16 q 123 9 127 3 q 129 10 129 15 l 141 58 l 150 58 l 160 25 q 162 18 162 14 q 163 9 163 3 q 166 6 166 9 q 166 12 168 16 l 177 58 l 186 58 l 168 -5 l 160 -5 l 148 42 q 147 46 147 49 q 144 46 144 42 l 130 -5 z m 384 30 l 397 30 q 403 30 405 33 q 409 33 409 34 q 411 36 411 40 q 411 45 409 46 l 408 46 q 406 46 406 47 q 406 48 405 48 q 403 49 396 49 l 384 49 z m 285 -5 l 268 58 l 277 58 l 286 16 q 288 12 288 9 q 288 6 291 3 q 291 9 292 11 q 292 13 292 15 l 304 58 l 313 58 l 324 25 q 325 18 326 14 q 327 9 327 3 q 330 6 330 9 q 330 12 331 16 l 342 58 l 349 58 l 331 -5 l 324 -5 l 312 42 q 310 46 310 49 q 307 46 307 42 l 294 -5 z m 664 28 l 682 28 q 685 28 688 29 q 690 30 693 30 q 696 30 696 34 q 697 36 697 40 q 697 45 694 48 q 693 49 684 49 l 664 49 z m 384 1 l 400 1 q 403 1 405 3 l 409 3 q 411 6 414 7 l 414 13 q 414 16 411 19 q 411 22 408 22 l 397 22 l 384 22 z m 435 -5 l 435 58 l 442 58 l 442 -5 z m 985 25 q 985 12 990 7 q 996 1 1006 1 q 1017 1 1021 7 q 1027 12 1027 27 q 1027 34 1026 39 q 1023 46 1018 48 q 1014 49 1006 49 q 997 49 993 45 q 985 39 985 25 z m 976 25 q 976 42 985 49 q 991 58 1006 58 q 1011 58 1014 56 q 1018 55 1021 54 q 1026 52 1028 49 q 1030 46 1033 42 q 1035 39 1035 27 q 1035 13 1032 9 q 1027 1 1021 -3 q 1015 -6 1006 -6 q 1002 -6 998 -6 q 994 -5 990 -3 q 987 0 984 3 q 982 6 981 9 q 979 13 978 17 q 976 21 976 25 z m 592 -5 l 616 58 l 625 58 l 651 -5 l 642 -5 l 634 13 l 609 13 l 600 -5 z m 459 -5 l 459 58 l 466 58 l 466 1 l 495 1 l 495 -5 z m 892 -5 l 892 3 l 903 3 l 903 -5 z m 748 19 l 748 27 l 774 27 l 774 3 q 768 -3 762 -5 q 759 -5 755 -6 q 751 -6 748 -6 q 739 -6 733 -3 q 729 0 726 2 q 723 4 721 9 q 720 13 718 17 q 717 21 717 25 q 717 31 718 34 q 720 37 721 42 q 724 51 732 54 q 735 55 740 56 q 744 58 748 58 q 756 58 760 55 q 766 54 768 49 q 772 45 774 40 l 766 39 q 766 40 762 45 q 762 48 756 49 l 748 49 l 739 49 q 735 48 732 45 q 732 43 727 39 q 727 36 726 33 q 726 30 726 27 q 726 16 729 13 q 735 4 736 3 q 741 1 748 1 q 754 1 759 3 q 762 6 764 6 q 765 6 766 7 l 766 19 z m 657 -5 l 657 58 l 684 58 q 688 58 691 56 q 694 55 697 55 q 702 54 703 49 q 706 46 706 40 q 706 33 702 28 q 700 27 696 26 q 693 25 688 22 q 691 22 692 22 q 693 21 694 21 q 696 18 696 16 q 697 13 700 10 l 712 -5 l 702 -5 l 693 7 q 690 10 689 12 q 688 15 687 16 q 687 19 686 19 q 684 19 682 21 l 681 21 q 679 21 679 22 q 679 22 678 22 l 675 22 l 664 22 l 664 -5 z m 505 -5 l 505 58 l 514 58 l 514 1 l 544 1 l 544 -5 z m 961 16 l 969 15 q 966 3 960 0 q 954 -6 943 -6 q 934 -6 928 -3 q 924 0 922 3 q 921 6 918 9 q 915 21 915 27 q 915 33 918 45 q 925 52 928 54 q 933 55 936 56 q 939 58 943 58 q 948 58 952 56 q 957 55 960 54 q 963 51 965 48 q 967 45 969 40 l 960 39 q 960 45 954 48 q 951 49 943 49 q 934 49 931 48 q 928 46 928 44 q 927 42 924 39 q 924 36 923 33 q 922 30 922 27 q 922 18 927 13 q 927 10 928 8 q 930 6 931 3 q 936 1 943 1 q 951 1 955 6 q 960 10 961 16 z m 1047 -5 l 1047 58 l 1059 58 l 1074 13 q 1074 10 1076 8 q 1077 6 1077 3 q 1077 4 1080 13 l 1093 58 l 1105 58 l 1105 -5 l 1098 -5 l 1098 46 l 1080 -5 l 1072 -5 l 1054 48 l 1054 -5 z m 610 21 l 631 21 l 624 39 q 622 42 622 44 q 622 46 619 49 q 619 45 616 39 z m 352 -5 l 352 3 l 363 3 l 363 -5 z m 844 -5 l 844 58 l 852 58 l 852 1 l 883 1 l 883 -5 z m 787 -5 l 787 58 l 832 58 l 832 49 l 795 49 l 795 30 l 829 30 l 829 22 l 795 22 l 795 1 l 832 1 l 832 -5 z m 565 -5 l 565 21 l 541 58 l 552 58 l 564 39 q 567 30 570 28 q 571 30 572 33 q 574 36 577 39 l 589 58 l 598 58 l 573 21 l 573 -5 z m 376 -5 l 376 58 l 400 58 q 403 58 406 56 q 408 55 409 55 q 415 54 417 49 q 420 46 420 40 q 420 36 417 34 q 415 28 411 28 q 415 27 420 22 q 423 16 423 13 q 423 10 422 8 q 421 7 421 6 q 420 0 415 0 q 414 -3 412 -3 q 411 -3 409 -5 l 400 -5 z m 205 -5 l 187 58 l 196 58 l 205 16 q 207 12 207 9 q 207 6 208 3 q 210 10 210 15 l 222 58 l 232 58 l 241 25 q 243 18 244 14 q 246 9 246 3 q 247 6 247 9 q 247 12 249 16 l 259 58 l 267 58 l 249 -5 l 241 -5 l 229 42 q 228 46 228 49 q 226 46 226 42 l 213 -5 z m 123 -5 l 105 58 l 115 58 l 123 16 q 123 9 127 3 q 129 10 129 15 l 141 58 l 150 58 l 160 25 q 162 18 162 14 q 163 9 163 3 q 166 6 166 9 q 166 12 168 16 l 177 58 l 186 58 l 168 -5 l 160 -5 l 148 42 q 147 46 147 49 q 144 46 144 42 l 130 -5 z m 384 30 l 397 30 q 403 30 405 33 q 409 33 409 34 q 411 36 411 40 q 411 45 409 46 l 408 46 q 406 46 406 47 q 406 48 405 48 q 403 49 396 49 l 384 49 z m 285 -5 l 268 58 l 277 58 l 286 16 q 288 12 288 9 q 288 6 291 3 q 291 9 292 11 q 292 13 292 15 l 304 58 l 313 58 l 324 25 q 325 18 326 14 q 327 9 327 3 q 330 6 330 9 q 330 12 331 16 l 342 58 l 349 58 l 331 -5 l 324 -5 l 312 42 q 310 46 310 49 q 307 46 307 42 l 294 -5 z m 664 28 l 682 28 q 685 28 688 29 q 690 30 693 30 q 696 30 696 34 q 697 36 697 40 q 697 45 694 48 q 693 49 684 49 l 664 49 z m 384 1 l 400 1 q 403 1 405 3 l 409 3 q 411 6 414 7 l 414 13 q 414 16 411 19 q 411 22 408 22 l 397 22 l 384 22 z m 435 -5 l 435 58 l 442 58 l 442 -5 z m 985 25 q 985 12 990 7 q 996 1 1006 1 q 1017 1 1021 7 q 1027 12 1027 27 q 1027 34 1026 39 q 1023 46 1018 48 q 1014 49 1006 49 q 997 49 993 45 q 985 39 985 25 z m 976 25 q 976 42 985 49 q 991 58 1006 58 q 1011 58 1014 56 q 1018 55 1021 54 q 1026 52 1028 49 q 1030 46 1033 42 q 1035 39 1035 27 q 1035 13 1032 9 q 1027 1 1021 -3 q 1015 -6 1006 -6 q 1002 -6 998 -6 q 994 -5 990 -3 q 987 0 984 3 q 982 6 981 9 q 979 13 978 17 q 976 21 976 25 z m 592 -5 l 616 58 l 625 58 l 651 -5 l 642 -5 l 634 13 l 609 13 l 600 -5 z m 459 -5 l 459 58 l 466 58 l 466 1 l 495 1 l 495 -5 z m 892 -5 l 892 3 l 903 3 l 903 -5 z m 748 19 l 748 27 l 774 27 l 774 3 q 768 -3 762 -5 q 759 -5 755 -6 q 751 -6 748 -6 q 739 -6 733 -3 q 729 0 726 2 q 723 4 721 9 q 720 13 718 17 q 717 21 717 25 q 717 31 718 34 q 720 37 721 42 q 724 51 732 54 q 735 55 740 56 q 744 58 748 58 q 756 58 760 55 q 766 54 768 49 q 772 45 774 40 l 766 39 q 766 40 762 45 q 762 48 756 49 l 748 49 l 739 49 q 735 48 732 45 q 732 43 727 39 q 727 36 726 33 q 726 30 726 27 q 726 16 729 13 q 735 4 736 3 q 741 1 748 1 q 754 1 759 3 q 762 6 764 6 q 765 6 766 7 l 766 19 z m 657 -5 l 657 58 l 684 58 q 688 58 691 56 q 694 55 697 55 q 702 54 703 49 q 706 46 706 40 q 706 33 702 28 q 700 27 696 26 q 693 25 688 22 q 691 22 692 22 q 693 21 694 21 q 696 18 696 16 q 697 13 700 10 l 712 -5 l 702 -5 l 693 7 q 690 10 689 12 q 688 15 687 16 q 687 19 686 19 q 684 19 682 21 l 681 21 q 679 21 679 22 q 679 22 678 22 l 675 22 l 664 22 l 664 -5 z m 505 -5 l 505 58 l 514 58 l 514 1 l 544 1 l 544 -5 z m 961 16 l 969 15 q 966 3 960 0 q 954 -6 943 -6 q 934 -6 928 -3 q 924 0 922 3 q 921 6 918 9 q 915 21 915 27 q 915 33 918 45 q 925 52 928 54 q 933 55 936 56 q 939 58 943 58 q 948 58 952 56 q 957 55 960 54 q 963 51 965 48 q 967 45 969 40 l 960 39 q 960 45 954 48 q 951 49 943 49 q 934 49 931 48 q 928 46 928 44 q 927 42 924 39 q 924 36 923 33 q 922 30 922 27 q 922 18 927 13 q 927 10 928 8 q 930 6 931 3 q 936 1 943 1 q 951 1 955 6 q 960 10 961 16 z m 1047 -5 l 1047 58 l 1059 58 l 1074 13 q 1074 10 1076 8 q 1077 6 1077 3 q 1077 4 1080 13 l 1093 58 l 1105 58 l 1105 -5 l 1098 -5 l 1098 46 l 1080 -5 l 1072 -5 l 1054 48 l 1054 -5 z m 610 21 l 631 21 l 624 39 q 622 42 622 44 q 622 46 619 49 q 619 45 616 39 z m 352 -5 l 352 3 l 363 3 l 363 -5 z m 844 -5 l 844 58 l 852 58 l 852 1 l 883 1 l 883 -5 z m 787 -5 l 787 58 l 832 58 l 832 49 l 795 49 l 795 30 l 829 30 l 829 22 l 795 22 l 795 1 l 832 1 l 832 -5 z m 565 -5 l 565 21 l 541 58 l 552 58 l 564 39 q 567 30 570 28 q 571 30 572 33 q 574 36 577 39 l 589 58 l 598 58 l 573 21 l 573 -5 z m 376 -5 l 376 58 l 400 58 q 403 58 406 56 q 408 55 409 55 q 415 54 417 49 q 420 46 420 40 q 420 36 417 34 q 415 28 411 28 q 415 27 420 22 q 423 16 423 13 q 423 10 422 8 q 421 7 421 6 q 420 0 415 0 q 414 -3 412 -3 q 411 -3 409 -5 l 400 -5 z m 205 -5 l 187 58 l 196 58 l 205 16 q 207 12 207 9 q 207 6 208 3 q 210 10 210 15 l 222 58 l 232 58 l 241 25 q 243 18 244 14 q 246 9 246 3 q 247 6 247 9 q 247 12 249 16 l 259 58 l 267 58 l 249 -5 l 241 -5 l 229 42 q 228 46 228 49 q 226 46 226 42 l 213 -5 z m 123 -5 l 105 58 l 115 58 l 123 16 q 123 9 127 3 q 129 10 129 15 l 141 58 l 150 58 l 160 25 q 162 18 162 14 q 163 9 163 3 q 166 6 166 9 q 166 12 168 16 l 177 58 l 186 58 l 168 -5 l 160 -5 l 148 42 q 147 46 147 49 q 144 46 144 42 l 130 -5 z m 384 30 l 397 30 q 403 30 405 33 q 409 33 409 34 q 411 36 411 40 q 411 45 409 46 l 408 46 q 406 46 406 47 q 406 48 405 48 q 403 49 396 49 l 384 49 z m 285 -5 l 268 58 l 277 58 l 286 16 q 288 12 288 9 q 288 6 291 3 q 291 9 292 11 q 292 13 292 15 l 304 58 l 313 58 l 324 25 q 325 18 326 14 q 327 9 327 3 q 330 6 330 9 q 330 12 331 16 l 342 58 l 349 58 l 331 -5 l 324 -5 l 312 42 q 310 46 310 49 q 307 46 307 42 l 294 -5 z m 664 28 l 682 28 q 685 28 688 29 q 690 30 693 30 q 696 30 696 34 q 697 36 697 40 q 697 45 694 48 q 693 49 684 49 l 664 49 z m 384 1 l 400 1 q 403 1 405 3 l 409 3 q 411 6 414 7 l 414 13 q 414 16 411 19 q 411 22 408 22 l 397 22 l 384 22 z m 435 -5 l 435 58 l 442 58 l 442 -5 z m 985 25 q 985 12 990 7 q 996 1 1006 1 q 1017 1 1021 7 q 1027 12 1027 27 q 1027 34 1026 39 q 1023 46 1018 48 q 1014 49 1006 49 q 997 49 993 45 q 985 39 985 25 z m 976 25 q 976 42 985 49 q 991 58 1006 58 q 1011 58 1014 56 q 1018 55 1021 54 q 1026 52 1028 49 q 1030 46 1033 42 q 1035 39 1035 27 q 1035 13 1032 9 q 1027 1 1021 -3 q 1015 -6 1006 -6 q 1002 -6 998 -6 q 994 -5 990 -3 q 987 0 984 3 q 982 6 981 9 q 979 13 978 17 q 976 21 976 25 z m 592 -5 l 616 58 l 625 58 l 651 -5 l 642 -5 l 634 13 l 609 13 l 600 -5 z m 459 -5 l 459 58 l 466 58 l 466 1 l 495 1 l 495 -5 z m 892 -5 l 892 3 l 903 3 l 903 -5 z m 748 19 l 748 27 l 774 27 l 774 3 q 768 -3 762 -5 q 759 -5 755 -6 q 751 -6 748 -6 q 739 -6 733 -3 q 729 0 726 2 q 723 4 721 9 q 720 13 718 17 q 717 21 717 25 q 717 31 718 34 q 720 37 721 42 q 724 51 732 54 q 735 55 740 56 q 744 58 748 58 q 756 58 760 55 q 766 54 768 49 q 772 45 774 40 l 766 39 q 766 40 762 45 q 762 48 756 49 l 748 49 l 739 49 q 735 48 732 45 q 732 43 727 39 q 727 36 726 33 q 726 30 726 27 q 726 16 729 13 q 735 4 736 3 q 741 1 748 1 q 754 1 759 3 q 762 6 764 6 q 765 6 766 7 l 766 19 z m 657 -5 l 657 58 l 684 58 q 688 58 691 56 q 694 55 697 55 q 702 54 703 49 q 706 46 706 40 q 706 33 702 28 q 700 27 696 26 q 693 25 688 22 q 691 22 692 22 q 693 21 694 21 q 696 18 696 16 q 697 13 700 10 l 712 -5 l 702 -5 l 693 7 q 690 10 689 12 q 688 15 687 16 q 687 19 686 19 q 684 19 682 21 l 681 21 q 679 21 679 22 q 679 22 678 22 l 675 22 l 664 22 l 664 -5 z m 505 -5 l 505 58 l 514 58 l 514 1 l 544 1 l 544 -5 z m 961 16 l 969 15 q 966 3 960 0 q 954 -6 943 -6 q 934 -6 928 -3 q 924 0 922 3 q 921 6 918 9 q 915 21 915 27 q 915 33 918 45 q 925 52 928 54 q 933 55 936 56 q 939 58 943 58 q 948 58 952 56 q 957 55 960 54 q 963 51 965 48 q 967 45 969 40 l 960 39 q 960 45 954 48 q 951 49 943 49 q 934 49 931 48 q 928 46 928 44 q 927 42 924 39 q 924 36 923 33 q 922 30 922 27 q 922 18 927 13 q 927 10 928 8 q 930 6 931 3 q 936 1 943 1 q 951 1 955 6 q 960 10 961 16 z m 1047 -5 l 1047 58 l 1059 58 l 1074 13 q 1074 10 1076 8 q 1077 6 1077 3 q 1077 4 1080 13 l 1093 58 l 1105 58 l 1105 -5 l 1098 -5 l 1098 46 l 1080 -5 l 1072 -5 l 1054 48 l 1054 -5 z m 175 111 l 187 106 q 184 93 174 84 q 162 75 148 75 q 135 75 123 81 q 111 90 109 99 q 103 109 103 124 q 103 141 109 151 q 114 162 124 166 q 135 172 148 172 q 165 172 171 165 q 181 162 186 145 l 174 144 q 168 156 163 157 q 157 163 148 163 q 136 163 130 157 q 121 151 118 144 q 117 138 117 124 q 117 111 121 105 q 124 94 130 91 q 138 85 147 85 q 159 85 166 93 q 169 96 172 100 q 174 105 175 111 z m 199 123 q 199 135 202 144 q 205 153 213 159 q 219 166 227 169 q 235 172 244 172 q 258 172 268 166 q 277 162 285 150 q 291 135 291 124 q 291 117 290 111 q 288 105 285 99 q 277 87 267 81 q 255 75 244 75 q 237 75 232 76 q 226 78 220 81 q 210 87 205 99 q 199 109 199 123 z m 213 123 q 213 105 220 94 q 231 85 244 85 q 259 85 267 97 q 277 108 277 124 q 277 130 276 134 q 274 139 273 144 q 270 154 261 157 q 256 163 244 163 q 232 163 222 153 q 213 145 213 123 z m 306 78 l 306 171 l 324 171 l 346 105 q 351 96 351 91 q 354 94 357 106 l 381 171 l 396 171 l 396 78 l 384 78 l 384 156 l 357 78 l 345 78 l 318 157 l 318 78 z m 417 78 l 417 171 l 453 171 l 466 171 q 474 171 478 166 q 480 165 486 157 q 487 154 488 151 q 489 148 489 144 q 489 135 481 124 q 474 117 453 117 l 429 117 l 429 78 z m 429 126 l 454 126 q 468 126 469 132 q 475 133 475 144 q 475 151 474 153 q 468 159 463 159 q 462 162 453 162 l 429 162 z m 505 78 l 505 171 l 517 171 l 517 87 l 564 87 l 564 78 z m 579 78 l 579 171 l 648 171 l 648 162 l 591 162 l 591 132 l 643 132 l 643 120 l 591 120 l 591 87 l 649 87 l 649 78 z m 690 78 l 690 162 l 658 162 l 658 171 l 735 171 l 735 162 l 703 162 l 703 78 z m 748 78 l 748 171 l 817 171 l 817 162 l 760 162 l 760 132 l 813 132 l 813 120 l 760 120 l 760 87 l 819 87 l 819 78 z m 870 106 l 882 108 q 882 100 885 97 q 888 91 895 88 q 898 87 909 87 q 912 87 916 87 q 919 87 922 88 q 927 88 930 94 q 931 97 931 103 q 931 108 930 111 q 928 112 926 113 q 924 114 921 117 q 919 117 904 120 q 897 123 892 124 q 888 124 885 126 q 879 129 876 136 q 873 138 872 141 q 871 144 871 147 q 871 156 877 162 q 879 165 882 166 q 885 168 889 171 q 892 172 907 172 q 918 172 924 169 q 928 166 931 164 q 934 163 936 159 q 942 154 942 145 l 930 144 q 927 156 922 157 q 918 162 907 162 q 892 162 889 157 q 885 153 885 147 q 885 142 889 139 q 889 139 907 132 q 915 130 920 128 q 925 127 928 126 q 933 124 935 122 q 937 120 940 117 q 943 112 943 103 q 943 93 940 88 q 934 82 928 79 q 924 78 920 76 q 915 75 909 75 q 903 75 897 76 q 891 78 888 79 q 880 81 873 91 q 870 97 870 106 z m 961 78 l 961 171 l 1029 171 l 1029 162 l 975 162 l 975 132 l 1027 132 l 1027 120 l 975 120 l 975 87 l 1032 87 l 1032 78 z m 1074 78 l 1074 162 l 1044 162 l 1044 171 l 1117 171 l 1117 162 l 1086 162 l 1086 78 z m 112 190 l 112 283 l 150 283 l 163 283 q 166 283 175 280 q 177 279 179 276 q 181 273 183 270 q 186 267 186 259 q 186 246 177 237 q 172 229 150 229 l 127 229 l 127 190 z m 127 241 l 150 241 q 163 241 168 244 q 174 250 174 256 q 174 259 172 262 q 171 265 169 268 q 165 273 162 273 q 160 274 150 274 l 127 274 z m 201 190 l 201 283 l 268 283 l 268 274 l 214 274 l 214 244 l 265 244 l 265 234 l 214 234 l 214 202 l 271 202 l 271 190 z m 288 190 l 288 283 l 331 283 q 345 283 351 282 q 358 279 361 274 q 364 262 364 259 q 364 249 358 243 q 352 237 337 234 q 340 231 342 231 q 343 231 345 229 q 352 222 355 216 l 372 190 l 357 190 l 343 210 q 342 214 340 217 q 337 220 336 223 q 333 225 332 227 q 331 229 330 229 q 327 231 324 231 q 322 234 316 234 l 303 234 l 303 190 z m 303 243 l 327 243 q 339 243 342 244 q 346 249 349 250 q 351 253 351 259 q 351 265 346 270 q 342 274 331 274 l 303 274 z m 381 222 l 391 222 q 391 219 392 216 q 394 213 396 210 q 397 208 400 206 q 402 204 405 204 q 414 201 420 201 q 423 201 426 201 q 429 201 430 202 q 439 205 441 208 q 441 210 442 212 q 442 214 442 216 q 442 222 441 223 q 436 226 430 229 q 429 231 425 231 q 421 231 415 234 q 402 235 396 240 q 388 246 385 249 q 384 253 384 261 q 384 264 384 268 q 385 271 388 274 q 390 280 400 283 q 403 286 417 286 q 429 286 435 283 q 444 279 447 273 q 453 264 453 259 l 441 256 q 438 267 433 270 q 427 276 417 276 q 405 276 400 270 q 396 267 396 261 q 396 255 400 253 q 402 250 417 247 q 430 241 439 241 q 442 238 445 236 q 448 234 450 231 q 454 226 454 217 q 454 210 450 204 q 447 199 444 197 q 442 195 439 192 q 427 189 420 189 q 409 189 397 192 q 393 195 390 197 q 387 199 384 204 q 382 208 382 212 q 381 216 381 222 z m 468 237 q 468 258 480 273 q 493 286 513 286 q 519 286 524 284 q 529 283 537 280 q 543 277 546 272 q 549 268 552 262 q 558 252 558 237 q 558 223 552 211 q 546 201 537 195 q 525 189 513 189 q 499 189 489 196 q 475 204 474 214 q 468 222 468 237 z m 480 237 q 480 219 489 210 q 498 201 513 201 q 528 201 537 210 q 544 220 544 237 q 544 243 544 249 q 543 255 540 259 q 535 267 531 270 q 523 276 513 276 q 505 276 500 274 q 496 271 489 267 q 480 258 480 237 z m 573 190 l 573 283 l 586 283 l 636 211 l 636 283 l 648 283 l 648 190 l 636 190 l 585 264 l 585 190 z m 658 190 l 694 283 l 708 283 l 747 190 l 732 190 l 721 220 l 682 220 l 670 190 z m 684 229 l 717 229 l 708 255 q 705 261 704 266 q 702 271 700 274 q 700 270 698 266 q 697 261 696 256 z m 754 190 l 754 283 l 768 283 l 768 202 l 814 202 l 814 190 z m 922 283 l 934 283 l 934 231 q 934 214 931 208 q 928 199 921 195 q 913 189 898 189 q 883 189 877 195 q 873 196 870 200 q 867 204 864 208 q 862 211 862 231 l 862 283 l 873 283 l 873 231 q 873 216 876 211 q 879 205 883 204 q 886 202 889 202 q 892 201 897 201 q 909 201 916 205 q 922 211 922 231 z m 951 222 l 963 222 q 963 219 964 216 q 966 213 967 210 q 969 208 971 206 q 973 204 976 204 q 985 201 990 201 q 1000 201 1005 202 q 1008 204 1012 208 q 1014 210 1014 216 q 1014 222 1012 223 q 1009 225 1008 226 q 1008 228 1005 229 q 1002 231 998 231 q 993 231 987 234 q 981 235 976 236 q 970 237 969 240 q 961 243 960 249 q 955 253 955 261 q 955 267 960 274 q 961 280 970 283 q 976 286 988 286 q 993 286 998 286 q 1003 286 1006 283 q 1015 279 1020 273 q 1021 270 1022 266 q 1024 262 1024 259 l 1012 256 q 1009 261 1008 264 q 1008 268 1005 270 q 1000 276 988 276 q 975 276 973 270 q 967 268 967 261 q 967 256 970 253 q 973 250 988 247 q 1005 241 1009 241 q 1014 238 1017 236 q 1020 234 1021 231 q 1026 228 1026 217 q 1026 208 1021 204 q 1018 199 1016 197 q 1014 195 1009 192 q 1000 189 993 189 q 985 189 980 190 q 975 190 970 192 q 967 195 964 197 q 960 199 957 204 q 954 208 952 212 q 951 216 951 222 z m 1044 190 l 1044 283 l 1111 283 l 1111 274 l 1057 274 l 1057 244 l 1107 244 l 1107 234 l 1057 234 l 1057 202 l 1113 202 l 1113 190 z m 307 388 q 307 403 285 406 q 282 406 278 407 q 273 408 267 408 l 258 397 l 234 372 q 228 364 222 358 q 217 352 210 348 q 219 345 232 343 q 235 343 240 343 q 246 343 250 345 q 273 346 285 357 q 307 375 307 388 z m 324 433 q 324 439 316 439 q 313 439 291 432 l 274 417 q 271 414 268 408 l 294 412 q 300 412 310 420 q 324 429 324 433 z m 343 460 q 343 457 339 457 q 336 457 335 458 q 334 459 331 459 q 316 456 297 436 q 300 439 304 440 q 307 442 310 444 q 321 445 330 444 q 336 444 336 436 l 336 430 q 328 417 294 409 q 321 406 321 391 q 321 373 292 354 q 282 348 270 344 q 259 340 247 339 q 228 334 217 336 q 208 336 198 340 q 189 334 181 334 l 178 334 q 169 337 163 339 l 168 339 q 180 339 187 345 l 187 346 q 177 340 165 340 q 148 340 139 349 q 124 360 124 381 q 124 387 126 392 q 127 397 130 405 q 141 427 166 444 q 174 451 182 454 q 190 456 198 457 q 214 457 220 451 q 213 456 205 456 q 196 456 186 450 q 171 444 169 441 q 154 433 139 415 q 126 394 126 379 q 126 372 128 368 q 129 363 132 358 q 138 349 148 346 q 153 345 156 344 q 159 343 162 343 q 168 343 172 344 q 177 346 183 349 q 166 361 166 382 q 169 402 190 417 l 187 412 q 184 412 181 406 q 172 397 172 387 q 172 367 195 354 q 207 361 207 363 q 210 367 213 370 q 216 373 219 376 q 222 379 222 384 q 223 388 226 393 l 226 391 q 226 384 225 379 l 243 400 q 289 453 319 462 q 306 466 298 466 q 279 465 256 453 q 229 439 229 420 q 229 414 234 409 q 235 408 235 406 q 226 412 226 421 q 226 438 246 454 q 270 472 297 469 q 306 469 324 463 l 330 463 q 337 463 342 460 z m 346 363 q 345 357 334 346 q 324 340 316 340 q 309 340 309 349 q 309 357 318 369 l 316 369 q 315 367 310 367 q 310 367 309 369 q 313 369 324 379 l 325 379 l 330 385 q 334 390 334 393 l 339 393 q 343 393 343 391 q 343 385 334 375 l 324 364 q 315 351 315 346 q 315 342 321 342 q 328 342 339 357 q 340 358 342 359 q 343 360 346 363 z m 354 405 q 348 396 339 396 q 334 396 328 400 l 333 400 q 343 400 346 411 l 346 414 l 354 411 q 355 409 354 405 z m 406 433 q 406 426 360 370 l 358 370 q 345 354 345 345 q 345 340 349 340 q 358 340 369 355 q 370 357 372 358 q 373 358 375 361 q 375 354 363 345 q 355 339 346 339 q 337 340 337 348 q 336 355 367 394 l 385 417 l 394 426 q 399 432 402 441 q 406 438 406 433 z m 432 433 q 432 427 384 370 q 369 352 369 345 q 369 340 375 340 q 381 340 394 355 l 400 361 q 399 354 387 345 q 379 339 370 339 q 361 340 361 348 q 361 357 391 394 l 409 417 l 418 426 q 426 435 427 441 q 432 438 432 433 z m 403 333 q 379 328 366 315 q 355 301 355 298 q 355 292 361 292 q 363 291 372 294 q 375 297 378 300 q 382 304 387 309 z m 447 430 q 444 409 427 393 q 427 391 426 391 q 426 391 426 390 q 421 384 416 378 q 411 373 406 366 q 403 363 403 360 q 402 363 405 369 q 396 355 396 348 q 396 343 400 343 q 402 343 408 346 q 430 364 439 397 l 439 393 l 439 388 q 442 385 442 381 q 442 378 435 366 l 423 346 l 409 328 q 414 331 426 337 l 424 336 q 421 333 416 329 q 411 325 406 318 l 394 303 l 388 295 q 379 286 369 283 q 360 283 355 289 q 346 292 352 303 q 354 304 356 307 q 357 310 360 313 l 361 315 l 351 313 q 376 331 393 333 q 394 333 396 334 q 397 334 399 334 l 400 334 l 403 334 l 412 348 q 406 342 402 341 q 397 340 394 340 q 387 340 387 348 q 387 366 418 394 l 421 396 l 436 411 q 439 417 442 422 q 445 426 447 430 z m 618 453 q 609 456 603 456 q 588 456 575 452 q 562 448 549 441 q 543 438 539 434 q 535 430 531 427 q 549 426 579 408 q 612 441 636 450 z m 649 447 q 643 445 636 443 q 630 441 622 433 q 618 430 600 412 l 589 402 l 604 393 q 607 397 613 404 q 619 411 627 420 z m 663 472 q 663 471 661 469 q 661 459 657 448 l 658 447 l 657 447 q 649 429 637 417 l 613 388 q 616 387 618 387 q 619 387 622 385 q 622 382 621 382 q 618 382 616 383 q 615 384 612 385 q 594 366 592 349 q 589 343 589 340 q 589 334 595 334 q 607 334 621 354 l 627 363 q 642 384 646 400 l 646 405 q 646 403 648 402 l 648 400 q 645 379 633 361 l 613 322 q 613 328 618 342 q 600 328 591 328 q 577 328 580 346 q 580 355 586 366 q 592 378 601 391 l 586 399 l 573 385 q 568 379 560 370 q 552 361 540 346 q 516 322 498 322 l 493 322 q 489 322 480 327 q 480 327 483 327 q 496 324 510 337 q 498 331 481 331 q 465 331 454 339 l 456 339 q 441 349 441 370 q 441 385 447 393 q 456 417 481 433 q 490 441 498 443 q 507 445 516 447 q 531 447 537 441 l 535 441 q 532 444 522 444 q 507 444 484 430 q 468 418 456 405 q 442 384 442 367 q 442 343 465 336 q 474 333 478 333 q 510 334 547 375 l 576 405 q 553 418 525 418 l 523 418 q 520 412 520 405 q 522 405 528 396 q 517 402 517 411 q 517 415 519 418 q 504 415 499 412 q 472 402 475 381 q 475 367 484 357 l 487 354 q 469 372 469 385 q 469 405 487 418 q 502 429 525 429 q 546 453 577 457 q 585 459 601 459 q 609 459 624 456 l 642 451 l 651 451 l 652 450 q 658 460 661 475 l 663 475 z m 682 375 q 682 370 681 367 q 673 360 668 354 q 663 348 658 340 l 660 340 l 661 340 q 660 339 658 339 q 657 339 657 337 q 649 337 649 340 q 649 346 663 360 q 673 373 673 376 q 675 381 669 385 q 651 360 637 354 l 631 351 l 628 352 q 634 352 648 367 q 661 379 666 387 q 666 388 665 388 q 664 388 664 390 q 664 391 675 400 q 675 402 676 402 l 678 400 q 678 399 670 388 q 682 384 682 375 z m 726 379 q 726 388 720 385 q 714 385 711 382 q 706 379 697 367 q 688 355 688 348 q 687 345 691 345 q 700 348 706 355 q 712 367 712 372 q 712 375 711 375 q 717 375 717 367 l 715 364 q 718 367 720 371 q 723 375 726 378 z m 754 393 q 748 393 741 385 q 735 378 729 369 q 723 360 715 348 q 708 333 702 324 q 696 316 694 313 q 675 289 664 289 q 655 288 651 295 q 651 303 651 303 q 651 310 657 316 q 654 315 649 315 q 664 330 682 334 q 684 334 684 335 q 685 336 688 336 l 690 334 q 661 325 655 307 q 654 304 654 300 q 654 298 655 297 q 655 295 657 295 q 669 294 685 318 l 696 333 l 702 342 q 697 340 694 340 q 682 340 682 352 q 682 366 702 384 q 711 393 718 393 q 729 393 729 381 l 730 381 l 738 390 q 745 397 751 397 q 756 397 759 393 z m 781 382 q 781 373 765 364 q 763 363 762 363 l 760 363 q 756 363 751 370 q 754 367 759 367 q 769 373 772 384 l 772 387 l 772 388 l 772 390 q 766 390 753 376 l 753 375 q 748 369 748 365 q 747 361 747 358 q 745 360 745 367 q 742 361 741 357 q 738 351 738 346 q 738 345 739 343 q 739 340 745 340 q 760 346 771 355 q 774 358 778 361 q 775 357 772 353 q 769 349 762 345 q 750 337 741 340 q 741 339 739 340 q 730 340 730 349 q 730 364 747 379 q 756 393 771 393 q 774 393 775 391 q 781 387 781 382 z m 841 433 q 841 427 793 370 q 780 354 780 345 q 780 340 784 340 q 793 340 804 355 q 805 357 806 358 q 808 358 810 361 q 810 354 798 345 q 790 339 780 339 q 772 342 772 348 q 772 360 801 394 l 819 417 l 828 426 q 837 435 837 441 q 841 438 841 433 z m 922 387 q 897 396 895 415 q 888 411 880 407 q 873 403 868 399 q 840 372 840 349 q 840 340 844 339 l 847 339 l 850 339 q 873 339 892 354 q 898 360 906 368 q 915 375 922 387 z m 952 430 l 940 430 q 922 429 897 417 q 900 396 925 391 l 936 405 z m 979 457 q 960 457 944 454 q 928 451 916 444 q 924 451 935 456 q 946 460 960 463 q 930 465 907 445 q 903 442 897 430 q 907 433 917 434 q 927 436 939 435 q 942 435 946 435 q 951 435 958 433 q 961 438 966 444 q 972 450 979 457 z m 1074 459 q 1071 454 1067 450 q 1063 447 1056 444 q 1044 436 1033 436 l 1030 436 q 1029 436 1027 438 q 1029 439 1029 440 q 1029 442 1032 445 q 1018 456 994 456 l 988 448 l 973 430 q 985 429 996 428 q 1006 426 1015 426 q 1036 426 1044 430 q 1038 424 1021 421 q 1008 418 994 423 l 970 427 q 964 420 959 414 q 954 409 951 403 l 940 388 l 948 388 q 985 391 991 406 l 993 406 q 988 397 973 390 q 966 387 959 386 q 952 384 946 384 l 939 384 q 928 372 922 363 q 915 354 909 348 q 889 327 873 327 q 865 328 856 328 q 871 328 888 343 q 867 334 855 334 l 846 336 l 858 324 q 846 330 838 337 q 837 337 831 340 q 813 354 811 375 q 811 382 811 388 q 811 394 814 400 q 819 414 826 424 q 834 433 844 444 q 870 466 889 466 q 900 466 907 460 l 906 459 q 901 463 892 463 q 873 460 852 444 q 834 429 825 414 q 813 393 813 375 q 816 348 837 340 q 834 349 835 358 q 838 381 852 397 q 868 418 897 430 q 900 433 900 439 l 913 453 q 933 469 964 469 q 972 469 977 469 q 982 469 990 468 l 991 468 q 1002 475 1010 479 q 1018 483 1027 481 q 1033 481 1036 478 q 1020 475 1020 475 q 1017 474 1013 472 q 1009 471 1005 468 q 1011 466 1017 466 q 1023 465 1030 462 q 1045 457 1054 457 q 1068 457 1074 459 z m 982 354 q 978 358 978 364 q 978 367 978 370 q 979 372 979 375 q 964 355 966 346 q 966 343 969 343 q 972 343 982 354 z m 1002 385 q 1002 388 999 388 q 996 388 993 387 q 991 385 988 379 q 981 364 981 360 q 981 355 982 354 l 987 358 l 987 360 l 987 358 q 988 360 988 360 q 988 361 990 363 q 993 372 993 375 q 993 376 991 378 q 994 372 994 370 q 999 375 1002 385 z m 1008 381 q 1008 373 997 358 q 984 345 978 340 l 966 340 q 957 340 957 348 q 957 360 973 379 q 984 393 997 393 q 1008 393 1008 381 z m 1057 384 q 1059 381 1051 367 q 1042 355 1039 352 l 1021 336 q 1011 325 1008 313 q 1009 331 1021 345 q 1027 351 1030 356 q 1033 360 1036 366 q 1038 367 1039 372 l 1039 367 q 1039 367 1038 364 q 1041 367 1047 379 q 1047 381 1048 382 q 1048 382 1048 384 q 1048 391 1041 388 q 1041 388 1029 379 q 1026 372 1020 366 q 1015 361 1009 354 q 1002 345 1000 340 q 999 339 993 327 q 993 330 992 334 q 991 337 993 340 q 996 351 1006 361 l 1015 372 q 1023 382 1023 388 q 1023 390 1022 392 q 1021 393 1021 394 q 1030 391 1030 385 q 1039 393 1050 393 q 1056 390 1057 384 z m 1116 405 l 1093 405 q 1092 402 1084 393 q 1075 384 1063 367 q 1060 367 1057 360 q 1051 352 1051 345 q 1051 340 1054 340 q 1062 340 1075 355 l 1077 357 q 1078 358 1078 359 q 1078 360 1080 361 q 1080 354 1069 345 q 1062 339 1051 339 q 1044 342 1042 348 q 1042 351 1048 363 l 1066 384 l 1083 405 l 1057 408 q 1051 409 1042 409 l 1029 409 q 1011 409 993 402 l 991 402 q 1006 417 1038 417 q 1039 417 1050 414 q 1062 412 1083 409 l 1087 408 q 1092 415 1096 420 q 1099 426 1102 430 q 1105 429 1105 423 q 1105 418 1102 415 l 1096 406 l 1108 405 l 1117 405 l 1119 405 l 1123 405 z m 1126 385 q 1126 381 1116 376 l 1114 375 q 1119 379 1119 387 l 1119 393 l 1114 393 q 1107 393 1105 387 q 1105 384 1110 361 q 1111 340 1086 340 q 1072 340 1069 349 q 1068 351 1068 354 q 1068 366 1086 369 l 1092 367 l 1089 367 q 1083 367 1080 364 q 1075 357 1075 354 q 1075 342 1087 342 q 1099 342 1099 358 q 1099 366 1098 370 q 1096 375 1096 381 q 1096 396 1110 396 q 1113 396 1114 395 q 1116 394 1119 394 q 1125 391 1125 390 q 1126 388 1126 385 z"},"e":{"x_min":0,"x_max":172,"ha":172,"o":"m 70 26 q 87 27 104 38 q 122 50 138 66 q 155 82 169 100 q 183 119 194 134 q 199 141 207 136 q 215 130 209 122 q 202 114 187 94 q 172 73 152 52 q 132 31 108 14 q 85 -2 61 -2 q 25 -2 11 16 q -3 35 -1 63 q 1 91 16 122 q 30 153 53 179 l 54 180 q 74 202 94 213 q 114 224 130 225 q 147 226 158 218 q 170 210 173 194 q 179 176 169 154 q 159 133 140 114 q 121 96 96 84 q 72 72 50 74 q 42 53 44 38 q 47 24 70 26 z m 62 97 q 83 96 100 106 q 118 116 130 131 q 142 146 148 162 q 155 177 154 188 q 154 199 147 201 q 140 203 125 190 q 105 173 91 146 q 77 118 62 97 z"},"b":{"x_min":0,"x_max":235,"ha":235,"o":"m 120 197 q 142 219 178 219 q 184 219 191 216 q 198 213 204 208 q 211 203 214 196 q 218 188 216 178 q 213 139 194 104 q 174 69 144 43 q 172 49 194 66 q 216 84 231 102 l 261 138 q 263 142 266 142 q 270 142 273 140 q 276 137 278 134 q 279 130 276 126 q 270 115 262 106 q 255 97 248 88 q 238 74 224 62 q 209 51 191 41 q 173 30 154 24 q 134 18 114 20 q 109 16 96 10 q 84 4 70 1 q 56 -2 44 1 q 32 4 28 18 q 21 4 20 0 q 18 -3 14 -3 q 4 -3 -2 4 q -9 10 -12 19 q -16 28 -16 37 q -17 46 -14 51 q -4 77 12 113 q 29 149 50 188 q 70 227 94 266 q 118 305 144 338 q 169 371 194 394 q 220 418 244 426 q 252 428 261 424 q 270 421 276 414 q 283 406 286 396 q 289 386 286 375 q 264 323 224 284 q 184 246 127 210 z m 152 197 q 139 197 124 181 q 108 165 93 140 q 82 122 80 102 q 78 81 90 60 l 97 51 q 119 75 140 109 q 161 143 165 181 q 167 190 162 194 q 156 197 152 197 z m 267 393 q 245 388 216 352 q 188 316 146 240 q 173 262 198 289 q 224 316 242 340 q 260 364 268 380 q 276 395 267 393 z m 55 26 q 66 26 79 36 q 62 53 62 86 l 51 65 q 43 42 45 34 q 47 26 55 26 z"},"m":{"x_min":0,"x_max":380,"ha":380,"o":"m 23 25 q 17 8 10 4 q 4 -1 5 -1 q -5 -1 -11 6 q -17 12 -20 21 q -22 30 -22 38 q -22 47 -20 51 q -12 67 2 92 q 15 118 28 144 q 41 170 51 192 q 61 215 62 226 q 59 232 70 230 q 80 228 92 221 q 104 214 112 204 q 121 194 114 184 q 113 181 110 175 q 108 169 102 161 q 126 189 150 208 q 174 226 200 223 q 230 221 234 190 q 234 174 222 150 q 248 182 273 204 q 298 226 330 224 q 359 221 361 191 q 363 177 355 158 q 347 139 336 119 q 324 99 312 80 q 301 62 296 50 q 290 40 290 34 q 291 29 296 28 q 300 27 306 30 q 313 33 318 39 q 325 46 337 58 q 349 70 362 84 q 375 98 387 112 q 399 126 406 137 q 414 145 421 142 q 428 138 422 128 q 410 110 394 88 q 377 65 359 46 q 341 26 322 12 q 304 -1 288 -1 q 264 -2 251 12 q 238 26 240 49 q 243 61 256 84 q 268 108 280 132 q 292 156 298 174 q 305 191 296 191 q 290 191 276 180 q 263 170 247 154 q 231 139 216 120 q 200 102 189 86 q 179 68 170 52 q 161 36 153 25 q 144 8 142 4 q 139 -1 135 -1 q 124 -1 118 6 q 112 12 109 21 q 106 30 106 38 q 106 47 108 51 q 121 78 137 106 q 153 133 164 162 q 170 174 172 182 q 174 190 168 190 q 161 190 148 180 q 134 169 118 153 q 101 137 85 118 q 69 100 58 85 z"},"n":{"x_min":0,"x_max":246,"ha":246,"o":"m 18 25 q 10 8 6 4 q 1 -1 0 -1 q -10 -1 -16 6 q -22 12 -24 21 q -27 30 -27 38 q -27 47 -25 51 q -16 67 -2 92 q 11 117 24 144 q 36 170 46 192 q 56 215 58 226 q 57 232 66 230 q 76 228 87 221 q 98 214 106 204 q 114 194 110 184 q 107 180 102 171 q 98 162 91 150 q 118 181 141 204 q 164 226 194 224 q 223 223 225 191 q 227 177 220 158 q 212 139 201 119 q 190 99 178 80 q 167 62 162 50 q 156 40 156 34 q 157 29 161 28 q 165 27 172 30 q 178 33 184 39 q 191 46 202 58 q 214 70 226 84 q 239 97 251 112 q 263 126 270 137 q 278 146 285 142 q 292 137 288 128 q 276 110 260 88 q 243 65 224 46 q 206 26 187 12 q 168 -1 152 -1 q 128 -2 115 12 q 102 26 105 49 q 106 61 118 84 q 131 108 144 132 q 157 156 164 174 q 170 191 160 191 q 154 191 140 180 q 126 170 110 154 q 94 139 79 120 q 64 102 55 86 z"},"h":{"x_min":0,"x_max":246,"ha":246,"o":"m 122 210 q 113 194 106 180 q 99 167 90 151 q 113 182 140 204 q 168 226 195 224 q 225 221 227 191 q 229 177 220 158 q 212 140 200 120 q 189 101 178 84 q 166 66 162 53 q 156 42 156 36 q 157 31 162 30 q 166 29 172 32 q 178 35 184 42 q 191 49 203 60 q 215 71 228 84 q 240 97 252 111 q 264 125 272 137 q 279 146 286 142 q 293 137 288 128 q 277 110 260 88 q 244 65 226 46 q 207 26 188 12 q 170 -1 154 -1 q 130 -2 117 12 q 104 26 107 49 q 108 61 120 84 q 133 108 146 132 q 158 156 165 174 q 172 191 162 191 q 154 191 141 180 q 128 168 112 152 q 97 135 82 116 q 66 97 54 82 l 25 23 q 19 5 16 1 q 12 -3 9 -3 q -1 -3 -8 4 q -14 10 -18 19 q -21 28 -22 37 q -22 46 -20 51 q -9 77 8 112 q 25 148 46 187 q 66 226 90 266 q 114 305 139 338 q 164 371 189 394 q 214 418 238 426 q 246 428 255 424 q 264 421 270 414 q 277 406 280 396 q 284 386 281 375 q 258 323 218 284 q 179 246 122 210 z m 261 393 q 240 388 210 352 q 181 316 141 240 q 168 262 194 289 q 220 316 238 340 q 256 363 264 378 q 271 394 261 393 z"},"z":{"x_min":0,"x_max":210,"ha":210,"o":"m 19 128 q 34 150 48 171 q 63 192 79 208 q 95 225 114 236 q 134 246 158 247 q 163 247 170 246 q 178 244 184 240 q 191 236 196 230 q 201 223 201 214 q 203 192 194 170 q 184 147 168 126 q 151 106 130 89 q 108 72 86 62 q 97 51 106 38 q 114 26 120 14 q 166 50 192 80 q 218 111 228 125 q 236 133 241 126 q 246 120 246 114 q 232 97 206 62 q 180 28 130 -12 q 136 -38 136 -67 q 136 -96 126 -128 q 120 -167 93 -210 q 66 -254 33 -287 q 0 -323 -38 -344 q -77 -365 -122 -362 q -149 -362 -174 -338 q -200 -313 -206 -275 q -211 -229 -194 -196 q -177 -164 -148 -140 q -118 -115 -80 -97 q -42 -79 -4 -63 q 41 -41 81 -15 q 76 8 64 29 q 52 50 32 64 q 29 67 37 77 q 45 87 51 89 q 72 99 88 114 q 105 130 117 148 q 129 165 135 181 q 141 197 140 207 q 138 214 130 214 q 123 214 113 208 q 103 202 92 192 q 82 182 74 169 q 71 166 66 159 q 60 152 54 144 q 48 137 42 130 q 36 122 32 116 q 24 110 18 115 q 12 120 19 128 z m 80 -103 q 82 -89 84 -74 q 85 -60 85 -44 q 65 -57 44 -70 q 22 -83 -2 -95 q -33 -110 -67 -128 q -101 -147 -128 -170 q -156 -194 -172 -222 q -188 -251 -184 -286 q -182 -292 -178 -302 q -173 -311 -166 -320 q -158 -329 -148 -336 q -137 -342 -122 -342 q -101 -342 -72 -326 q -44 -309 -16 -278 q 13 -247 38 -203 q 64 -159 80 -103 z"},"B":{"x_min":0,"x_max":698,"ha":698,"o":"m 280 92 l 297 150 q 289 151 278 152 q 266 152 261 154 q 249 156 236 164 q 224 171 226 185 q 229 192 240 197 q 251 202 265 206 q 279 209 294 211 q 309 213 320 215 q 321 217 322 220 q 322 223 324 225 q 271 225 210 232 q 150 239 100 258 q 51 277 22 309 q -8 341 2 391 q 8 426 37 455 q 66 484 110 495 q 122 498 142 498 q 163 498 184 494 q 206 489 226 480 q 246 470 256 454 q 265 440 268 438 q 270 435 272 442 q 275 449 280 464 q 284 480 296 501 q 324 550 378 576 q 431 601 491 602 q 552 603 606 589 q 661 575 702 550 q 743 524 768 488 q 794 452 797 409 q 799 389 794 368 q 788 346 778 322 q 766 293 736 270 q 705 246 668 228 q 631 210 592 198 q 553 185 525 178 q 555 177 579 164 q 603 152 618 131 q 632 110 634 83 q 637 56 624 26 q 613 -2 583 -25 q 553 -48 512 -65 q 471 -82 423 -92 q 375 -103 327 -107 q 279 -111 236 -108 q 192 -104 160 -93 q 128 -82 112 -62 q 95 -43 102 -14 q 107 8 125 24 q 143 40 168 52 q 194 63 224 70 q 254 77 283 80 q 312 84 338 84 q 363 85 379 83 q 385 81 394 78 q 402 76 408 71 q 414 63 416 61 q 418 59 416 59 q 415 59 412 61 q 409 63 405 64 q 382 68 340 65 q 299 62 258 52 q 216 41 184 22 q 153 3 151 -24 q 151 -35 158 -43 q 164 -51 174 -56 q 184 -62 196 -65 q 207 -68 217 -69 q 252 -76 288 -74 q 323 -73 358 -68 q 386 -63 424 -54 q 461 -45 496 -30 q 531 -15 558 7 q 586 29 594 60 q 599 79 590 98 q 580 116 563 132 q 546 147 525 158 q 504 168 487 171 q 449 164 408 160 q 368 156 331 153 l 344 180 l 409 186 q 408 186 408 186 q 407 187 406 187 q 395 189 378 189 q 360 189 349 189 l 364 213 q 391 215 418 210 q 446 205 472 202 q 474 202 477 200 q 480 197 482 198 q 512 204 550 215 q 589 226 626 243 q 664 260 696 283 q 727 306 743 335 q 764 375 752 413 q 741 451 706 480 q 672 509 619 527 q 566 545 504 545 q 471 545 440 539 q 408 533 380 520 q 352 506 328 484 q 305 462 289 431 q 281 403 274 400 q 266 396 255 409 q 226 438 193 442 q 160 446 132 434 q 104 422 85 399 q 66 376 65 351 q 63 319 91 300 q 119 281 160 271 q 202 261 250 258 q 297 254 335 254 q 358 309 382 352 q 406 394 429 407 q 436 410 445 407 q 454 404 461 398 q 468 392 470 384 q 472 377 465 371 q 399 311 360 238 q 321 166 302 96 z m 387 250 q 427 253 458 255 q 488 257 504 257 q 520 257 519 255 q 518 253 496 248 q 485 246 466 242 q 448 239 422 235 q 414 235 401 234 q 388 232 377 231 z m 306 175 l 309 186 l 269 177 q 274 175 285 175 q 296 175 306 175 z"},"K":{"x_min":0,"x_max":771,"ha":771,"o":"m 631 264 q 701 327 768 384 q 834 440 912 494 q 924 500 942 500 q 960 500 974 497 q 989 494 996 488 q 1002 482 992 476 q 927 440 872 402 q 816 363 767 326 q 718 288 676 252 q 633 217 595 187 z m 459 -43 q 478 -37 506 -28 q 535 -20 568 -12 q 601 -3 636 4 q 670 10 700 12 q 756 14 784 0 q 811 -14 825 -34 q 825 -39 822 -39 q 816 -39 810 -36 q 804 -34 798 -33 q 763 -26 717 -29 q 671 -32 622 -40 q 574 -48 528 -58 q 482 -69 448 -76 z m 389 -168 q 380 -168 376 -162 q 373 -155 373 -148 q 373 -132 378 -118 q 383 -103 390 -86 q 372 -85 352 -76 q 333 -68 333 -46 q 333 -28 344 -4 q 355 19 378 39 q 415 72 451 106 q 487 140 525 175 q 541 204 558 242 q 574 281 586 320 q 599 359 606 394 q 612 429 608 450 q 604 472 592 490 q 580 509 560 520 q 541 530 514 532 q 488 534 455 524 q 422 515 392 492 q 362 470 340 440 q 317 409 304 374 q 292 339 295 305 q 292 271 284 264 q 277 258 260 272 q 223 294 186 294 q 149 294 120 280 q 91 265 73 240 q 55 215 56 187 q 57 154 75 132 q 93 110 122 96 q 150 83 186 77 q 221 71 258 72 q 294 72 328 78 q 363 83 388 92 q 400 96 400 88 q 401 81 395 79 q 319 53 248 50 q 177 46 122 62 q 67 79 33 114 q -1 149 -2 200 q -2 215 2 234 q 7 252 16 270 q 26 288 40 303 q 55 318 75 327 q 87 333 110 338 q 133 343 159 344 q 185 345 210 342 q 234 338 249 327 q 267 315 270 313 q 274 311 273 320 q 272 329 271 348 q 270 368 278 397 q 287 434 308 468 q 328 501 356 526 q 384 552 418 568 q 452 585 488 589 q 533 593 575 580 q 617 566 641 528 q 663 489 660 440 q 657 390 639 336 q 621 282 592 226 q 564 170 534 119 q 504 68 478 24 q 452 -19 439 -49 q 416 -100 406 -134 q 397 -168 389 -168 z m 468 82 q 460 74 442 55 q 424 36 406 14 q 387 -8 373 -28 q 359 -49 359 -61 l 402 -53 z"},"R":{"x_min":0,"x_max":764,"ha":764,"o":"m 312 -37 l 273 -147 q 272 -149 270 -156 q 267 -163 264 -162 q 253 -160 249 -150 q 245 -139 247 -130 q 250 -117 254 -100 q 259 -84 264 -48 q 258 -47 250 -50 q 241 -53 235 -51 q 226 -50 220 -38 q 214 -27 216 -18 q 218 -6 230 -3 q 242 0 249 6 q 241 24 230 41 q 218 58 204 69 l 110 146 q 62 184 34 228 q 7 272 7 327 q 7 357 17 386 q 27 414 46 436 q 64 459 92 474 q 119 488 155 490 q 174 491 194 485 q 214 479 230 466 q 246 452 256 432 q 267 411 268 384 q 269 361 272 358 q 276 356 283 368 q 290 379 302 402 q 314 424 333 451 q 353 479 379 503 q 405 527 435 544 q 465 561 498 571 q 530 581 563 581 q 616 582 662 566 q 709 551 742 522 q 774 494 790 456 q 805 417 796 372 q 786 323 757 278 q 728 232 687 191 q 646 150 597 115 q 548 80 498 51 q 447 22 399 0 q 351 -23 312 -37 z m 505 37 q 532 35 562 32 q 591 28 619 20 q 647 13 671 0 q 695 -14 712 -36 q 717 -41 722 -49 q 727 -57 725 -67 l 725 -69 q 725 -70 724 -70 q 724 -71 724 -72 q 716 -70 706 -58 q 696 -45 688 -39 q 660 -21 626 -14 q 591 -7 559 -2 q 544 0 513 3 q 482 6 455 6 z m 461 66 q 500 86 546 116 q 593 147 634 187 q 675 227 706 274 q 736 322 744 377 q 749 418 730 446 q 710 474 680 490 q 649 507 614 514 q 580 521 556 520 q 520 519 480 505 q 441 491 405 468 q 369 444 339 414 q 309 384 292 350 q 272 320 263 317 q 254 314 251 335 q 240 375 218 396 q 196 417 171 420 q 146 424 122 412 q 97 399 82 374 q 71 357 68 336 q 64 316 66 296 q 67 275 74 256 q 80 237 89 223 q 92 217 96 210 q 101 203 113 190 q 125 176 148 154 q 170 132 209 96 q 225 79 240 60 q 254 40 267 17 l 309 22 q 329 65 350 113 q 371 161 392 208 q 414 254 434 296 q 454 339 472 373 q 490 407 504 429 q 519 451 530 456 q 536 458 544 452 q 551 447 558 439 q 564 431 567 422 q 570 414 567 409 l 343 31 q 377 35 406 37 z"},"T":{"x_min":0,"x_max":683,"ha":683,"o":"m 295 290 q 251 291 226 310 q 202 328 194 354 q 186 379 193 408 q 200 436 220 456 q 240 477 271 486 q 302 494 341 480 q 353 475 359 472 q 365 470 366 472 q 368 473 366 480 q 365 486 363 499 q 357 536 359 571 q 361 606 374 634 q 387 662 412 680 q 436 698 475 701 q 514 686 538 651 q 562 616 574 568 q 587 521 590 466 q 594 412 592 358 q 590 303 584 254 q 579 204 574 167 q 594 214 614 250 q 633 285 652 314 q 672 342 690 366 q 709 390 726 414 q 730 414 741 412 q 752 410 764 406 q 775 403 784 399 q 792 395 791 391 q 752 347 710 298 q 667 250 632 188 q 597 125 574 45 q 552 -35 553 -141 q 553 -146 546 -144 q 538 -141 529 -131 q 520 -121 514 -104 q 507 -87 509 -64 q 514 -2 526 44 q 538 89 549 133 q 549 137 550 158 q 551 179 552 211 q 552 243 552 283 q 552 323 550 365 q 464 333 396 312 q 328 290 295 290 z m 464 634 q 437 633 420 616 q 404 599 395 574 q 386 550 384 522 q 382 494 384 471 q 386 450 384 442 q 382 433 360 446 q 334 458 312 456 q 291 455 275 445 q 259 435 250 420 q 241 404 240 388 q 239 359 258 340 q 276 322 302 321 q 320 320 346 326 q 371 332 402 342 q 434 353 471 368 q 508 382 548 399 q 545 444 540 487 q 534 530 524 563 q 515 596 500 616 q 485 635 464 634 z m 619 428 q 679 452 742 475 q 804 498 865 515 q 926 532 982 540 q 1039 547 1086 540 q 1099 538 1114 532 q 1128 526 1140 517 q 1153 508 1162 494 q 1172 481 1176 464 q 1175 458 1171 462 q 1136 493 1075 496 q 1014 500 939 486 q 864 472 780 446 q 697 419 617 390 z"},"P":{"x_min":0,"x_max":750,"ha":750,"o":"m 100 246 q 61 262 40 290 q 19 317 14 349 q 10 381 21 414 q 32 446 56 472 q 78 496 110 509 q 142 522 173 520 q 204 519 230 502 q 255 484 265 447 q 266 426 267 422 q 268 419 274 428 q 279 436 290 454 q 302 472 323 494 q 371 545 432 570 q 492 596 556 594 q 620 592 678 572 q 737 551 778 515 q 819 479 838 428 q 856 378 840 315 q 830 276 804 241 q 779 206 746 176 q 713 147 676 124 q 639 101 606 85 q 585 75 561 64 q 537 53 511 44 q 485 35 458 30 q 431 25 403 27 q 394 28 390 31 q 387 34 386 37 q 386 40 388 43 q 389 46 390 47 q 388 45 393 45 q 398 45 404 46 q 411 47 417 48 q 423 49 425 49 q 481 55 542 82 q 604 108 658 147 q 711 186 748 234 q 786 283 794 333 q 802 381 780 418 q 758 456 720 482 q 681 509 633 523 q 585 537 542 538 q 504 539 465 530 q 426 520 391 502 q 356 485 328 460 q 299 436 282 406 q 261 378 252 376 q 244 373 242 393 q 232 430 212 446 q 191 462 167 462 q 143 463 120 450 q 96 437 80 415 q 65 394 61 370 q 57 347 64 326 q 70 304 86 287 q 103 270 129 261 l 232 226 q 253 219 274 208 q 296 197 313 182 q 330 166 340 144 q 350 123 348 94 q 384 174 417 231 q 450 288 476 324 q 501 361 518 380 q 536 399 541 402 q 563 393 572 385 q 580 377 580 370 q 579 362 572 355 q 566 348 559 341 q 551 334 534 317 q 518 300 492 264 q 465 229 430 172 q 394 115 348 28 q 346 22 342 6 q 337 -10 330 -30 q 323 -51 314 -74 q 306 -96 298 -115 q 289 -134 280 -146 q 272 -157 265 -156 q 256 -155 252 -148 q 249 -141 247 -134 q 251 -111 258 -91 q 265 -71 276 -48 l 325 50 q 334 107 312 140 q 291 174 254 194 q 218 213 176 224 q 133 234 100 246 z"},"t":{"x_min":0,"x_max":154,"ha":154,"o":"m -3 81 q 2 93 16 120 q 29 148 46 182 q 64 217 84 254 q 104 292 122 324 q 106 321 89 318 q 72 314 57 310 q 45 308 48 314 q 50 319 82 333 q 94 338 107 342 q 120 347 134 352 q 143 371 148 384 q 154 397 151 401 q 149 407 158 406 q 166 406 176 402 q 187 397 196 388 q 205 378 205 366 q 221 372 241 380 q 261 387 280 390 q 300 394 318 390 q 336 387 349 372 q 364 354 360 344 q 355 334 349 339 q 329 353 310 356 q 291 358 272 355 q 254 352 234 345 q 214 338 193 334 q 185 318 172 293 q 159 268 144 240 q 130 212 115 183 q 100 154 87 129 q 74 104 64 86 q 54 67 50 60 q 40 39 48 34 q 57 28 70 30 q 78 31 92 42 q 105 52 120 68 q 135 83 151 102 q 167 120 180 137 q 186 145 194 141 q 203 137 196 128 q 185 109 168 87 q 151 65 132 46 q 112 27 92 14 q 73 1 58 0 q 33 -2 20 8 q 8 17 2 30 q -3 44 -3 58 q -3 73 -3 81 z"},"M":{"x_min":0,"x_max":1083,"ha":1083,"o":"m 434 519 q 405 512 377 492 q 349 473 327 448 q 305 422 292 394 q 278 365 279 341 q 274 311 267 306 q 260 301 246 314 q 216 335 184 338 q 152 340 126 330 q 99 320 82 301 q 64 282 62 260 q 59 224 74 202 q 89 181 116 170 q 143 160 180 160 q 216 160 257 168 q 298 176 340 191 q 383 206 421 226 q 432 231 438 226 q 443 220 438 218 q 373 184 324 165 q 276 146 240 138 q 204 130 179 129 q 154 128 136 130 q 100 133 74 148 q 47 163 30 186 q 14 210 9 239 q 4 268 12 299 q 19 325 40 348 q 61 370 94 384 q 104 388 123 391 q 142 394 163 393 q 184 392 205 385 q 226 378 240 362 q 252 348 256 346 q 259 344 260 352 q 260 361 262 379 q 263 397 271 423 q 283 460 310 496 q 338 533 376 558 q 413 584 458 592 q 504 601 552 582 q 597 564 611 530 q 625 497 618 456 q 612 414 591 368 q 570 323 545 281 l 372 -11 q 361 -33 355 -46 q 349 -58 346 -64 q 343 -71 342 -74 q 341 -76 341 -77 l 623 248 q 630 256 641 268 q 652 281 664 294 q 677 306 690 316 q 702 327 711 331 q 731 339 737 323 q 743 307 740 278 q 737 248 728 210 q 719 173 710 139 q 702 105 697 80 q 692 56 696 52 q 705 52 728 77 q 750 102 788 148 q 826 193 882 256 q 938 320 1014 397 l 1094 471 q 1099 476 1110 486 q 1121 496 1134 506 q 1147 515 1159 522 q 1171 530 1179 530 q 1187 530 1188 526 q 1217 507 1222 490 q 1227 474 1222 466 q 1163 368 1120 298 q 1077 227 1048 173 q 1020 119 1006 76 q 991 34 989 -8 q 988 -25 990 -34 q 991 -44 985 -45 q 974 -46 968 -34 q 963 -22 964 -12 q 966 34 976 76 q 985 117 1000 156 q 1014 196 1033 235 q 1052 274 1073 315 l 1160 483 q 1134 469 1108 446 q 1083 422 1064 403 q 963 302 902 228 q 841 155 803 108 q 765 60 742 38 q 720 16 697 18 q 684 19 680 34 q 675 49 675 72 q 675 95 678 123 q 682 151 687 176 q 692 202 696 222 q 700 243 701 252 q 699 252 682 238 q 665 225 626 186 q 587 147 522 76 q 457 6 360 -107 q 355 -112 349 -118 q 343 -125 333 -125 q 313 -126 310 -118 q 307 -110 305 -102 q 307 -76 322 -45 q 336 -14 348 8 q 399 99 436 164 q 472 229 496 274 q 521 320 536 349 q 551 378 558 397 q 566 416 568 428 q 571 440 571 451 q 574 505 536 522 q 497 539 434 519 z"},"g":{"x_min":0,"x_max":237,"ha":237,"o":"m 103 -41 q 89 -70 72 -106 q 55 -141 35 -178 q 15 -214 -9 -248 q -33 -281 -60 -307 q -87 -333 -118 -348 q -150 -363 -185 -361 q -227 -357 -248 -328 q -269 -300 -267 -255 q -266 -219 -250 -190 q -234 -162 -208 -140 q -181 -117 -148 -100 q -114 -82 -78 -67 q -42 -52 -6 -38 q 30 -25 60 -12 l 75 21 q 57 1 36 1 q 20 0 9 10 q -2 20 -5 38 q -8 57 -1 84 q 6 110 25 142 q 46 176 76 200 q 105 224 143 222 q 157 222 162 210 l 165 221 q 165 227 175 226 q 185 225 196 218 q 208 212 216 202 q 223 191 218 180 q 198 145 178 100 q 158 56 138 19 q 157 30 172 42 q 188 54 203 68 q 218 83 233 100 q 248 118 265 140 q 272 145 277 141 q 282 137 280 129 q 245 72 204 38 q 163 5 115 -18 z m -190 -342 q -161 -345 -132 -322 q -102 -299 -72 -258 q -43 -216 -14 -162 q 15 -107 44 -47 q 10 -61 -35 -80 q -80 -98 -122 -122 q -165 -146 -200 -176 q -235 -207 -248 -246 q -251 -261 -248 -278 q -245 -294 -238 -308 q -230 -321 -218 -330 q -206 -340 -190 -342 z m 40 24 q 56 26 76 52 q 97 77 119 111 q 127 126 134 140 q 141 155 149 169 q 150 175 152 181 q 154 187 155 192 q 156 197 154 200 q 153 203 147 203 q 141 203 132 196 q 122 190 110 179 q 99 168 88 154 q 76 140 67 126 q 55 109 47 90 q 39 72 36 57 q 32 42 33 32 q 34 23 40 24 z"},"j":{"x_min":0,"x_max":125,"ha":125,"o":"m -7 -41 q -21 -70 -38 -106 q -55 -141 -76 -178 q -96 -214 -120 -248 q -144 -281 -172 -307 q -199 -333 -230 -348 q -262 -363 -297 -361 q -339 -357 -360 -328 q -381 -300 -379 -255 q -378 -201 -344 -164 q -310 -126 -260 -99 q -210 -72 -154 -52 q -97 -32 -50 -12 q -31 29 -12 66 q 7 103 22 133 q 37 163 46 186 q 54 208 53 221 q 53 227 63 226 q 73 225 84 218 q 96 212 104 202 q 111 191 106 180 q 86 145 66 100 q 46 56 26 19 q 45 30 60 42 q 76 54 91 68 q 106 83 121 100 q 136 118 153 140 q 160 145 165 141 q 170 137 168 129 q 133 72 92 38 q 51 5 3 -18 z m -302 -342 q -274 -345 -244 -322 q -215 -299 -185 -258 q -155 -217 -125 -162 q -95 -107 -66 -47 q -101 -62 -146 -80 q -192 -98 -235 -122 q -278 -146 -312 -176 q -347 -207 -360 -246 q -363 -261 -360 -278 q -357 -294 -350 -308 q -342 -321 -330 -330 q -318 -340 -302 -342 z m 98 233 q 96 255 92 270 q 87 284 82 293 q 78 299 80 308 q 82 316 86 318 q 97 326 104 321 q 110 316 114 308 q 118 298 121 284 q 131 293 142 298 q 150 303 160 304 q 169 305 176 299 q 182 294 182 286 q 183 277 178 269 q 173 261 160 254 q 147 247 133 242 q 119 237 108 234 q 98 232 98 233 z"},"i":{"x_min":0,"x_max":114,"ha":114,"o":"m -16 53 q -12 71 0 96 q 12 122 24 147 q 37 172 46 192 q 55 213 54 221 q 52 227 61 226 q 70 226 81 220 q 92 214 100 204 q 109 193 106 180 q 105 175 98 162 q 91 150 82 134 q 72 118 62 100 q 52 83 44 68 q 37 53 34 43 q 32 33 38 32 q 44 30 56 40 q 68 50 82 66 q 97 82 112 101 q 128 120 142 137 q 148 145 156 142 q 163 138 157 128 q 144 110 128 88 q 112 65 94 46 q 77 26 58 12 q 40 -1 23 -1 q 8 -2 0 4 q -9 10 -14 18 q -18 27 -18 37 q -18 47 -16 53 z m 98 233 q 96 255 92 270 q 87 285 82 293 q 78 299 80 308 q 82 316 86 318 q 97 326 104 321 q 110 316 114 308 q 118 298 121 284 q 131 293 142 298 q 150 303 160 304 q 169 305 176 299 q 182 294 182 286 q 183 277 178 269 q 173 261 160 254 q 147 247 133 242 q 119 237 108 234 q 98 232 98 233 z"},"y":{"x_min":0,"x_max":246,"ha":246,"o":"m 106 66 q 88 40 64 20 q 41 -1 22 -1 q 8 -2 0 4 q -9 9 -13 18 q -17 27 -18 36 q -18 46 -16 53 q -12 71 0 96 q 12 122 24 147 q 37 172 46 192 q 55 213 54 221 q 52 227 61 226 q 70 226 80 220 q 91 214 100 204 q 108 193 106 180 q 105 175 98 162 q 92 150 82 134 q 73 117 62 99 q 52 81 45 66 q 38 50 35 40 q 32 30 38 29 q 42 27 56 36 q 70 46 87 64 q 104 81 121 104 q 138 126 150 150 q 152 156 156 162 q 159 169 160 174 q 174 208 174 221 q 174 228 184 226 q 195 225 206 218 q 217 211 224 201 q 232 191 226 180 q 208 145 188 100 q 167 56 147 19 q 166 31 182 43 q 197 55 212 70 q 226 84 241 101 q 256 118 274 140 q 281 145 286 141 q 291 137 289 129 q 251 72 212 38 q 173 5 124 -18 l 112 -41 q 97 -71 80 -106 q 63 -141 42 -177 q 22 -213 -1 -246 q -24 -280 -51 -306 q -78 -332 -110 -347 q -141 -362 -176 -361 q -218 -357 -239 -328 q -260 -300 -258 -255 q -258 -220 -242 -192 q -226 -163 -200 -140 q -173 -117 -139 -99 q -105 -81 -68 -66 q -32 -50 4 -37 q 39 -24 69 -12 z m -181 -342 q -152 -345 -123 -322 q -94 -299 -64 -258 q -35 -216 -6 -162 q 24 -107 54 -47 q 19 -61 -26 -80 q -71 -98 -114 -122 q -158 -146 -192 -176 q -226 -207 -238 -246 q -242 -261 -240 -278 q -237 -294 -229 -308 q -221 -321 -208 -330 q -196 -340 -181 -342 z"},"p":{"x_min":0,"x_max":229,"ha":229,"o":"m 44 0 q 35 0 28 7 q 20 14 17 27 q 8 12 -4 -14 q -17 -39 -30 -66 q -43 -92 -55 -115 q -67 -138 -74 -147 q -83 -165 -86 -170 q -88 -174 -92 -174 q -103 -174 -107 -166 q -111 -159 -110 -149 q -110 -139 -107 -130 q -104 -120 -101 -115 q -96 -104 -82 -75 q -67 -46 -48 -8 q -29 29 -8 71 q 13 113 30 150 q 47 186 58 212 q 70 239 70 246 q 69 253 78 251 q 87 249 98 242 q 109 234 118 224 q 126 213 123 204 q 142 219 172 219 q 184 219 198 208 q 212 198 210 178 q 207 139 188 104 q 168 69 139 43 q 165 49 188 66 q 211 84 225 102 l 254 138 q 262 146 268 140 q 273 134 271 126 q 264 115 256 106 q 249 97 242 88 q 232 74 218 62 q 203 51 184 41 q 147 17 110 19 q 92 10 76 4 q 60 -1 44 0 z m 145 197 q 135 197 122 185 q 108 173 95 154 l 94 150 q 82 130 77 106 q 72 83 84 60 l 91 51 q 113 75 134 109 q 154 143 158 181 q 161 190 156 194 q 151 197 145 197 z m 49 26 q 58 26 74 36 q 55 54 56 91 l 39 65 q 33 42 37 34 q 41 26 49 26 z"},"X":{"x_min":0,"x_max":875,"ha":875,"o":"m 812 554 q 818 558 823 564 q 828 570 835 575 q 842 580 852 584 q 862 588 878 588 q 896 588 904 577 q 912 566 910 558 q 909 552 908 552 q 907 551 904 551 q 901 551 896 550 q 890 548 880 541 q 840 509 796 472 q 753 435 711 397 q 669 359 631 324 q 593 288 564 260 q 536 233 519 215 q 502 197 502 195 q 502 165 508 130 q 513 96 526 66 q 540 36 562 16 q 583 -5 615 -6 q 655 -8 695 12 q 735 31 770 61 q 804 91 832 127 q 860 163 876 194 q 882 212 891 212 q 900 211 895 193 q 880 158 852 118 q 824 79 788 46 q 752 12 711 -10 q 670 -33 629 -33 q 588 -33 559 -16 q 530 0 510 28 q 491 56 480 94 q 469 131 464 172 l 133 -148 q 123 -146 120 -141 q 118 -136 118 -126 l 460 217 q 459 230 460 260 q 461 289 461 325 q 461 361 458 399 q 454 437 444 468 q 435 500 417 520 q 399 541 369 541 q 340 541 320 525 q 299 509 286 485 q 272 461 264 433 q 255 405 250 382 q 247 368 244 364 q 240 359 236 360 q 231 362 226 369 q 221 376 216 385 q 193 413 166 424 q 139 435 114 432 q 89 430 71 416 q 53 401 49 378 q 38 325 64 286 q 89 247 134 222 q 178 196 234 185 q 289 174 339 178 q 349 176 344 168 q 340 160 335 161 q 265 154 204 170 q 143 186 98 216 q 52 246 26 286 q -1 327 -2 369 q -3 391 3 413 q 9 435 22 453 q 35 471 54 483 q 72 495 95 498 q 105 499 122 498 q 138 496 156 490 q 173 483 189 470 q 205 457 216 435 q 225 417 228 414 q 231 411 232 419 q 234 427 236 446 q 239 464 246 489 q 263 549 304 578 q 345 606 399 595 q 450 585 473 554 q 496 524 502 478 q 509 432 506 374 q 502 317 500 253 z"},"Y":{"x_min":0,"x_max":834,"ha":834,"o":"m 817 470 q 819 486 807 486 q 795 487 779 467 q 765 449 740 409 q 714 369 682 319 q 650 269 613 216 q 576 163 540 120 q 503 77 469 50 q 435 24 409 27 q 372 31 356 58 q 340 85 340 113 q 340 118 340 123 q 339 128 340 133 q 287 121 229 121 q 171 121 124 136 q 76 151 46 183 q 15 215 17 267 q 17 309 33 330 q 49 350 72 365 q 79 370 94 374 q 108 379 124 380 q 141 380 158 376 q 174 371 186 358 q 200 343 200 348 q 201 352 204 370 q 209 402 214 425 q 220 448 231 474 q 244 502 266 526 q 287 550 312 566 q 338 582 366 588 q 395 595 423 589 q 462 576 476 535 q 491 494 464 412 q 450 368 434 332 q 419 296 406 262 q 394 229 386 194 q 377 160 377 118 q 377 113 377 104 q 377 94 378 85 q 380 76 384 70 q 389 63 397 63 q 415 63 436 78 q 457 94 478 116 q 498 137 515 160 q 532 183 542 198 l 703 429 q 708 436 721 457 q 734 478 750 500 q 766 523 782 540 q 797 558 806 558 q 820 558 832 556 q 844 555 853 549 q 862 543 867 530 q 872 518 872 496 q 873 447 862 380 q 850 314 828 240 q 806 166 774 90 q 742 15 702 -51 q 661 -117 614 -168 q 567 -220 514 -245 q 482 -261 448 -270 q 414 -278 377 -277 q 353 -277 343 -276 q 333 -275 329 -270 q 325 -266 324 -257 q 323 -248 318 -232 q 312 -213 302 -194 q 293 -176 284 -157 q 276 -138 270 -118 q 265 -99 267 -76 q 269 -49 288 -29 q 308 -9 335 -2 q 362 6 392 -4 q 423 -13 447 -46 q 455 -60 458 -64 q 461 -69 464 -68 q 467 -67 472 -62 q 477 -56 489 -50 q 527 -28 569 -30 q 611 -32 653 -51 q 689 8 718 78 q 747 147 768 216 q 788 286 800 352 q 813 418 817 470 z m 417 418 q 431 459 428 484 q 425 509 412 520 q 398 531 377 529 q 356 527 334 515 q 313 507 294 486 q 276 466 262 440 q 247 414 238 387 q 229 360 227 339 q 224 312 218 307 q 211 302 200 311 q 170 328 145 326 q 120 323 103 310 q 86 297 78 276 q 71 256 75 237 q 82 198 110 177 q 138 156 177 148 q 216 140 260 143 q 303 146 342 154 q 343 170 348 191 q 352 212 360 243 q 369 274 382 316 q 396 359 417 418 z m 462 -101 q 451 -110 446 -114 q 442 -118 440 -116 q 438 -113 436 -105 q 435 -97 430 -82 q 422 -59 404 -48 q 386 -36 367 -36 q 348 -36 333 -46 q 318 -57 315 -78 q 313 -94 316 -108 q 320 -123 326 -137 q 332 -151 339 -164 q 346 -178 351 -191 q 357 -208 358 -218 q 360 -228 364 -233 q 368 -238 379 -238 q 390 -238 416 -235 q 439 -233 460 -226 q 481 -219 499 -209 q 538 -188 573 -154 q 608 -119 638 -74 q 598 -60 552 -64 q 507 -68 462 -101 z m 704 -80 q 728 -98 753 -124 q 778 -150 793 -175 q 796 -177 792 -180 q 787 -184 784 -180 q 772 -165 746 -144 q 721 -123 691 -104 z m 408 172 q 417 176 424 180 q 430 183 435 187 q 450 197 456 192 q 463 187 451 179 q 440 171 429 164 q 418 158 404 152 z"},"c":{"x_min":0,"x_max":176,"ha":176,"o":"m 164 137 q 158 131 150 128 q 141 124 134 123 q 126 122 122 124 q 118 125 121 130 q 140 148 150 166 q 159 185 160 197 q 161 209 153 210 q 145 211 130 195 q 119 184 106 166 q 94 149 82 130 q 71 110 62 90 q 53 71 50 56 q 48 40 52 30 q 57 21 72 22 q 90 23 107 34 q 124 46 140 62 q 156 79 171 98 q 186 117 200 133 q 201 136 204 136 q 208 136 212 134 q 215 132 216 129 q 218 126 215 122 q 207 111 192 90 q 177 70 157 50 q 137 30 114 14 q 90 -1 66 -2 q 32 -2 17 15 q 2 32 2 58 q 1 83 13 112 q 25 142 44 168 q 64 194 90 212 q 115 229 141 230 q 161 230 171 220 q 181 209 184 194 q 186 180 180 164 q 175 148 164 137 z"},"6":{"x_min":0,"x_max":1219,"ha":1219,"o":"m 876 781 l 739 657 l 775 471 l 615 565 l 450 471 l 489 652 l 351 781 l 537 801 l 615 972 l 690 802 z m 682 576 l 639 834 l 586 834 l 541 576 l 564 562 l 583 576 l 592 634 l 631 634 l 642 576 l 663 562 z m 628 672 l 598 672 l 612 774 z m 610 21 l 631 21 l 624 39 q 622 42 622 44 q 622 46 619 49 q 619 45 616 39 z m 352 -5 l 352 3 l 363 3 l 363 -5 z m 844 -5 l 844 58 l 852 58 l 852 1 l 883 1 l 883 -5 z m 787 -5 l 787 58 l 832 58 l 832 49 l 795 49 l 795 30 l 829 30 l 829 22 l 795 22 l 795 1 l 832 1 l 832 -5 z m 565 -5 l 565 21 l 541 58 l 552 58 l 564 39 q 567 30 570 28 q 571 30 572 33 q 574 36 577 39 l 589 58 l 598 58 l 573 21 l 573 -5 z m 376 -5 l 376 58 l 400 58 q 403 58 406 56 q 408 55 409 55 q 415 54 417 49 q 420 46 420 40 q 420 36 417 34 q 415 28 411 28 q 415 27 420 22 q 423 16 423 13 q 423 10 422 8 q 421 7 421 6 q 420 0 415 0 q 414 -3 412 -3 q 411 -3 409 -5 l 400 -5 z m 205 -5 l 187 58 l 196 58 l 205 16 q 207 12 207 9 q 207 6 208 3 q 210 10 210 15 l 222 58 l 232 58 l 241 25 q 243 18 244 14 q 246 9 246 3 q 247 6 247 9 q 247 12 249 16 l 259 58 l 267 58 l 249 -5 l 241 -5 l 229 42 q 228 46 228 49 q 226 46 226 42 l 213 -5 z m 123 -5 l 105 58 l 115 58 l 123 16 q 123 9 127 3 q 129 10 129 15 l 141 58 l 150 58 l 160 25 q 162 18 162 14 q 163 9 163 3 q 166 6 166 9 q 166 12 168 16 l 177 58 l 186 58 l 168 -5 l 160 -5 l 148 42 q 147 46 147 49 q 144 46 144 42 l 130 -5 z m 384 30 l 397 30 q 403 30 405 33 q 409 33 409 34 q 411 36 411 40 q 411 45 409 46 l 408 46 q 406 46 406 47 q 406 48 405 48 q 403 49 396 49 l 384 49 z m 285 -5 l 268 58 l 277 58 l 286 16 q 288 12 288 9 q 288 6 291 3 q 291 9 292 11 q 292 13 292 15 l 304 58 l 313 58 l 324 25 q 325 18 326 14 q 327 9 327 3 q 330 6 330 9 q 330 12 331 16 l 342 58 l 349 58 l 331 -5 l 324 -5 l 312 42 q 310 46 310 49 q 307 46 307 42 l 294 -5 z m 664 28 l 682 28 q 685 28 688 29 q 690 30 693 30 q 696 30 696 34 q 697 36 697 40 q 697 45 694 48 q 693 49 684 49 l 664 49 z m 384 1 l 400 1 q 403 1 405 3 l 409 3 q 411 6 414 7 l 414 13 q 414 16 411 19 q 411 22 408 22 l 397 22 l 384 22 z m 435 -5 l 435 58 l 442 58 l 442 -5 z m 985 25 q 985 12 990 7 q 996 1 1006 1 q 1017 1 1021 7 q 1027 12 1027 27 q 1027 34 1026 39 q 1023 46 1018 48 q 1014 49 1006 49 q 997 49 993 45 q 985 39 985 25 z m 976 25 q 976 42 985 49 q 991 58 1006 58 q 1011 58 1014 56 q 1018 55 1021 54 q 1026 52 1028 49 q 1030 46 1033 42 q 1035 39 1035 27 q 1035 13 1032 9 q 1027 1 1021 -3 q 1015 -6 1006 -6 q 1002 -6 998 -6 q 994 -5 990 -3 q 987 0 984 3 q 982 6 981 9 q 979 13 978 17 q 976 21 976 25 z m 592 -5 l 616 58 l 625 58 l 651 -5 l 642 -5 l 634 13 l 609 13 l 600 -5 z m 459 -5 l 459 58 l 466 58 l 466 1 l 495 1 l 495 -5 z m 892 -5 l 892 3 l 903 3 l 903 -5 z m 748 19 l 748 27 l 774 27 l 774 3 q 768 -3 762 -5 q 759 -5 755 -6 q 751 -6 748 -6 q 739 -6 733 -3 q 729 0 726 2 q 723 4 721 9 q 720 13 718 17 q 717 21 717 25 q 717 31 718 34 q 720 37 721 42 q 724 51 732 54 q 735 55 740 56 q 744 58 748 58 q 756 58 760 55 q 766 54 768 49 q 772 45 774 40 l 766 39 q 766 40 762 45 q 762 48 756 49 l 748 49 l 739 49 q 735 48 732 45 q 732 43 727 39 q 727 36 726 33 q 726 30 726 27 q 726 16 729 13 q 735 4 736 3 q 741 1 748 1 q 754 1 759 3 q 762 6 764 6 q 765 6 766 7 l 766 19 z m 657 -5 l 657 58 l 684 58 q 688 58 691 56 q 694 55 697 55 q 702 54 703 49 q 706 46 706 40 q 706 33 702 28 q 700 27 696 26 q 693 25 688 22 q 691 22 692 22 q 693 21 694 21 q 696 18 696 16 q 697 13 700 10 l 712 -5 l 702 -5 l 693 7 q 690 10 689 12 q 688 15 687 16 q 687 19 686 19 q 684 19 682 21 l 681 21 q 679 21 679 22 q 679 22 678 22 l 675 22 l 664 22 l 664 -5 z m 505 -5 l 505 58 l 514 58 l 514 1 l 544 1 l 544 -5 z m 961 16 l 969 15 q 966 3 960 0 q 954 -6 943 -6 q 934 -6 928 -3 q 924 0 922 3 q 921 6 918 9 q 915 21 915 27 q 915 33 918 45 q 925 52 928 54 q 933 55 936 56 q 939 58 943 58 q 948 58 952 56 q 957 55 960 54 q 963 51 965 48 q 967 45 969 40 l 960 39 q 960 45 954 48 q 951 49 943 49 q 934 49 931 48 q 928 46 928 44 q 927 42 924 39 q 924 36 923 33 q 922 30 922 27 q 922 18 927 13 q 927 10 928 8 q 930 6 931 3 q 936 1 943 1 q 951 1 955 6 q 960 10 961 16 z m 1047 -5 l 1047 58 l 1059 58 l 1074 13 q 1074 10 1076 8 q 1077 6 1077 3 q 1077 4 1080 13 l 1093 58 l 1105 58 l 1105 -5 l 1098 -5 l 1098 46 l 1080 -5 l 1072 -5 l 1054 48 l 1054 -5 z m 610 21 l 631 21 l 624 39 q 622 42 622 44 q 622 46 619 49 q 619 45 616 39 z m 352 -5 l 352 3 l 363 3 l 363 -5 z m 844 -5 l 844 58 l 852 58 l 852 1 l 883 1 l 883 -5 z m 787 -5 l 787 58 l 832 58 l 832 49 l 795 49 l 795 30 l 829 30 l 829 22 l 795 22 l 795 1 l 832 1 l 832 -5 z m 565 -5 l 565 21 l 541 58 l 552 58 l 564 39 q 567 30 570 28 q 571 30 572 33 q 574 36 577 39 l 589 58 l 598 58 l 573 21 l 573 -5 z m 376 -5 l 376 58 l 400 58 q 403 58 406 56 q 408 55 409 55 q 415 54 417 49 q 420 46 420 40 q 420 36 417 34 q 415 28 411 28 q 415 27 420 22 q 423 16 423 13 q 423 10 422 8 q 421 7 421 6 q 420 0 415 0 q 414 -3 412 -3 q 411 -3 409 -5 l 400 -5 z m 205 -5 l 187 58 l 196 58 l 205 16 q 207 12 207 9 q 207 6 208 3 q 210 10 210 15 l 222 58 l 232 58 l 241 25 q 243 18 244 14 q 246 9 246 3 q 247 6 247 9 q 247 12 249 16 l 259 58 l 267 58 l 249 -5 l 241 -5 l 229 42 q 228 46 228 49 q 226 46 226 42 l 213 -5 z m 123 -5 l 105 58 l 115 58 l 123 16 q 123 9 127 3 q 129 10 129 15 l 141 58 l 150 58 l 160 25 q 162 18 162 14 q 163 9 163 3 q 166 6 166 9 q 166 12 168 16 l 177 58 l 186 58 l 168 -5 l 160 -5 l 148 42 q 147 46 147 49 q 144 46 144 42 l 130 -5 z m 384 30 l 397 30 q 403 30 405 33 q 409 33 409 34 q 411 36 411 40 q 411 45 409 46 l 408 46 q 406 46 406 47 q 406 48 405 48 q 403 49 396 49 l 384 49 z m 285 -5 l 268 58 l 277 58 l 286 16 q 288 12 288 9 q 288 6 291 3 q 291 9 292 11 q 292 13 292 15 l 304 58 l 313 58 l 324 25 q 325 18 326 14 q 327 9 327 3 q 330 6 330 9 q 330 12 331 16 l 342 58 l 349 58 l 331 -5 l 324 -5 l 312 42 q 310 46 310 49 q 307 46 307 42 l 294 -5 z m 664 28 l 682 28 q 685 28 688 29 q 690 30 693 30 q 696 30 696 34 q 697 36 697 40 q 697 45 694 48 q 693 49 684 49 l 664 49 z m 384 1 l 400 1 q 403 1 405 3 l 409 3 q 411 6 414 7 l 414 13 q 414 16 411 19 q 411 22 408 22 l 397 22 l 384 22 z m 435 -5 l 435 58 l 442 58 l 442 -5 z m 985 25 q 985 12 990 7 q 996 1 1006 1 q 1017 1 1021 7 q 1027 12 1027 27 q 1027 34 1026 39 q 1023 46 1018 48 q 1014 49 1006 49 q 997 49 993 45 q 985 39 985 25 z m 976 25 q 976 42 985 49 q 991 58 1006 58 q 1011 58 1014 56 q 1018 55 1021 54 q 1026 52 1028 49 q 1030 46 1033 42 q 1035 39 1035 27 q 1035 13 1032 9 q 1027 1 1021 -3 q 1015 -6 1006 -6 q 1002 -6 998 -6 q 994 -5 990 -3 q 987 0 984 3 q 982 6 981 9 q 979 13 978 17 q 976 21 976 25 z m 592 -5 l 616 58 l 625 58 l 651 -5 l 642 -5 l 634 13 l 609 13 l 600 -5 z m 459 -5 l 459 58 l 466 58 l 466 1 l 495 1 l 495 -5 z m 892 -5 l 892 3 l 903 3 l 903 -5 z m 748 19 l 748 27 l 774 27 l 774 3 q 768 -3 762 -5 q 759 -5 755 -6 q 751 -6 748 -6 q 739 -6 733 -3 q 729 0 726 2 q 723 4 721 9 q 720 13 718 17 q 717 21 717 25 q 717 31 718 34 q 720 37 721 42 q 724 51 732 54 q 735 55 740 56 q 744 58 748 58 q 756 58 760 55 q 766 54 768 49 q 772 45 774 40 l 766 39 q 766 40 762 45 q 762 48 756 49 l 748 49 l 739 49 q 735 48 732 45 q 732 43 727 39 q 727 36 726 33 q 726 30 726 27 q 726 16 729 13 q 735 4 736 3 q 741 1 748 1 q 754 1 759 3 q 762 6 764 6 q 765 6 766 7 l 766 19 z m 657 -5 l 657 58 l 684 58 q 688 58 691 56 q 694 55 697 55 q 702 54 703 49 q 706 46 706 40 q 706 33 702 28 q 700 27 696 26 q 693 25 688 22 q 691 22 692 22 q 693 21 694 21 q 696 18 696 16 q 697 13 700 10 l 712 -5 l 702 -5 l 693 7 q 690 10 689 12 q 688 15 687 16 q 687 19 686 19 q 684 19 682 21 l 681 21 q 679 21 679 22 q 679 22 678 22 l 675 22 l 664 22 l 664 -5 z m 505 -5 l 505 58 l 514 58 l 514 1 l 544 1 l 544 -5 z m 961 16 l 969 15 q 966 3 960 0 q 954 -6 943 -6 q 934 -6 928 -3 q 924 0 922 3 q 921 6 918 9 q 915 21 915 27 q 915 33 918 45 q 925 52 928 54 q 933 55 936 56 q 939 58 943 58 q 948 58 952 56 q 957 55 960 54 q 963 51 965 48 q 967 45 969 40 l 960 39 q 960 45 954 48 q 951 49 943 49 q 934 49 931 48 q 928 46 928 44 q 927 42 924 39 q 924 36 923 33 q 922 30 922 27 q 922 18 927 13 q 927 10 928 8 q 930 6 931 3 q 936 1 943 1 q 951 1 955 6 q 960 10 961 16 z m 1047 -5 l 1047 58 l 1059 58 l 1074 13 q 1074 10 1076 8 q 1077 6 1077 3 q 1077 4 1080 13 l 1093 58 l 1105 58 l 1105 -5 l 1098 -5 l 1098 46 l 1080 -5 l 1072 -5 l 1054 48 l 1054 -5 z m 610 21 l 631 21 l 624 39 q 622 42 622 44 q 622 46 619 49 q 619 45 616 39 z m 352 -5 l 352 3 l 363 3 l 363 -5 z m 844 -5 l 844 58 l 852 58 l 852 1 l 883 1 l 883 -5 z m 787 -5 l 787 58 l 832 58 l 832 49 l 795 49 l 795 30 l 829 30 l 829 22 l 795 22 l 795 1 l 832 1 l 832 -5 z m 565 -5 l 565 21 l 541 58 l 552 58 l 564 39 q 567 30 570 28 q 571 30 572 33 q 574 36 577 39 l 589 58 l 598 58 l 573 21 l 573 -5 z m 376 -5 l 376 58 l 400 58 q 403 58 406 56 q 408 55 409 55 q 415 54 417 49 q 420 46 420 40 q 420 36 417 34 q 415 28 411 28 q 415 27 420 22 q 423 16 423 13 q 423 10 422 8 q 421 7 421 6 q 420 0 415 0 q 414 -3 412 -3 q 411 -3 409 -5 l 400 -5 z m 205 -5 l 187 58 l 196 58 l 205 16 q 207 12 207 9 q 207 6 208 3 q 210 10 210 15 l 222 58 l 232 58 l 241 25 q 243 18 244 14 q 246 9 246 3 q 247 6 247 9 q 247 12 249 16 l 259 58 l 267 58 l 249 -5 l 241 -5 l 229 42 q 228 46 228 49 q 226 46 226 42 l 213 -5 z m 123 -5 l 105 58 l 115 58 l 123 16 q 123 9 127 3 q 129 10 129 15 l 141 58 l 150 58 l 160 25 q 162 18 162 14 q 163 9 163 3 q 166 6 166 9 q 166 12 168 16 l 177 58 l 186 58 l 168 -5 l 160 -5 l 148 42 q 147 46 147 49 q 144 46 144 42 l 130 -5 z m 384 30 l 397 30 q 403 30 405 33 q 409 33 409 34 q 411 36 411 40 q 411 45 409 46 l 408 46 q 406 46 406 47 q 406 48 405 48 q 403 49 396 49 l 384 49 z m 285 -5 l 268 58 l 277 58 l 286 16 q 288 12 288 9 q 288 6 291 3 q 291 9 292 11 q 292 13 292 15 l 304 58 l 313 58 l 324 25 q 325 18 326 14 q 327 9 327 3 q 330 6 330 9 q 330 12 331 16 l 342 58 l 349 58 l 331 -5 l 324 -5 l 312 42 q 310 46 310 49 q 307 46 307 42 l 294 -5 z m 664 28 l 682 28 q 685 28 688 29 q 690 30 693 30 q 696 30 696 34 q 697 36 697 40 q 697 45 694 48 q 693 49 684 49 l 664 49 z m 384 1 l 400 1 q 403 1 405 3 l 409 3 q 411 6 414 7 l 414 13 q 414 16 411 19 q 411 22 408 22 l 397 22 l 384 22 z m 435 -5 l 435 58 l 442 58 l 442 -5 z m 985 25 q 985 12 990 7 q 996 1 1006 1 q 1017 1 1021 7 q 1027 12 1027 27 q 1027 34 1026 39 q 1023 46 1018 48 q 1014 49 1006 49 q 997 49 993 45 q 985 39 985 25 z m 976 25 q 976 42 985 49 q 991 58 1006 58 q 1011 58 1014 56 q 1018 55 1021 54 q 1026 52 1028 49 q 1030 46 1033 42 q 1035 39 1035 27 q 1035 13 1032 9 q 1027 1 1021 -3 q 1015 -6 1006 -6 q 1002 -6 998 -6 q 994 -5 990 -3 q 987 0 984 3 q 982 6 981 9 q 979 13 978 17 q 976 21 976 25 z m 592 -5 l 616 58 l 625 58 l 651 -5 l 642 -5 l 634 13 l 609 13 l 600 -5 z m 459 -5 l 459 58 l 466 58 l 466 1 l 495 1 l 495 -5 z m 892 -5 l 892 3 l 903 3 l 903 -5 z m 748 19 l 748 27 l 774 27 l 774 3 q 768 -3 762 -5 q 759 -5 755 -6 q 751 -6 748 -6 q 739 -6 733 -3 q 729 0 726 2 q 723 4 721 9 q 720 13 718 17 q 717 21 717 25 q 717 31 718 34 q 720 37 721 42 q 724 51 732 54 q 735 55 740 56 q 744 58 748 58 q 756 58 760 55 q 766 54 768 49 q 772 45 774 40 l 766 39 q 766 40 762 45 q 762 48 756 49 l 748 49 l 739 49 q 735 48 732 45 q 732 43 727 39 q 727 36 726 33 q 726 30 726 27 q 726 16 729 13 q 735 4 736 3 q 741 1 748 1 q 754 1 759 3 q 762 6 764 6 q 765 6 766 7 l 766 19 z m 657 -5 l 657 58 l 684 58 q 688 58 691 56 q 694 55 697 55 q 702 54 703 49 q 706 46 706 40 q 706 33 702 28 q 700 27 696 26 q 693 25 688 22 q 691 22 692 22 q 693 21 694 21 q 696 18 696 16 q 697 13 700 10 l 712 -5 l 702 -5 l 693 7 q 690 10 689 12 q 688 15 687 16 q 687 19 686 19 q 684 19 682 21 l 681 21 q 679 21 679 22 q 679 22 678 22 l 675 22 l 664 22 l 664 -5 z m 505 -5 l 505 58 l 514 58 l 514 1 l 544 1 l 544 -5 z m 961 16 l 969 15 q 966 3 960 0 q 954 -6 943 -6 q 934 -6 928 -3 q 924 0 922 3 q 921 6 918 9 q 915 21 915 27 q 915 33 918 45 q 925 52 928 54 q 933 55 936 56 q 939 58 943 58 q 948 58 952 56 q 957 55 960 54 q 963 51 965 48 q 967 45 969 40 l 960 39 q 960 45 954 48 q 951 49 943 49 q 934 49 931 48 q 928 46 928 44 q 927 42 924 39 q 924 36 923 33 q 922 30 922 27 q 922 18 927 13 q 927 10 928 8 q 930 6 931 3 q 936 1 943 1 q 951 1 955 6 q 960 10 961 16 z m 1047 -5 l 1047 58 l 1059 58 l 1074 13 q 1074 10 1076 8 q 1077 6 1077 3 q 1077 4 1080 13 l 1093 58 l 1105 58 l 1105 -5 l 1098 -5 l 1098 46 l 1080 -5 l 1072 -5 l 1054 48 l 1054 -5 z m 175 111 l 187 106 q 184 93 174 84 q 162 75 148 75 q 135 75 123 81 q 111 90 109 99 q 103 109 103 124 q 103 141 109 151 q 114 162 124 166 q 135 172 148 172 q 165 172 171 165 q 181 162 186 145 l 174 144 q 168 156 163 157 q 157 163 148 163 q 136 163 130 157 q 121 151 118 144 q 117 138 117 124 q 117 111 121 105 q 124 94 130 91 q 138 85 147 85 q 159 85 166 93 q 169 96 172 100 q 174 105 175 111 z m 199 123 q 199 135 202 144 q 205 153 213 159 q 219 166 227 169 q 235 172 244 172 q 258 172 268 166 q 277 162 285 150 q 291 135 291 124 q 291 117 290 111 q 288 105 285 99 q 277 87 267 81 q 255 75 244 75 q 237 75 232 76 q 226 78 220 81 q 210 87 205 99 q 199 109 199 123 z m 213 123 q 213 105 220 94 q 231 85 244 85 q 259 85 267 97 q 277 108 277 124 q 277 130 276 134 q 274 139 273 144 q 270 154 261 157 q 256 163 244 163 q 232 163 222 153 q 213 145 213 123 z m 306 78 l 306 171 l 324 171 l 346 105 q 351 96 351 91 q 354 94 357 106 l 381 171 l 396 171 l 396 78 l 384 78 l 384 156 l 357 78 l 345 78 l 318 157 l 318 78 z m 417 78 l 417 171 l 453 171 l 466 171 q 474 171 478 166 q 480 165 486 157 q 487 154 488 151 q 489 148 489 144 q 489 135 481 124 q 474 117 453 117 l 429 117 l 429 78 z m 429 126 l 454 126 q 468 126 469 132 q 475 133 475 144 q 475 151 474 153 q 468 159 463 159 q 462 162 453 162 l 429 162 z m 505 78 l 505 171 l 517 171 l 517 87 l 564 87 l 564 78 z m 579 78 l 579 171 l 648 171 l 648 162 l 591 162 l 591 132 l 643 132 l 643 120 l 591 120 l 591 87 l 649 87 l 649 78 z m 690 78 l 690 162 l 658 162 l 658 171 l 735 171 l 735 162 l 703 162 l 703 78 z m 748 78 l 748 171 l 817 171 l 817 162 l 760 162 l 760 132 l 813 132 l 813 120 l 760 120 l 760 87 l 819 87 l 819 78 z m 870 106 l 882 108 q 882 100 885 97 q 888 91 895 88 q 898 87 909 87 q 912 87 916 87 q 919 87 922 88 q 927 88 930 94 q 931 97 931 103 q 931 108 930 111 q 928 112 926 113 q 924 114 921 117 q 919 117 904 120 q 897 123 892 124 q 888 124 885 126 q 879 129 876 136 q 873 138 872 141 q 871 144 871 147 q 871 156 877 162 q 879 165 882 166 q 885 168 889 171 q 892 172 907 172 q 918 172 924 169 q 928 166 931 164 q 934 163 936 159 q 942 154 942 145 l 930 144 q 927 156 922 157 q 918 162 907 162 q 892 162 889 157 q 885 153 885 147 q 885 142 889 139 q 889 139 907 132 q 915 130 920 128 q 925 127 928 126 q 933 124 935 122 q 937 120 940 117 q 943 112 943 103 q 943 93 940 88 q 934 82 928 79 q 924 78 920 76 q 915 75 909 75 q 903 75 897 76 q 891 78 888 79 q 880 81 873 91 q 870 97 870 106 z m 961 78 l 961 171 l 1029 171 l 1029 162 l 975 162 l 975 132 l 1027 132 l 1027 120 l 975 120 l 975 87 l 1032 87 l 1032 78 z m 1074 78 l 1074 162 l 1044 162 l 1044 171 l 1117 171 l 1117 162 l 1086 162 l 1086 78 z m 112 190 l 112 283 l 150 283 l 163 283 q 166 283 175 280 q 177 279 179 276 q 181 273 183 270 q 186 267 186 259 q 186 246 177 237 q 172 229 150 229 l 127 229 l 127 190 z m 127 241 l 150 241 q 163 241 168 244 q 174 250 174 256 q 174 259 172 262 q 171 265 169 268 q 165 273 162 273 q 160 274 150 274 l 127 274 z m 201 190 l 201 283 l 268 283 l 268 274 l 214 274 l 214 244 l 265 244 l 265 234 l 214 234 l 214 202 l 271 202 l 271 190 z m 288 190 l 288 283 l 331 283 q 345 283 351 282 q 358 279 361 274 q 364 262 364 259 q 364 249 358 243 q 352 237 337 234 q 340 231 342 231 q 343 231 345 229 q 352 222 355 216 l 372 190 l 357 190 l 343 210 q 342 214 340 217 q 337 220 336 223 q 333 225 332 227 q 331 229 330 229 q 327 231 324 231 q 322 234 316 234 l 303 234 l 303 190 z m 303 243 l 327 243 q 339 243 342 244 q 346 249 349 250 q 351 253 351 259 q 351 265 346 270 q 342 274 331 274 l 303 274 z m 381 222 l 391 222 q 391 219 392 216 q 394 213 396 210 q 397 208 400 206 q 402 204 405 204 q 414 201 420 201 q 423 201 426 201 q 429 201 430 202 q 439 205 441 208 q 441 210 442 212 q 442 214 442 216 q 442 222 441 223 q 436 226 430 229 q 429 231 425 231 q 421 231 415 234 q 402 235 396 240 q 388 246 385 249 q 384 253 384 261 q 384 264 384 268 q 385 271 388 274 q 390 280 400 283 q 403 286 417 286 q 429 286 435 283 q 444 279 447 273 q 453 264 453 259 l 441 256 q 438 267 433 270 q 427 276 417 276 q 405 276 400 270 q 396 267 396 261 q 396 255 400 253 q 402 250 417 247 q 430 241 439 241 q 442 238 445 236 q 448 234 450 231 q 454 226 454 217 q 454 210 450 204 q 447 199 444 197 q 442 195 439 192 q 427 189 420 189 q 409 189 397 192 q 393 195 390 197 q 387 199 384 204 q 382 208 382 212 q 381 216 381 222 z m 468 237 q 468 258 480 273 q 493 286 513 286 q 519 286 524 284 q 529 283 537 280 q 543 277 546 272 q 549 268 552 262 q 558 252 558 237 q 558 223 552 211 q 546 201 537 195 q 525 189 513 189 q 499 189 489 196 q 475 204 474 214 q 468 222 468 237 z m 480 237 q 480 219 489 210 q 498 201 513 201 q 528 201 537 210 q 544 220 544 237 q 544 243 544 249 q 543 255 540 259 q 535 267 531 270 q 523 276 513 276 q 505 276 500 274 q 496 271 489 267 q 480 258 480 237 z m 573 190 l 573 283 l 586 283 l 636 211 l 636 283 l 648 283 l 648 190 l 636 190 l 585 264 l 585 190 z m 658 190 l 694 283 l 708 283 l 747 190 l 732 190 l 721 220 l 682 220 l 670 190 z m 684 229 l 717 229 l 708 255 q 705 261 704 266 q 702 271 700 274 q 700 270 698 266 q 697 261 696 256 z m 754 190 l 754 283 l 768 283 l 768 202 l 814 202 l 814 190 z m 922 283 l 934 283 l 934 231 q 934 214 931 208 q 928 199 921 195 q 913 189 898 189 q 883 189 877 195 q 873 196 870 200 q 867 204 864 208 q 862 211 862 231 l 862 283 l 873 283 l 873 231 q 873 216 876 211 q 879 205 883 204 q 886 202 889 202 q 892 201 897 201 q 909 201 916 205 q 922 211 922 231 z m 951 222 l 963 222 q 963 219 964 216 q 966 213 967 210 q 969 208 971 206 q 973 204 976 204 q 985 201 990 201 q 1000 201 1005 202 q 1008 204 1012 208 q 1014 210 1014 216 q 1014 222 1012 223 q 1009 225 1008 226 q 1008 228 1005 229 q 1002 231 998 231 q 993 231 987 234 q 981 235 976 236 q 970 237 969 240 q 961 243 960 249 q 955 253 955 261 q 955 267 960 274 q 961 280 970 283 q 976 286 988 286 q 993 286 998 286 q 1003 286 1006 283 q 1015 279 1020 273 q 1021 270 1022 266 q 1024 262 1024 259 l 1012 256 q 1009 261 1008 264 q 1008 268 1005 270 q 1000 276 988 276 q 975 276 973 270 q 967 268 967 261 q 967 256 970 253 q 973 250 988 247 q 1005 241 1009 241 q 1014 238 1017 236 q 1020 234 1021 231 q 1026 228 1026 217 q 1026 208 1021 204 q 1018 199 1016 197 q 1014 195 1009 192 q 1000 189 993 189 q 985 189 980 190 q 975 190 970 192 q 967 195 964 197 q 960 199 957 204 q 954 208 952 212 q 951 216 951 222 z m 1044 190 l 1044 283 l 1111 283 l 1111 274 l 1057 274 l 1057 244 l 1107 244 l 1107 234 l 1057 234 l 1057 202 l 1113 202 l 1113 190 z m 307 388 q 307 403 285 406 q 282 406 278 407 q 273 408 267 408 l 258 397 l 234 372 q 228 364 222 358 q 217 352 210 348 q 219 345 232 343 q 235 343 240 343 q 246 343 250 345 q 273 346 285 357 q 307 375 307 388 z m 324 433 q 324 439 316 439 q 313 439 291 432 l 274 417 q 271 414 268 408 l 294 412 q 300 412 310 420 q 324 429 324 433 z m 343 460 q 343 457 339 457 q 336 457 335 458 q 334 459 331 459 q 316 456 297 436 q 300 439 304 440 q 307 442 310 444 q 321 445 330 444 q 336 444 336 436 l 336 430 q 328 417 294 409 q 321 406 321 391 q 321 373 292 354 q 282 348 270 344 q 259 340 247 339 q 228 334 217 336 q 208 336 198 340 q 189 334 181 334 l 178 334 q 169 337 163 339 l 168 339 q 180 339 187 345 l 187 346 q 177 340 165 340 q 148 340 139 349 q 124 360 124 381 q 124 387 126 392 q 127 397 130 405 q 141 427 166 444 q 174 451 182 454 q 190 456 198 457 q 214 457 220 451 q 213 456 205 456 q 196 456 186 450 q 171 444 169 441 q 154 433 139 415 q 126 394 126 379 q 126 372 128 368 q 129 363 132 358 q 138 349 148 346 q 153 345 156 344 q 159 343 162 343 q 168 343 172 344 q 177 346 183 349 q 166 361 166 382 q 169 402 190 417 l 187 412 q 184 412 181 406 q 172 397 172 387 q 172 367 195 354 q 207 361 207 363 q 210 367 213 370 q 216 373 219 376 q 222 379 222 384 q 223 388 226 393 l 226 391 q 226 384 225 379 l 243 400 q 289 453 319 462 q 306 466 298 466 q 279 465 256 453 q 229 439 229 420 q 229 414 234 409 q 235 408 235 406 q 226 412 226 421 q 226 438 246 454 q 270 472 297 469 q 306 469 324 463 l 330 463 q 337 463 342 460 z m 346 363 q 345 357 334 346 q 324 340 316 340 q 309 340 309 349 q 309 357 318 369 l 316 369 q 315 367 310 367 q 310 367 309 369 q 313 369 324 379 l 325 379 l 330 385 q 334 390 334 393 l 339 393 q 343 393 343 391 q 343 385 334 375 l 324 364 q 315 351 315 346 q 315 342 321 342 q 328 342 339 357 q 340 358 342 359 q 343 360 346 363 z m 354 405 q 348 396 339 396 q 334 396 328 400 l 333 400 q 343 400 346 411 l 346 414 l 354 411 q 355 409 354 405 z m 406 433 q 406 426 360 370 l 358 370 q 345 354 345 345 q 345 340 349 340 q 358 340 369 355 q 370 357 372 358 q 373 358 375 361 q 375 354 363 345 q 355 339 346 339 q 337 340 337 348 q 336 355 367 394 l 385 417 l 394 426 q 399 432 402 441 q 406 438 406 433 z m 432 433 q 432 427 384 370 q 369 352 369 345 q 369 340 375 340 q 381 340 394 355 l 400 361 q 399 354 387 345 q 379 339 370 339 q 361 340 361 348 q 361 357 391 394 l 409 417 l 418 426 q 426 435 427 441 q 432 438 432 433 z m 403 333 q 379 328 366 315 q 355 301 355 298 q 355 292 361 292 q 363 291 372 294 q 375 297 378 300 q 382 304 387 309 z m 447 430 q 444 409 427 393 q 427 391 426 391 q 426 391 426 390 q 421 384 416 378 q 411 373 406 366 q 403 363 403 360 q 402 363 405 369 q 396 355 396 348 q 396 343 400 343 q 402 343 408 346 q 430 364 439 397 l 439 393 l 439 388 q 442 385 442 381 q 442 378 435 366 l 423 346 l 409 328 q 414 331 426 337 l 424 336 q 421 333 416 329 q 411 325 406 318 l 394 303 l 388 295 q 379 286 369 283 q 360 283 355 289 q 346 292 352 303 q 354 304 356 307 q 357 310 360 313 l 361 315 l 351 313 q 376 331 393 333 q 394 333 396 334 q 397 334 399 334 l 400 334 l 403 334 l 412 348 q 406 342 402 341 q 397 340 394 340 q 387 340 387 348 q 387 366 418 394 l 421 396 l 436 411 q 439 417 442 422 q 445 426 447 430 z m 618 453 q 609 456 603 456 q 588 456 575 452 q 562 448 549 441 q 543 438 539 434 q 535 430 531 427 q 549 426 579 408 q 612 441 636 450 z m 649 447 q 643 445 636 443 q 630 441 622 433 q 618 430 600 412 l 589 402 l 604 393 q 607 397 613 404 q 619 411 627 420 z m 663 472 q 663 471 661 469 q 661 459 657 448 l 658 447 l 657 447 q 649 429 637 417 l 613 388 q 616 387 618 387 q 619 387 622 385 q 622 382 621 382 q 618 382 616 383 q 615 384 612 385 q 594 366 592 349 q 589 343 589 340 q 589 334 595 334 q 607 334 621 354 l 627 363 q 642 384 646 400 l 646 405 q 646 403 648 402 l 648 400 q 645 379 633 361 l 613 322 q 613 328 618 342 q 600 328 591 328 q 577 328 580 346 q 580 355 586 366 q 592 378 601 391 l 586 399 l 573 385 q 568 379 560 370 q 552 361 540 346 q 516 322 498 322 l 493 322 q 489 322 480 327 q 480 327 483 327 q 496 324 510 337 q 498 331 481 331 q 465 331 454 339 l 456 339 q 441 349 441 370 q 441 385 447 393 q 456 417 481 433 q 490 441 498 443 q 507 445 516 447 q 531 447 537 441 l 535 441 q 532 444 522 444 q 507 444 484 430 q 468 418 456 405 q 442 384 442 367 q 442 343 465 336 q 474 333 478 333 q 510 334 547 375 l 576 405 q 553 418 525 418 l 523 418 q 520 412 520 405 q 522 405 528 396 q 517 402 517 411 q 517 415 519 418 q 504 415 499 412 q 472 402 475 381 q 475 367 484 357 l 487 354 q 469 372 469 385 q 469 405 487 418 q 502 429 525 429 q 546 453 577 457 q 585 459 601 459 q 609 459 624 456 l 642 451 l 651 451 l 652 450 q 658 460 661 475 l 663 475 z m 682 375 q 682 370 681 367 q 673 360 668 354 q 663 348 658 340 l 660 340 l 661 340 q 660 339 658 339 q 657 339 657 337 q 649 337 649 340 q 649 346 663 360 q 673 373 673 376 q 675 381 669 385 q 651 360 637 354 l 631 351 l 628 352 q 634 352 648 367 q 661 379 666 387 q 666 388 665 388 q 664 388 664 390 q 664 391 675 400 q 675 402 676 402 l 678 400 q 678 399 670 388 q 682 384 682 375 z m 726 379 q 726 388 720 385 q 714 385 711 382 q 706 379 697 367 q 688 355 688 348 q 687 345 691 345 q 700 348 706 355 q 712 367 712 372 q 712 375 711 375 q 717 375 717 367 l 715 364 q 718 367 720 371 q 723 375 726 378 z m 754 393 q 748 393 741 385 q 735 378 729 369 q 723 360 715 348 q 708 333 702 324 q 696 316 694 313 q 675 289 664 289 q 655 288 651 295 q 651 303 651 303 q 651 310 657 316 q 654 315 649 315 q 664 330 682 334 q 684 334 684 335 q 685 336 688 336 l 690 334 q 661 325 655 307 q 654 304 654 300 q 654 298 655 297 q 655 295 657 295 q 669 294 685 318 l 696 333 l 702 342 q 697 340 694 340 q 682 340 682 352 q 682 366 702 384 q 711 393 718 393 q 729 393 729 381 l 730 381 l 738 390 q 745 397 751 397 q 756 397 759 393 z m 781 382 q 781 373 765 364 q 763 363 762 363 l 760 363 q 756 363 751 370 q 754 367 759 367 q 769 373 772 384 l 772 387 l 772 388 l 772 390 q 766 390 753 376 l 753 375 q 748 369 748 365 q 747 361 747 358 q 745 360 745 367 q 742 361 741 357 q 738 351 738 346 q 738 345 739 343 q 739 340 745 340 q 760 346 771 355 q 774 358 778 361 q 775 357 772 353 q 769 349 762 345 q 750 337 741 340 q 741 339 739 340 q 730 340 730 349 q 730 364 747 379 q 756 393 771 393 q 774 393 775 391 q 781 387 781 382 z m 841 433 q 841 427 793 370 q 780 354 780 345 q 780 340 784 340 q 793 340 804 355 q 805 357 806 358 q 808 358 810 361 q 810 354 798 345 q 790 339 780 339 q 772 342 772 348 q 772 360 801 394 l 819 417 l 828 426 q 837 435 837 441 q 841 438 841 433 z m 922 387 q 897 396 895 415 q 888 411 880 407 q 873 403 868 399 q 840 372 840 349 q 840 340 844 339 l 847 339 l 850 339 q 873 339 892 354 q 898 360 906 368 q 915 375 922 387 z m 952 430 l 940 430 q 922 429 897 417 q 900 396 925 391 l 936 405 z m 979 457 q 960 457 944 454 q 928 451 916 444 q 924 451 935 456 q 946 460 960 463 q 930 465 907 445 q 903 442 897 430 q 907 433 917 434 q 927 436 939 435 q 942 435 946 435 q 951 435 958 433 q 961 438 966 444 q 972 450 979 457 z m 1074 459 q 1071 454 1067 450 q 1063 447 1056 444 q 1044 436 1033 436 l 1030 436 q 1029 436 1027 438 q 1029 439 1029 440 q 1029 442 1032 445 q 1018 456 994 456 l 988 448 l 973 430 q 985 429 996 428 q 1006 426 1015 426 q 1036 426 1044 430 q 1038 424 1021 421 q 1008 418 994 423 l 970 427 q 964 420 959 414 q 954 409 951 403 l 940 388 l 948 388 q 985 391 991 406 l 993 406 q 988 397 973 390 q 966 387 959 386 q 952 384 946 384 l 939 384 q 928 372 922 363 q 915 354 909 348 q 889 327 873 327 q 865 328 856 328 q 871 328 888 343 q 867 334 855 334 l 846 336 l 858 324 q 846 330 838 337 q 837 337 831 340 q 813 354 811 375 q 811 382 811 388 q 811 394 814 400 q 819 414 826 424 q 834 433 844 444 q 870 466 889 466 q 900 466 907 460 l 906 459 q 901 463 892 463 q 873 460 852 444 q 834 429 825 414 q 813 393 813 375 q 816 348 837 340 q 834 349 835 358 q 838 381 852 397 q 868 418 897 430 q 900 433 900 439 l 913 453 q 933 469 964 469 q 972 469 977 469 q 982 469 990 468 l 991 468 q 1002 475 1010 479 q 1018 483 1027 481 q 1033 481 1036 478 q 1020 475 1020 475 q 1017 474 1013 472 q 1009 471 1005 468 q 1011 466 1017 466 q 1023 465 1030 462 q 1045 457 1054 457 q 1068 457 1074 459 z m 982 354 q 978 358 978 364 q 978 367 978 370 q 979 372 979 375 q 964 355 966 346 q 966 343 969 343 q 972 343 982 354 z m 1002 385 q 1002 388 999 388 q 996 388 993 387 q 991 385 988 379 q 981 364 981 360 q 981 355 982 354 l 987 358 l 987 360 l 987 358 q 988 360 988 360 q 988 361 990 363 q 993 372 993 375 q 993 376 991 378 q 994 372 994 370 q 999 375 1002 385 z m 1008 381 q 1008 373 997 358 q 984 345 978 340 l 966 340 q 957 340 957 348 q 957 360 973 379 q 984 393 997 393 q 1008 393 1008 381 z m 1057 384 q 1059 381 1051 367 q 1042 355 1039 352 l 1021 336 q 1011 325 1008 313 q 1009 331 1021 345 q 1027 351 1030 356 q 1033 360 1036 366 q 1038 367 1039 372 l 1039 367 q 1039 367 1038 364 q 1041 367 1047 379 q 1047 381 1048 382 q 1048 382 1048 384 q 1048 391 1041 388 q 1041 388 1029 379 q 1026 372 1020 366 q 1015 361 1009 354 q 1002 345 1000 340 q 999 339 993 327 q 993 330 992 334 q 991 337 993 340 q 996 351 1006 361 l 1015 372 q 1023 382 1023 388 q 1023 390 1022 392 q 1021 393 1021 394 q 1030 391 1030 385 q 1039 393 1050 393 q 1056 390 1057 384 z m 1116 405 l 1093 405 q 1092 402 1084 393 q 1075 384 1063 367 q 1060 367 1057 360 q 1051 352 1051 345 q 1051 340 1054 340 q 1062 340 1075 355 l 1077 357 q 1078 358 1078 359 q 1078 360 1080 361 q 1080 354 1069 345 q 1062 339 1051 339 q 1044 342 1042 348 q 1042 351 1048 363 l 1066 384 l 1083 405 l 1057 408 q 1051 409 1042 409 l 1029 409 q 1011 409 993 402 l 991 402 q 1006 417 1038 417 q 1039 417 1050 414 q 1062 412 1083 409 l 1087 408 q 1092 415 1096 420 q 1099 426 1102 430 q 1105 429 1105 423 q 1105 418 1102 415 l 1096 406 l 1108 405 l 1117 405 l 1119 405 l 1123 405 z m 1126 385 q 1126 381 1116 376 l 1114 375 q 1119 379 1119 387 l 1119 393 l 1114 393 q 1107 393 1105 387 q 1105 384 1110 361 q 1111 340 1086 340 q 1072 340 1069 349 q 1068 351 1068 354 q 1068 366 1086 369 l 1092 367 l 1089 367 q 1083 367 1080 364 q 1075 357 1075 354 q 1075 342 1087 342 q 1099 342 1099 358 q 1099 366 1098 370 q 1096 375 1096 381 q 1096 396 1110 396 q 1113 396 1114 395 q 1116 394 1119 394 q 1125 391 1125 390 q 1126 388 1126 385 z"},"r":{"x_min":0,"x_max":172,"ha":172,"o":"m 54 70 q 58 78 65 93 q 72 108 79 123 q 86 138 90 152 q 94 165 92 170 q 89 174 86 178 q 84 181 82 185 l 33 115 q 29 109 21 114 q 13 118 19 128 q 28 143 38 158 q 49 174 60 191 q 64 196 64 204 q 64 213 74 242 q 84 273 101 288 q 118 303 126 306 q 134 309 143 304 q 152 300 160 293 q 167 286 172 278 q 177 271 177 267 q 148 257 132 237 q 115 217 108 203 q 104 195 114 181 q 124 167 138 149 q 141 139 131 119 q 121 99 110 80 q 100 60 95 46 q 90 32 102 34 q 107 34 118 44 q 129 53 142 68 q 156 83 171 102 q 186 121 198 139 q 204 149 212 144 q 221 139 217 130 q 200 109 183 86 q 166 64 150 46 q 135 27 120 14 q 105 1 93 -1 q 78 -2 68 4 q 58 10 52 20 q 47 31 48 44 q 48 57 54 70 z"},"2":{"x_min":0,"x_max":1219,"ha":1219,"o":"m 876 781 l 739 657 l 775 471 l 615 565 l 450 471 l 489 652 l 351 781 l 537 801 l 615 972 l 690 802 z m 682 576 l 639 834 l 586 834 l 541 576 l 564 562 l 583 576 l 592 634 l 631 634 l 642 576 l 663 562 z m 628 672 l 598 672 l 612 774 z m 610 21 l 631 21 l 624 39 q 622 42 622 44 q 622 46 619 49 q 619 45 616 39 z m 352 -5 l 352 3 l 363 3 l 363 -5 z m 844 -5 l 844 58 l 852 58 l 852 1 l 883 1 l 883 -5 z m 787 -5 l 787 58 l 832 58 l 832 49 l 795 49 l 795 30 l 829 30 l 829 22 l 795 22 l 795 1 l 832 1 l 832 -5 z m 565 -5 l 565 21 l 541 58 l 552 58 l 564 39 q 567 30 570 28 q 571 30 572 33 q 574 36 577 39 l 589 58 l 598 58 l 573 21 l 573 -5 z m 376 -5 l 376 58 l 400 58 q 403 58 406 56 q 408 55 409 55 q 415 54 417 49 q 420 46 420 40 q 420 36 417 34 q 415 28 411 28 q 415 27 420 22 q 423 16 423 13 q 423 10 422 8 q 421 7 421 6 q 420 0 415 0 q 414 -3 412 -3 q 411 -3 409 -5 l 400 -5 z m 205 -5 l 187 58 l 196 58 l 205 16 q 207 12 207 9 q 207 6 208 3 q 210 10 210 15 l 222 58 l 232 58 l 241 25 q 243 18 244 14 q 246 9 246 3 q 247 6 247 9 q 247 12 249 16 l 259 58 l 267 58 l 249 -5 l 241 -5 l 229 42 q 228 46 228 49 q 226 46 226 42 l 213 -5 z m 123 -5 l 105 58 l 115 58 l 123 16 q 123 9 127 3 q 129 10 129 15 l 141 58 l 150 58 l 160 25 q 162 18 162 14 q 163 9 163 3 q 166 6 166 9 q 166 12 168 16 l 177 58 l 186 58 l 168 -5 l 160 -5 l 148 42 q 147 46 147 49 q 144 46 144 42 l 130 -5 z m 384 30 l 397 30 q 403 30 405 33 q 409 33 409 34 q 411 36 411 40 q 411 45 409 46 l 408 46 q 406 46 406 47 q 406 48 405 48 q 403 49 396 49 l 384 49 z m 285 -5 l 268 58 l 277 58 l 286 16 q 288 12 288 9 q 288 6 291 3 q 291 9 292 11 q 292 13 292 15 l 304 58 l 313 58 l 324 25 q 325 18 326 14 q 327 9 327 3 q 330 6 330 9 q 330 12 331 16 l 342 58 l 349 58 l 331 -5 l 324 -5 l 312 42 q 310 46 310 49 q 307 46 307 42 l 294 -5 z m 664 28 l 682 28 q 685 28 688 29 q 690 30 693 30 q 696 30 696 34 q 697 36 697 40 q 697 45 694 48 q 693 49 684 49 l 664 49 z m 384 1 l 400 1 q 403 1 405 3 l 409 3 q 411 6 414 7 l 414 13 q 414 16 411 19 q 411 22 408 22 l 397 22 l 384 22 z m 435 -5 l 435 58 l 442 58 l 442 -5 z m 985 25 q 985 12 990 7 q 996 1 1006 1 q 1017 1 1021 7 q 1027 12 1027 27 q 1027 34 1026 39 q 1023 46 1018 48 q 1014 49 1006 49 q 997 49 993 45 q 985 39 985 25 z m 976 25 q 976 42 985 49 q 991 58 1006 58 q 1011 58 1014 56 q 1018 55 1021 54 q 1026 52 1028 49 q 1030 46 1033 42 q 1035 39 1035 27 q 1035 13 1032 9 q 1027 1 1021 -3 q 1015 -6 1006 -6 q 1002 -6 998 -6 q 994 -5 990 -3 q 987 0 984 3 q 982 6 981 9 q 979 13 978 17 q 976 21 976 25 z m 592 -5 l 616 58 l 625 58 l 651 -5 l 642 -5 l 634 13 l 609 13 l 600 -5 z m 459 -5 l 459 58 l 466 58 l 466 1 l 495 1 l 495 -5 z m 892 -5 l 892 3 l 903 3 l 903 -5 z m 748 19 l 748 27 l 774 27 l 774 3 q 768 -3 762 -5 q 759 -5 755 -6 q 751 -6 748 -6 q 739 -6 733 -3 q 729 0 726 2 q 723 4 721 9 q 720 13 718 17 q 717 21 717 25 q 717 31 718 34 q 720 37 721 42 q 724 51 732 54 q 735 55 740 56 q 744 58 748 58 q 756 58 760 55 q 766 54 768 49 q 772 45 774 40 l 766 39 q 766 40 762 45 q 762 48 756 49 l 748 49 l 739 49 q 735 48 732 45 q 732 43 727 39 q 727 36 726 33 q 726 30 726 27 q 726 16 729 13 q 735 4 736 3 q 741 1 748 1 q 754 1 759 3 q 762 6 764 6 q 765 6 766 7 l 766 19 z m 657 -5 l 657 58 l 684 58 q 688 58 691 56 q 694 55 697 55 q 702 54 703 49 q 706 46 706 40 q 706 33 702 28 q 700 27 696 26 q 693 25 688 22 q 691 22 692 22 q 693 21 694 21 q 696 18 696 16 q 697 13 700 10 l 712 -5 l 702 -5 l 693 7 q 690 10 689 12 q 688 15 687 16 q 687 19 686 19 q 684 19 682 21 l 681 21 q 679 21 679 22 q 679 22 678 22 l 675 22 l 664 22 l 664 -5 z m 505 -5 l 505 58 l 514 58 l 514 1 l 544 1 l 544 -5 z m 961 16 l 969 15 q 966 3 960 0 q 954 -6 943 -6 q 934 -6 928 -3 q 924 0 922 3 q 921 6 918 9 q 915 21 915 27 q 915 33 918 45 q 925 52 928 54 q 933 55 936 56 q 939 58 943 58 q 948 58 952 56 q 957 55 960 54 q 963 51 965 48 q 967 45 969 40 l 960 39 q 960 45 954 48 q 951 49 943 49 q 934 49 931 48 q 928 46 928 44 q 927 42 924 39 q 924 36 923 33 q 922 30 922 27 q 922 18 927 13 q 927 10 928 8 q 930 6 931 3 q 936 1 943 1 q 951 1 955 6 q 960 10 961 16 z m 1047 -5 l 1047 58 l 1059 58 l 1074 13 q 1074 10 1076 8 q 1077 6 1077 3 q 1077 4 1080 13 l 1093 58 l 1105 58 l 1105 -5 l 1098 -5 l 1098 46 l 1080 -5 l 1072 -5 l 1054 48 l 1054 -5 z m 610 21 l 631 21 l 624 39 q 622 42 622 44 q 622 46 619 49 q 619 45 616 39 z m 352 -5 l 352 3 l 363 3 l 363 -5 z m 844 -5 l 844 58 l 852 58 l 852 1 l 883 1 l 883 -5 z m 787 -5 l 787 58 l 832 58 l 832 49 l 795 49 l 795 30 l 829 30 l 829 22 l 795 22 l 795 1 l 832 1 l 832 -5 z m 565 -5 l 565 21 l 541 58 l 552 58 l 564 39 q 567 30 570 28 q 571 30 572 33 q 574 36 577 39 l 589 58 l 598 58 l 573 21 l 573 -5 z m 376 -5 l 376 58 l 400 58 q 403 58 406 56 q 408 55 409 55 q 415 54 417 49 q 420 46 420 40 q 420 36 417 34 q 415 28 411 28 q 415 27 420 22 q 423 16 423 13 q 423 10 422 8 q 421 7 421 6 q 420 0 415 0 q 414 -3 412 -3 q 411 -3 409 -5 l 400 -5 z m 205 -5 l 187 58 l 196 58 l 205 16 q 207 12 207 9 q 207 6 208 3 q 210 10 210 15 l 222 58 l 232 58 l 241 25 q 243 18 244 14 q 246 9 246 3 q 247 6 247 9 q 247 12 249 16 l 259 58 l 267 58 l 249 -5 l 241 -5 l 229 42 q 228 46 228 49 q 226 46 226 42 l 213 -5 z m 123 -5 l 105 58 l 115 58 l 123 16 q 123 9 127 3 q 129 10 129 15 l 141 58 l 150 58 l 160 25 q 162 18 162 14 q 163 9 163 3 q 166 6 166 9 q 166 12 168 16 l 177 58 l 186 58 l 168 -5 l 160 -5 l 148 42 q 147 46 147 49 q 144 46 144 42 l 130 -5 z m 384 30 l 397 30 q 403 30 405 33 q 409 33 409 34 q 411 36 411 40 q 411 45 409 46 l 408 46 q 406 46 406 47 q 406 48 405 48 q 403 49 396 49 l 384 49 z m 285 -5 l 268 58 l 277 58 l 286 16 q 288 12 288 9 q 288 6 291 3 q 291 9 292 11 q 292 13 292 15 l 304 58 l 313 58 l 324 25 q 325 18 326 14 q 327 9 327 3 q 330 6 330 9 q 330 12 331 16 l 342 58 l 349 58 l 331 -5 l 324 -5 l 312 42 q 310 46 310 49 q 307 46 307 42 l 294 -5 z m 664 28 l 682 28 q 685 28 688 29 q 690 30 693 30 q 696 30 696 34 q 697 36 697 40 q 697 45 694 48 q 693 49 684 49 l 664 49 z m 384 1 l 400 1 q 403 1 405 3 l 409 3 q 411 6 414 7 l 414 13 q 414 16 411 19 q 411 22 408 22 l 397 22 l 384 22 z m 435 -5 l 435 58 l 442 58 l 442 -5 z m 985 25 q 985 12 990 7 q 996 1 1006 1 q 1017 1 1021 7 q 1027 12 1027 27 q 1027 34 1026 39 q 1023 46 1018 48 q 1014 49 1006 49 q 997 49 993 45 q 985 39 985 25 z m 976 25 q 976 42 985 49 q 991 58 1006 58 q 1011 58 1014 56 q 1018 55 1021 54 q 1026 52 1028 49 q 1030 46 1033 42 q 1035 39 1035 27 q 1035 13 1032 9 q 1027 1 1021 -3 q 1015 -6 1006 -6 q 1002 -6 998 -6 q 994 -5 990 -3 q 987 0 984 3 q 982 6 981 9 q 979 13 978 17 q 976 21 976 25 z m 592 -5 l 616 58 l 625 58 l 651 -5 l 642 -5 l 634 13 l 609 13 l 600 -5 z m 459 -5 l 459 58 l 466 58 l 466 1 l 495 1 l 495 -5 z m 892 -5 l 892 3 l 903 3 l 903 -5 z m 748 19 l 748 27 l 774 27 l 774 3 q 768 -3 762 -5 q 759 -5 755 -6 q 751 -6 748 -6 q 739 -6 733 -3 q 729 0 726 2 q 723 4 721 9 q 720 13 718 17 q 717 21 717 25 q 717 31 718 34 q 720 37 721 42 q 724 51 732 54 q 735 55 740 56 q 744 58 748 58 q 756 58 760 55 q 766 54 768 49 q 772 45 774 40 l 766 39 q 766 40 762 45 q 762 48 756 49 l 748 49 l 739 49 q 735 48 732 45 q 732 43 727 39 q 727 36 726 33 q 726 30 726 27 q 726 16 729 13 q 735 4 736 3 q 741 1 748 1 q 754 1 759 3 q 762 6 764 6 q 765 6 766 7 l 766 19 z m 657 -5 l 657 58 l 684 58 q 688 58 691 56 q 694 55 697 55 q 702 54 703 49 q 706 46 706 40 q 706 33 702 28 q 700 27 696 26 q 693 25 688 22 q 691 22 692 22 q 693 21 694 21 q 696 18 696 16 q 697 13 700 10 l 712 -5 l 702 -5 l 693 7 q 690 10 689 12 q 688 15 687 16 q 687 19 686 19 q 684 19 682 21 l 681 21 q 679 21 679 22 q 679 22 678 22 l 675 22 l 664 22 l 664 -5 z m 505 -5 l 505 58 l 514 58 l 514 1 l 544 1 l 544 -5 z m 961 16 l 969 15 q 966 3 960 0 q 954 -6 943 -6 q 934 -6 928 -3 q 924 0 922 3 q 921 6 918 9 q 915 21 915 27 q 915 33 918 45 q 925 52 928 54 q 933 55 936 56 q 939 58 943 58 q 948 58 952 56 q 957 55 960 54 q 963 51 965 48 q 967 45 969 40 l 960 39 q 960 45 954 48 q 951 49 943 49 q 934 49 931 48 q 928 46 928 44 q 927 42 924 39 q 924 36 923 33 q 922 30 922 27 q 922 18 927 13 q 927 10 928 8 q 930 6 931 3 q 936 1 943 1 q 951 1 955 6 q 960 10 961 16 z m 1047 -5 l 1047 58 l 1059 58 l 1074 13 q 1074 10 1076 8 q 1077 6 1077 3 q 1077 4 1080 13 l 1093 58 l 1105 58 l 1105 -5 l 1098 -5 l 1098 46 l 1080 -5 l 1072 -5 l 1054 48 l 1054 -5 z m 610 21 l 631 21 l 624 39 q 622 42 622 44 q 622 46 619 49 q 619 45 616 39 z m 352 -5 l 352 3 l 363 3 l 363 -5 z m 844 -5 l 844 58 l 852 58 l 852 1 l 883 1 l 883 -5 z m 787 -5 l 787 58 l 832 58 l 832 49 l 795 49 l 795 30 l 829 30 l 829 22 l 795 22 l 795 1 l 832 1 l 832 -5 z m 565 -5 l 565 21 l 541 58 l 552 58 l 564 39 q 567 30 570 28 q 571 30 572 33 q 574 36 577 39 l 589 58 l 598 58 l 573 21 l 573 -5 z m 376 -5 l 376 58 l 400 58 q 403 58 406 56 q 408 55 409 55 q 415 54 417 49 q 420 46 420 40 q 420 36 417 34 q 415 28 411 28 q 415 27 420 22 q 423 16 423 13 q 423 10 422 8 q 421 7 421 6 q 420 0 415 0 q 414 -3 412 -3 q 411 -3 409 -5 l 400 -5 z m 205 -5 l 187 58 l 196 58 l 205 16 q 207 12 207 9 q 207 6 208 3 q 210 10 210 15 l 222 58 l 232 58 l 241 25 q 243 18 244 14 q 246 9 246 3 q 247 6 247 9 q 247 12 249 16 l 259 58 l 267 58 l 249 -5 l 241 -5 l 229 42 q 228 46 228 49 q 226 46 226 42 l 213 -5 z m 123 -5 l 105 58 l 115 58 l 123 16 q 123 9 127 3 q 129 10 129 15 l 141 58 l 150 58 l 160 25 q 162 18 162 14 q 163 9 163 3 q 166 6 166 9 q 166 12 168 16 l 177 58 l 186 58 l 168 -5 l 160 -5 l 148 42 q 147 46 147 49 q 144 46 144 42 l 130 -5 z m 384 30 l 397 30 q 403 30 405 33 q 409 33 409 34 q 411 36 411 40 q 411 45 409 46 l 408 46 q 406 46 406 47 q 406 48 405 48 q 403 49 396 49 l 384 49 z m 285 -5 l 268 58 l 277 58 l 286 16 q 288 12 288 9 q 288 6 291 3 q 291 9 292 11 q 292 13 292 15 l 304 58 l 313 58 l 324 25 q 325 18 326 14 q 327 9 327 3 q 330 6 330 9 q 330 12 331 16 l 342 58 l 349 58 l 331 -5 l 324 -5 l 312 42 q 310 46 310 49 q 307 46 307 42 l 294 -5 z m 664 28 l 682 28 q 685 28 688 29 q 690 30 693 30 q 696 30 696 34 q 697 36 697 40 q 697 45 694 48 q 693 49 684 49 l 664 49 z m 384 1 l 400 1 q 403 1 405 3 l 409 3 q 411 6 414 7 l 414 13 q 414 16 411 19 q 411 22 408 22 l 397 22 l 384 22 z m 435 -5 l 435 58 l 442 58 l 442 -5 z m 985 25 q 985 12 990 7 q 996 1 1006 1 q 1017 1 1021 7 q 1027 12 1027 27 q 1027 34 1026 39 q 1023 46 1018 48 q 1014 49 1006 49 q 997 49 993 45 q 985 39 985 25 z m 976 25 q 976 42 985 49 q 991 58 1006 58 q 1011 58 1014 56 q 1018 55 1021 54 q 1026 52 1028 49 q 1030 46 1033 42 q 1035 39 1035 27 q 1035 13 1032 9 q 1027 1 1021 -3 q 1015 -6 1006 -6 q 1002 -6 998 -6 q 994 -5 990 -3 q 987 0 984 3 q 982 6 981 9 q 979 13 978 17 q 976 21 976 25 z m 592 -5 l 616 58 l 625 58 l 651 -5 l 642 -5 l 634 13 l 609 13 l 600 -5 z m 459 -5 l 459 58 l 466 58 l 466 1 l 495 1 l 495 -5 z m 892 -5 l 892 3 l 903 3 l 903 -5 z m 748 19 l 748 27 l 774 27 l 774 3 q 768 -3 762 -5 q 759 -5 755 -6 q 751 -6 748 -6 q 739 -6 733 -3 q 729 0 726 2 q 723 4 721 9 q 720 13 718 17 q 717 21 717 25 q 717 31 718 34 q 720 37 721 42 q 724 51 732 54 q 735 55 740 56 q 744 58 748 58 q 756 58 760 55 q 766 54 768 49 q 772 45 774 40 l 766 39 q 766 40 762 45 q 762 48 756 49 l 748 49 l 739 49 q 735 48 732 45 q 732 43 727 39 q 727 36 726 33 q 726 30 726 27 q 726 16 729 13 q 735 4 736 3 q 741 1 748 1 q 754 1 759 3 q 762 6 764 6 q 765 6 766 7 l 766 19 z m 657 -5 l 657 58 l 684 58 q 688 58 691 56 q 694 55 697 55 q 702 54 703 49 q 706 46 706 40 q 706 33 702 28 q 700 27 696 26 q 693 25 688 22 q 691 22 692 22 q 693 21 694 21 q 696 18 696 16 q 697 13 700 10 l 712 -5 l 702 -5 l 693 7 q 690 10 689 12 q 688 15 687 16 q 687 19 686 19 q 684 19 682 21 l 681 21 q 679 21 679 22 q 679 22 678 22 l 675 22 l 664 22 l 664 -5 z m 505 -5 l 505 58 l 514 58 l 514 1 l 544 1 l 544 -5 z m 961 16 l 969 15 q 966 3 960 0 q 954 -6 943 -6 q 934 -6 928 -3 q 924 0 922 3 q 921 6 918 9 q 915 21 915 27 q 915 33 918 45 q 925 52 928 54 q 933 55 936 56 q 939 58 943 58 q 948 58 952 56 q 957 55 960 54 q 963 51 965 48 q 967 45 969 40 l 960 39 q 960 45 954 48 q 951 49 943 49 q 934 49 931 48 q 928 46 928 44 q 927 42 924 39 q 924 36 923 33 q 922 30 922 27 q 922 18 927 13 q 927 10 928 8 q 930 6 931 3 q 936 1 943 1 q 951 1 955 6 q 960 10 961 16 z m 1047 -5 l 1047 58 l 1059 58 l 1074 13 q 1074 10 1076 8 q 1077 6 1077 3 q 1077 4 1080 13 l 1093 58 l 1105 58 l 1105 -5 l 1098 -5 l 1098 46 l 1080 -5 l 1072 -5 l 1054 48 l 1054 -5 z m 175 111 l 187 106 q 184 93 174 84 q 162 75 148 75 q 135 75 123 81 q 111 90 109 99 q 103 109 103 124 q 103 141 109 151 q 114 162 124 166 q 135 172 148 172 q 165 172 171 165 q 181 162 186 145 l 174 144 q 168 156 163 157 q 157 163 148 163 q 136 163 130 157 q 121 151 118 144 q 117 138 117 124 q 117 111 121 105 q 124 94 130 91 q 138 85 147 85 q 159 85 166 93 q 169 96 172 100 q 174 105 175 111 z m 199 123 q 199 135 202 144 q 205 153 213 159 q 219 166 227 169 q 235 172 244 172 q 258 172 268 166 q 277 162 285 150 q 291 135 291 124 q 291 117 290 111 q 288 105 285 99 q 277 87 267 81 q 255 75 244 75 q 237 75 232 76 q 226 78 220 81 q 210 87 205 99 q 199 109 199 123 z m 213 123 q 213 105 220 94 q 231 85 244 85 q 259 85 267 97 q 277 108 277 124 q 277 130 276 134 q 274 139 273 144 q 270 154 261 157 q 256 163 244 163 q 232 163 222 153 q 213 145 213 123 z m 306 78 l 306 171 l 324 171 l 346 105 q 351 96 351 91 q 354 94 357 106 l 381 171 l 396 171 l 396 78 l 384 78 l 384 156 l 357 78 l 345 78 l 318 157 l 318 78 z m 417 78 l 417 171 l 453 171 l 466 171 q 474 171 478 166 q 480 165 486 157 q 487 154 488 151 q 489 148 489 144 q 489 135 481 124 q 474 117 453 117 l 429 117 l 429 78 z m 429 126 l 454 126 q 468 126 469 132 q 475 133 475 144 q 475 151 474 153 q 468 159 463 159 q 462 162 453 162 l 429 162 z m 505 78 l 505 171 l 517 171 l 517 87 l 564 87 l 564 78 z m 579 78 l 579 171 l 648 171 l 648 162 l 591 162 l 591 132 l 643 132 l 643 120 l 591 120 l 591 87 l 649 87 l 649 78 z m 690 78 l 690 162 l 658 162 l 658 171 l 735 171 l 735 162 l 703 162 l 703 78 z m 748 78 l 748 171 l 817 171 l 817 162 l 760 162 l 760 132 l 813 132 l 813 120 l 760 120 l 760 87 l 819 87 l 819 78 z m 870 106 l 882 108 q 882 100 885 97 q 888 91 895 88 q 898 87 909 87 q 912 87 916 87 q 919 87 922 88 q 927 88 930 94 q 931 97 931 103 q 931 108 930 111 q 928 112 926 113 q 924 114 921 117 q 919 117 904 120 q 897 123 892 124 q 888 124 885 126 q 879 129 876 136 q 873 138 872 141 q 871 144 871 147 q 871 156 877 162 q 879 165 882 166 q 885 168 889 171 q 892 172 907 172 q 918 172 924 169 q 928 166 931 164 q 934 163 936 159 q 942 154 942 145 l 930 144 q 927 156 922 157 q 918 162 907 162 q 892 162 889 157 q 885 153 885 147 q 885 142 889 139 q 889 139 907 132 q 915 130 920 128 q 925 127 928 126 q 933 124 935 122 q 937 120 940 117 q 943 112 943 103 q 943 93 940 88 q 934 82 928 79 q 924 78 920 76 q 915 75 909 75 q 903 75 897 76 q 891 78 888 79 q 880 81 873 91 q 870 97 870 106 z m 961 78 l 961 171 l 1029 171 l 1029 162 l 975 162 l 975 132 l 1027 132 l 1027 120 l 975 120 l 975 87 l 1032 87 l 1032 78 z m 1074 78 l 1074 162 l 1044 162 l 1044 171 l 1117 171 l 1117 162 l 1086 162 l 1086 78 z m 112 190 l 112 283 l 150 283 l 163 283 q 166 283 175 280 q 177 279 179 276 q 181 273 183 270 q 186 267 186 259 q 186 246 177 237 q 172 229 150 229 l 127 229 l 127 190 z m 127 241 l 150 241 q 163 241 168 244 q 174 250 174 256 q 174 259 172 262 q 171 265 169 268 q 165 273 162 273 q 160 274 150 274 l 127 274 z m 201 190 l 201 283 l 268 283 l 268 274 l 214 274 l 214 244 l 265 244 l 265 234 l 214 234 l 214 202 l 271 202 l 271 190 z m 288 190 l 288 283 l 331 283 q 345 283 351 282 q 358 279 361 274 q 364 262 364 259 q 364 249 358 243 q 352 237 337 234 q 340 231 342 231 q 343 231 345 229 q 352 222 355 216 l 372 190 l 357 190 l 343 210 q 342 214 340 217 q 337 220 336 223 q 333 225 332 227 q 331 229 330 229 q 327 231 324 231 q 322 234 316 234 l 303 234 l 303 190 z m 303 243 l 327 243 q 339 243 342 244 q 346 249 349 250 q 351 253 351 259 q 351 265 346 270 q 342 274 331 274 l 303 274 z m 381 222 l 391 222 q 391 219 392 216 q 394 213 396 210 q 397 208 400 206 q 402 204 405 204 q 414 201 420 201 q 423 201 426 201 q 429 201 430 202 q 439 205 441 208 q 441 210 442 212 q 442 214 442 216 q 442 222 441 223 q 436 226 430 229 q 429 231 425 231 q 421 231 415 234 q 402 235 396 240 q 388 246 385 249 q 384 253 384 261 q 384 264 384 268 q 385 271 388 274 q 390 280 400 283 q 403 286 417 286 q 429 286 435 283 q 444 279 447 273 q 453 264 453 259 l 441 256 q 438 267 433 270 q 427 276 417 276 q 405 276 400 270 q 396 267 396 261 q 396 255 400 253 q 402 250 417 247 q 430 241 439 241 q 442 238 445 236 q 448 234 450 231 q 454 226 454 217 q 454 210 450 204 q 447 199 444 197 q 442 195 439 192 q 427 189 420 189 q 409 189 397 192 q 393 195 390 197 q 387 199 384 204 q 382 208 382 212 q 381 216 381 222 z m 468 237 q 468 258 480 273 q 493 286 513 286 q 519 286 524 284 q 529 283 537 280 q 543 277 546 272 q 549 268 552 262 q 558 252 558 237 q 558 223 552 211 q 546 201 537 195 q 525 189 513 189 q 499 189 489 196 q 475 204 474 214 q 468 222 468 237 z m 480 237 q 480 219 489 210 q 498 201 513 201 q 528 201 537 210 q 544 220 544 237 q 544 243 544 249 q 543 255 540 259 q 535 267 531 270 q 523 276 513 276 q 505 276 500 274 q 496 271 489 267 q 480 258 480 237 z m 573 190 l 573 283 l 586 283 l 636 211 l 636 283 l 648 283 l 648 190 l 636 190 l 585 264 l 585 190 z m 658 190 l 694 283 l 708 283 l 747 190 l 732 190 l 721 220 l 682 220 l 670 190 z m 684 229 l 717 229 l 708 255 q 705 261 704 266 q 702 271 700 274 q 700 270 698 266 q 697 261 696 256 z m 754 190 l 754 283 l 768 283 l 768 202 l 814 202 l 814 190 z m 922 283 l 934 283 l 934 231 q 934 214 931 208 q 928 199 921 195 q 913 189 898 189 q 883 189 877 195 q 873 196 870 200 q 867 204 864 208 q 862 211 862 231 l 862 283 l 873 283 l 873 231 q 873 216 876 211 q 879 205 883 204 q 886 202 889 202 q 892 201 897 201 q 909 201 916 205 q 922 211 922 231 z m 951 222 l 963 222 q 963 219 964 216 q 966 213 967 210 q 969 208 971 206 q 973 204 976 204 q 985 201 990 201 q 1000 201 1005 202 q 1008 204 1012 208 q 1014 210 1014 216 q 1014 222 1012 223 q 1009 225 1008 226 q 1008 228 1005 229 q 1002 231 998 231 q 993 231 987 234 q 981 235 976 236 q 970 237 969 240 q 961 243 960 249 q 955 253 955 261 q 955 267 960 274 q 961 280 970 283 q 976 286 988 286 q 993 286 998 286 q 1003 286 1006 283 q 1015 279 1020 273 q 1021 270 1022 266 q 1024 262 1024 259 l 1012 256 q 1009 261 1008 264 q 1008 268 1005 270 q 1000 276 988 276 q 975 276 973 270 q 967 268 967 261 q 967 256 970 253 q 973 250 988 247 q 1005 241 1009 241 q 1014 238 1017 236 q 1020 234 1021 231 q 1026 228 1026 217 q 1026 208 1021 204 q 1018 199 1016 197 q 1014 195 1009 192 q 1000 189 993 189 q 985 189 980 190 q 975 190 970 192 q 967 195 964 197 q 960 199 957 204 q 954 208 952 212 q 951 216 951 222 z m 1044 190 l 1044 283 l 1111 283 l 1111 274 l 1057 274 l 1057 244 l 1107 244 l 1107 234 l 1057 234 l 1057 202 l 1113 202 l 1113 190 z m 307 388 q 307 403 285 406 q 282 406 278 407 q 273 408 267 408 l 258 397 l 234 372 q 228 364 222 358 q 217 352 210 348 q 219 345 232 343 q 235 343 240 343 q 246 343 250 345 q 273 346 285 357 q 307 375 307 388 z m 324 433 q 324 439 316 439 q 313 439 291 432 l 274 417 q 271 414 268 408 l 294 412 q 300 412 310 420 q 324 429 324 433 z m 343 460 q 343 457 339 457 q 336 457 335 458 q 334 459 331 459 q 316 456 297 436 q 300 439 304 440 q 307 442 310 444 q 321 445 330 444 q 336 444 336 436 l 336 430 q 328 417 294 409 q 321 406 321 391 q 321 373 292 354 q 282 348 270 344 q 259 340 247 339 q 228 334 217 336 q 208 336 198 340 q 189 334 181 334 l 178 334 q 169 337 163 339 l 168 339 q 180 339 187 345 l 187 346 q 177 340 165 340 q 148 340 139 349 q 124 360 124 381 q 124 387 126 392 q 127 397 130 405 q 141 427 166 444 q 174 451 182 454 q 190 456 198 457 q 214 457 220 451 q 213 456 205 456 q 196 456 186 450 q 171 444 169 441 q 154 433 139 415 q 126 394 126 379 q 126 372 128 368 q 129 363 132 358 q 138 349 148 346 q 153 345 156 344 q 159 343 162 343 q 168 343 172 344 q 177 346 183 349 q 166 361 166 382 q 169 402 190 417 l 187 412 q 184 412 181 406 q 172 397 172 387 q 172 367 195 354 q 207 361 207 363 q 210 367 213 370 q 216 373 219 376 q 222 379 222 384 q 223 388 226 393 l 226 391 q 226 384 225 379 l 243 400 q 289 453 319 462 q 306 466 298 466 q 279 465 256 453 q 229 439 229 420 q 229 414 234 409 q 235 408 235 406 q 226 412 226 421 q 226 438 246 454 q 270 472 297 469 q 306 469 324 463 l 330 463 q 337 463 342 460 z m 346 363 q 345 357 334 346 q 324 340 316 340 q 309 340 309 349 q 309 357 318 369 l 316 369 q 315 367 310 367 q 310 367 309 369 q 313 369 324 379 l 325 379 l 330 385 q 334 390 334 393 l 339 393 q 343 393 343 391 q 343 385 334 375 l 324 364 q 315 351 315 346 q 315 342 321 342 q 328 342 339 357 q 340 358 342 359 q 343 360 346 363 z m 354 405 q 348 396 339 396 q 334 396 328 400 l 333 400 q 343 400 346 411 l 346 414 l 354 411 q 355 409 354 405 z m 406 433 q 406 426 360 370 l 358 370 q 345 354 345 345 q 345 340 349 340 q 358 340 369 355 q 370 357 372 358 q 373 358 375 361 q 375 354 363 345 q 355 339 346 339 q 337 340 337 348 q 336 355 367 394 l 385 417 l 394 426 q 399 432 402 441 q 406 438 406 433 z m 432 433 q 432 427 384 370 q 369 352 369 345 q 369 340 375 340 q 381 340 394 355 l 400 361 q 399 354 387 345 q 379 339 370 339 q 361 340 361 348 q 361 357 391 394 l 409 417 l 418 426 q 426 435 427 441 q 432 438 432 433 z m 403 333 q 379 328 366 315 q 355 301 355 298 q 355 292 361 292 q 363 291 372 294 q 375 297 378 300 q 382 304 387 309 z m 447 430 q 444 409 427 393 q 427 391 426 391 q 426 391 426 390 q 421 384 416 378 q 411 373 406 366 q 403 363 403 360 q 402 363 405 369 q 396 355 396 348 q 396 343 400 343 q 402 343 408 346 q 430 364 439 397 l 439 393 l 439 388 q 442 385 442 381 q 442 378 435 366 l 423 346 l 409 328 q 414 331 426 337 l 424 336 q 421 333 416 329 q 411 325 406 318 l 394 303 l 388 295 q 379 286 369 283 q 360 283 355 289 q 346 292 352 303 q 354 304 356 307 q 357 310 360 313 l 361 315 l 351 313 q 376 331 393 333 q 394 333 396 334 q 397 334 399 334 l 400 334 l 403 334 l 412 348 q 406 342 402 341 q 397 340 394 340 q 387 340 387 348 q 387 366 418 394 l 421 396 l 436 411 q 439 417 442 422 q 445 426 447 430 z m 618 453 q 609 456 603 456 q 588 456 575 452 q 562 448 549 441 q 543 438 539 434 q 535 430 531 427 q 549 426 579 408 q 612 441 636 450 z m 649 447 q 643 445 636 443 q 630 441 622 433 q 618 430 600 412 l 589 402 l 604 393 q 607 397 613 404 q 619 411 627 420 z m 663 472 q 663 471 661 469 q 661 459 657 448 l 658 447 l 657 447 q 649 429 637 417 l 613 388 q 616 387 618 387 q 619 387 622 385 q 622 382 621 382 q 618 382 616 383 q 615 384 612 385 q 594 366 592 349 q 589 343 589 340 q 589 334 595 334 q 607 334 621 354 l 627 363 q 642 384 646 400 l 646 405 q 646 403 648 402 l 648 400 q 645 379 633 361 l 613 322 q 613 328 618 342 q 600 328 591 328 q 577 328 580 346 q 580 355 586 366 q 592 378 601 391 l 586 399 l 573 385 q 568 379 560 370 q 552 361 540 346 q 516 322 498 322 l 493 322 q 489 322 480 327 q 480 327 483 327 q 496 324 510 337 q 498 331 481 331 q 465 331 454 339 l 456 339 q 441 349 441 370 q 441 385 447 393 q 456 417 481 433 q 490 441 498 443 q 507 445 516 447 q 531 447 537 441 l 535 441 q 532 444 522 444 q 507 444 484 430 q 468 418 456 405 q 442 384 442 367 q 442 343 465 336 q 474 333 478 333 q 510 334 547 375 l 576 405 q 553 418 525 418 l 523 418 q 520 412 520 405 q 522 405 528 396 q 517 402 517 411 q 517 415 519 418 q 504 415 499 412 q 472 402 475 381 q 475 367 484 357 l 487 354 q 469 372 469 385 q 469 405 487 418 q 502 429 525 429 q 546 453 577 457 q 585 459 601 459 q 609 459 624 456 l 642 451 l 651 451 l 652 450 q 658 460 661 475 l 663 475 z m 682 375 q 682 370 681 367 q 673 360 668 354 q 663 348 658 340 l 660 340 l 661 340 q 660 339 658 339 q 657 339 657 337 q 649 337 649 340 q 649 346 663 360 q 673 373 673 376 q 675 381 669 385 q 651 360 637 354 l 631 351 l 628 352 q 634 352 648 367 q 661 379 666 387 q 666 388 665 388 q 664 388 664 390 q 664 391 675 400 q 675 402 676 402 l 678 400 q 678 399 670 388 q 682 384 682 375 z m 726 379 q 726 388 720 385 q 714 385 711 382 q 706 379 697 367 q 688 355 688 348 q 687 345 691 345 q 700 348 706 355 q 712 367 712 372 q 712 375 711 375 q 717 375 717 367 l 715 364 q 718 367 720 371 q 723 375 726 378 z m 754 393 q 748 393 741 385 q 735 378 729 369 q 723 360 715 348 q 708 333 702 324 q 696 316 694 313 q 675 289 664 289 q 655 288 651 295 q 651 303 651 303 q 651 310 657 316 q 654 315 649 315 q 664 330 682 334 q 684 334 684 335 q 685 336 688 336 l 690 334 q 661 325 655 307 q 654 304 654 300 q 654 298 655 297 q 655 295 657 295 q 669 294 685 318 l 696 333 l 702 342 q 697 340 694 340 q 682 340 682 352 q 682 366 702 384 q 711 393 718 393 q 729 393 729 381 l 730 381 l 738 390 q 745 397 751 397 q 756 397 759 393 z m 781 382 q 781 373 765 364 q 763 363 762 363 l 760 363 q 756 363 751 370 q 754 367 759 367 q 769 373 772 384 l 772 387 l 772 388 l 772 390 q 766 390 753 376 l 753 375 q 748 369 748 365 q 747 361 747 358 q 745 360 745 367 q 742 361 741 357 q 738 351 738 346 q 738 345 739 343 q 739 340 745 340 q 760 346 771 355 q 774 358 778 361 q 775 357 772 353 q 769 349 762 345 q 750 337 741 340 q 741 339 739 340 q 730 340 730 349 q 730 364 747 379 q 756 393 771 393 q 774 393 775 391 q 781 387 781 382 z m 841 433 q 841 427 793 370 q 780 354 780 345 q 780 340 784 340 q 793 340 804 355 q 805 357 806 358 q 808 358 810 361 q 810 354 798 345 q 790 339 780 339 q 772 342 772 348 q 772 360 801 394 l 819 417 l 828 426 q 837 435 837 441 q 841 438 841 433 z m 922 387 q 897 396 895 415 q 888 411 880 407 q 873 403 868 399 q 840 372 840 349 q 840 340 844 339 l 847 339 l 850 339 q 873 339 892 354 q 898 360 906 368 q 915 375 922 387 z m 952 430 l 940 430 q 922 429 897 417 q 900 396 925 391 l 936 405 z m 979 457 q 960 457 944 454 q 928 451 916 444 q 924 451 935 456 q 946 460 960 463 q 930 465 907 445 q 903 442 897 430 q 907 433 917 434 q 927 436 939 435 q 942 435 946 435 q 951 435 958 433 q 961 438 966 444 q 972 450 979 457 z m 1074 459 q 1071 454 1067 450 q 1063 447 1056 444 q 1044 436 1033 436 l 1030 436 q 1029 436 1027 438 q 1029 439 1029 440 q 1029 442 1032 445 q 1018 456 994 456 l 988 448 l 973 430 q 985 429 996 428 q 1006 426 1015 426 q 1036 426 1044 430 q 1038 424 1021 421 q 1008 418 994 423 l 970 427 q 964 420 959 414 q 954 409 951 403 l 940 388 l 948 388 q 985 391 991 406 l 993 406 q 988 397 973 390 q 966 387 959 386 q 952 384 946 384 l 939 384 q 928 372 922 363 q 915 354 909 348 q 889 327 873 327 q 865 328 856 328 q 871 328 888 343 q 867 334 855 334 l 846 336 l 858 324 q 846 330 838 337 q 837 337 831 340 q 813 354 811 375 q 811 382 811 388 q 811 394 814 400 q 819 414 826 424 q 834 433 844 444 q 870 466 889 466 q 900 466 907 460 l 906 459 q 901 463 892 463 q 873 460 852 444 q 834 429 825 414 q 813 393 813 375 q 816 348 837 340 q 834 349 835 358 q 838 381 852 397 q 868 418 897 430 q 900 433 900 439 l 913 453 q 933 469 964 469 q 972 469 977 469 q 982 469 990 468 l 991 468 q 1002 475 1010 479 q 1018 483 1027 481 q 1033 481 1036 478 q 1020 475 1020 475 q 1017 474 1013 472 q 1009 471 1005 468 q 1011 466 1017 466 q 1023 465 1030 462 q 1045 457 1054 457 q 1068 457 1074 459 z m 982 354 q 978 358 978 364 q 978 367 978 370 q 979 372 979 375 q 964 355 966 346 q 966 343 969 343 q 972 343 982 354 z m 1002 385 q 1002 388 999 388 q 996 388 993 387 q 991 385 988 379 q 981 364 981 360 q 981 355 982 354 l 987 358 l 987 360 l 987 358 q 988 360 988 360 q 988 361 990 363 q 993 372 993 375 q 993 376 991 378 q 994 372 994 370 q 999 375 1002 385 z m 1008 381 q 1008 373 997 358 q 984 345 978 340 l 966 340 q 957 340 957 348 q 957 360 973 379 q 984 393 997 393 q 1008 393 1008 381 z m 1057 384 q 1059 381 1051 367 q 1042 355 1039 352 l 1021 336 q 1011 325 1008 313 q 1009 331 1021 345 q 1027 351 1030 356 q 1033 360 1036 366 q 1038 367 1039 372 l 1039 367 q 1039 367 1038 364 q 1041 367 1047 379 q 1047 381 1048 382 q 1048 382 1048 384 q 1048 391 1041 388 q 1041 388 1029 379 q 1026 372 1020 366 q 1015 361 1009 354 q 1002 345 1000 340 q 999 339 993 327 q 993 330 992 334 q 991 337 993 340 q 996 351 1006 361 l 1015 372 q 1023 382 1023 388 q 1023 390 1022 392 q 1021 393 1021 394 q 1030 391 1030 385 q 1039 393 1050 393 q 1056 390 1057 384 z m 1116 405 l 1093 405 q 1092 402 1084 393 q 1075 384 1063 367 q 1060 367 1057 360 q 1051 352 1051 345 q 1051 340 1054 340 q 1062 340 1075 355 l 1077 357 q 1078 358 1078 359 q 1078 360 1080 361 q 1080 354 1069 345 q 1062 339 1051 339 q 1044 342 1042 348 q 1042 351 1048 363 l 1066 384 l 1083 405 l 1057 408 q 1051 409 1042 409 l 1029 409 q 1011 409 993 402 l 991 402 q 1006 417 1038 417 q 1039 417 1050 414 q 1062 412 1083 409 l 1087 408 q 1092 415 1096 420 q 1099 426 1102 430 q 1105 429 1105 423 q 1105 418 1102 415 l 1096 406 l 1108 405 l 1117 405 l 1119 405 l 1123 405 z m 1126 385 q 1126 381 1116 376 l 1114 375 q 1119 379 1119 387 l 1119 393 l 1114 393 q 1107 393 1105 387 q 1105 384 1110 361 q 1111 340 1086 340 q 1072 340 1069 349 q 1068 351 1068 354 q 1068 366 1086 369 l 1092 367 l 1089 367 q 1083 367 1080 364 q 1075 357 1075 354 q 1075 342 1087 342 q 1099 342 1099 358 q 1099 366 1098 370 q 1096 375 1096 381 q 1096 396 1110 396 q 1113 396 1114 395 q 1116 394 1119 394 q 1125 391 1125 390 q 1126 388 1126 385 z"}}}
